;TYPE=PLATED
;Layer: PTH_Through
;EasyEDA Pro v2.2.43.4, 2025-11-30 18:35:17
;Gerber Generator version 0.3
M48
METRIC,LZ,0000.00000
;Hole size 1 = 0.30500 METRIC
T01C0.30500
;Hole size 2 = 0.60000 METRIC
T02C0.60000
;Hole size 3 = 0.90002 METRIC
T03C0.90002
;Hole size 4 = 1.00000 METRIC
T04C1.00000
;Hole size 5 = 1.02001 METRIC
T05C1.02001
%
G05
G90
T01
X32.81861Y-9.47239
X35.306Y-14.986
X33.274Y-12.573
X32.131Y-15.24
X33.147Y-14.605
T02
X35.69393Y-10.53004G85X35.69393Y-9.63004
X27.04391Y-10.53003G85X27.04391Y-9.63
X35.69399Y-6.17997G85X35.69399Y-5.57997
X27.04402Y-6.17997G85X27.04402Y-5.57997
T03
X23.722Y-25.273
X28.602Y-25.273
T04
X21.30806Y-7.112
X17.80794Y-7.112
X7.62Y-6.604
X10.16Y-6.604
X14.351Y-31.877
X14.351Y-29.337
T05
X6.985Y-20.447
X6.985Y-22.987
X6.985Y-25.527
X6.985Y-28.067
X6.985Y-30.607
X6.985Y-33.147
M30