G04 Layer: TopLayer*
G04 EasyEDA Pro v2.2.43.4, 2025-11-30 18:35:17*
G04 Gerber Generator version 0.3*
G04 Scale: 100 percent, Rotated: No, Reflected: No*
G04 Dimensions in millimeters*
G04 Leading zeros omitted, absolute positions, 4 integers and 5 decimals*
G04 Generated by custom config*
%FSLAX45Y45*%
%MOMM*%
%ADD10C,0.2032*%
%ADD11C,0.254*%
%ADD12C,1.6*%
%ADD13R,0.9X0.8*%
%ADD14R,1.2X0.55001*%
%ADD15R,1.8X1.8*%
%ADD16R,0.80648X0.86401*%
%ADD17R,0.86401X0.80648*%
%ADD18O,0.6069X1.97099*%
%ADD19O,0.60201X1.97099*%
%ADD20R,0.55001X1.1*%
%ADD21R,0.3X1.1*%
%ADD22O,1.1X2.0*%
%ADD23O,1.2X1.8*%
%ADD24R,0.8X0.9*%
%ADD25R,1.5X1.5*%
%ADD26C,1.5*%
%ADD27C,0.61*%
%ADD28C,0.508*%
%ADD29C,0.6096*%
G75*


G04 Copper Start*
G36*
G01X707062Y-1647292D02*
G01X1108160Y-1647292D01*
G01X1142745Y-1648760D01*
G01X1177082Y-1653154D01*
G01X1169918Y-1660961D01*
G01X1165353Y-1670523D01*
G01X1163786Y-1681002D01*
G01X1163786Y-1761002D01*
G01X1165539Y-1772069D01*
G01X1170626Y-1782053D01*
G01X1178549Y-1789976D01*
G01X1188533Y-1795063D01*
G01X1199600Y-1796816D01*
G01X1289600Y-1796816D01*
G01X1300667Y-1795063D01*
G01X1310651Y-1789976D01*
G01X1318574Y-1782053D01*
G01X1323661Y-1772069D01*
G01X1325414Y-1761002D01*
G01X1325414Y-1681002D01*
G01X1323493Y-1669432D01*
G01X1317938Y-1659102D01*
G01X1309343Y-1651122D01*
G01X1332275Y-1641816D01*
G01X1356365Y-1636142D01*
G01X1381040Y-1634236D01*
G01X1615205Y-1634236D01*
G01X1618876Y-1634604D01*
G01X1622567Y-1635246D01*
G01X1623041Y-1635377D01*
G01X1623201Y-1637797D01*
G01X1625380Y-1653256D01*
G01X1631133Y-1667768D01*
G01X1640138Y-1680520D01*
G01X1651889Y-1690797D01*
G01X1665728Y-1698023D01*
G01X1680877Y-1701791D01*
G01X1696488Y-1701890D01*
G01X1711684Y-1698316D01*
G01X1725614Y-1691268D01*
G01X1737495Y-1681141D01*
G01X1746662Y-1668505D01*
G01X1752600Y-1654067D01*
G01X1758501Y-1668438D01*
G01X1767601Y-1681029D01*
G01X1779395Y-1691140D01*
G01X1793229Y-1698210D01*
G01X1808332Y-1701846D01*
G01X1823868Y-1701846D01*
G01X1838971Y-1698210D01*
G01X1852805Y-1691140D01*
G01X1864599Y-1681029D01*
G01X1873699Y-1668438D01*
G01X1879600Y-1654067D01*
G01X1885501Y-1668438D01*
G01X1894601Y-1681029D01*
G01X1906395Y-1691140D01*
G01X1920229Y-1698210D01*
G01X1935332Y-1701846D01*
G01X1950868Y-1701846D01*
G01X1965971Y-1698210D01*
G01X1979805Y-1691140D01*
G01X1991599Y-1681029D01*
G01X2000699Y-1668438D01*
G01X2006600Y-1654067D01*
G01X2012501Y-1668438D01*
G01X2021601Y-1681029D01*
G01X2033395Y-1691140D01*
G01X2047229Y-1698210D01*
G01X2062332Y-1701846D01*
G01X2077868Y-1701846D01*
G01X2092971Y-1698210D01*
G01X2106805Y-1691140D01*
G01X2118599Y-1681029D01*
G01X2127699Y-1668438D01*
G01X2133600Y-1654067D01*
G01X2139501Y-1668438D01*
G01X2148601Y-1681029D01*
G01X2160395Y-1691140D01*
G01X2174229Y-1698210D01*
G01X2189332Y-1701846D01*
G01X2204868Y-1701846D01*
G01X2219971Y-1698210D01*
G01X2233805Y-1691140D01*
G01X2245599Y-1681029D01*
G01X2254699Y-1668438D01*
G01X2260600Y-1654067D01*
G01X2266501Y-1668438D01*
G01X2275601Y-1681029D01*
G01X2287395Y-1691140D01*
G01X2301229Y-1698210D01*
G01X2316332Y-1701846D01*
G01X2331868Y-1701846D01*
G01X2346971Y-1698210D01*
G01X2360805Y-1691140D01*
G01X2372599Y-1681029D01*
G01X2381699Y-1668438D01*
G01X2387600Y-1654067D01*
G01X2392059Y-1665696D01*
G01X2398625Y-1676279D01*
G01X2407065Y-1685438D01*
G01X2417077Y-1692846D01*
G01X2416520Y-1692846D01*
G01X2412535Y-1693639D01*
G01X2409156Y-1695896D01*
G01X2110514Y-1994538D01*
G01X2096682Y-1986292D01*
G01X2081264Y-1981647D01*
G01X2065179Y-1980878D01*
G01X2049388Y-1984033D01*
G01X2034833Y-1990923D01*
G01X2022383Y-2001136D01*
G01X2012781Y-2014063D01*
G01X2006600Y-2028933D01*
G01X2000705Y-2014571D01*
G01X1991614Y-2001987D01*
G01X1991614Y-1993900D01*
G01X1989961Y-1981344D01*
G01X1985114Y-1969643D01*
G01X1977405Y-1959595D01*
G01X1926605Y-1908795D01*
G01X1916557Y-1901086D01*
G01X1904856Y-1896239D01*
G01X1892300Y-1894586D01*
G01X1346200Y-1894586D01*
G01X1333644Y-1896239D01*
G01X1321943Y-1901086D01*
G01X1311895Y-1908795D01*
G01X773065Y-2447625D01*
G01X771323Y-2449184D01*
G01X770688Y-2449629D01*
G01X770308Y-2449830D01*
G01X769970Y-2449959D01*
G01X769433Y-2450093D01*
G01X768493Y-2450221D01*
G01X767019Y-2450276D01*
G01X765467Y-2450205D01*
G01X758899Y-2449249D01*
G01X751105Y-2447396D01*
G01X731178Y-2441592D01*
G01X710614Y-2437521D01*
G01X689653Y-2437225D01*
G01X668982Y-2440711D01*
G01X649278Y-2447867D01*
G01X631187Y-2458457D01*
G01X615301Y-2472135D01*
G01X602141Y-2488452D01*
G01X592138Y-2506874D01*
G01X585620Y-2526798D01*
G01X582800Y-2547570D01*
G01X583770Y-2568511D01*
G01X588500Y-2588933D01*
G01X596833Y-2608169D01*
G01X608498Y-2625587D01*
G01X623120Y-2640616D01*
G01X640211Y-2652765D01*
G01X659212Y-2661636D01*
G01X679499Y-2666937D01*
G01X700411Y-2668496D01*
G01X721260Y-2666262D01*
G01X741366Y-2660307D01*
G01X760070Y-2650826D01*
G01X776759Y-2638131D01*
G01X790887Y-2622636D01*
G01X801992Y-2604848D01*
G01X809710Y-2585351D01*
G01X813788Y-2564783D01*
G01X814094Y-2543816D01*
G01X1366295Y-1991614D01*
G01X1652765Y-1991614D01*
G01X1640433Y-2002154D01*
G01X1631050Y-2015386D01*
G01X1625182Y-2030510D01*
G01X1623186Y-2046609D01*
G01X1623186Y-2183507D01*
G01X1624747Y-2197770D01*
G01X1629359Y-2211358D01*
G01X1636801Y-2223625D01*
G01X1646721Y-2233992D01*
G01X1658649Y-2241966D01*
G01X1672021Y-2247170D01*
G01X1618205Y-2300986D01*
G01X1524864Y-2300986D01*
G01X1512307Y-2302639D01*
G01X1500607Y-2307486D01*
G01X1490559Y-2315195D01*
G01X1447749Y-2358005D01*
G01X1439508Y-2361819D01*
G01X1430522Y-2363126D01*
G01X1391900Y-2363126D01*
G01X1380833Y-2364879D01*
G01X1370849Y-2369966D01*
G01X1362926Y-2377889D01*
G01X1357839Y-2387873D01*
G01X1356086Y-2398940D01*
G01X1356086Y-2437563D01*
G01X1354778Y-2446548D01*
G01X1350965Y-2454789D01*
G01X1047568Y-2758186D01*
G01X808194Y-2758186D01*
G01X805045Y-2758049D01*
G01X796691Y-2744881D01*
G01X795122Y-2742608D01*
G01X793298Y-2740171D01*
G01X789052Y-2734497D01*
G01X788726Y-2734062D01*
G01X786586Y-2731467D01*
G01X785844Y-2730648D01*
G01X782721Y-2727204D01*
G01X780933Y-2725352D01*
G01X764871Y-2711791D01*
G01X746623Y-2701357D01*
G01X726789Y-2694394D01*
G01X706023Y-2691131D01*
G01X685009Y-2691675D01*
G01X664440Y-2696008D01*
G01X644992Y-2703988D01*
G01X627308Y-2715352D01*
G01X611969Y-2729725D01*
G01X599480Y-2746634D01*
G01X590254Y-2765521D01*
G01X584594Y-2785766D01*
G01X582686Y-2806700D01*
G01X584594Y-2827634D01*
G01X590254Y-2847879D01*
G01X599480Y-2866766D01*
G01X611969Y-2883675D01*
G01X627308Y-2898048D01*
G01X644992Y-2909412D01*
G01X664440Y-2917392D01*
G01X685009Y-2921725D01*
G01X706023Y-2922269D01*
G01X726789Y-2919006D01*
G01X746623Y-2912043D01*
G01X764871Y-2901609D01*
G01X780933Y-2888048D01*
G01X782721Y-2886196D01*
G01X785844Y-2882752D01*
G01X786586Y-2881933D01*
G01X788726Y-2879338D01*
G01X789052Y-2878903D01*
G01X793298Y-2873229D01*
G01X795122Y-2870792D01*
G01X796691Y-2868519D01*
G01X805045Y-2855351D01*
G01X808194Y-2855214D01*
G01X1067664Y-2855214D01*
G01X1080220Y-2853561D01*
G01X1091921Y-2848714D01*
G01X1101968Y-2841005D01*
G01X1356086Y-2586887D01*
G01X1356086Y-2630260D01*
G01X1357506Y-2640246D01*
G01X1361654Y-2649440D01*
G01X1368201Y-2657112D01*
G01X1376628Y-2662655D01*
G01X1386266Y-2665628D01*
G01X1386586Y-2668360D01*
G01X1386586Y-2824006D01*
G01X1386449Y-2827155D01*
G01X1373281Y-2835509D01*
G01X1371008Y-2837078D01*
G01X1368571Y-2838902D01*
G01X1362897Y-2843148D01*
G01X1362462Y-2843474D01*
G01X1359867Y-2845614D01*
G01X1359048Y-2846356D01*
G01X1355604Y-2849479D01*
G01X1353752Y-2851267D01*
G01X1340191Y-2867329D01*
G01X1329757Y-2885577D01*
G01X1322794Y-2905411D01*
G01X1319531Y-2926177D01*
G01X1320075Y-2947191D01*
G01X1324408Y-2967760D01*
G01X1332388Y-2987208D01*
G01X1343752Y-3004892D01*
G01X1358125Y-3020231D01*
G01X1375034Y-3032720D01*
G01X1393921Y-3041946D01*
G01X1414166Y-3047606D01*
G01X1435100Y-3049514D01*
G01X1456034Y-3047606D01*
G01X1476279Y-3041946D01*
G01X1495166Y-3032720D01*
G01X1512075Y-3020231D01*
G01X1526448Y-3004892D01*
G01X1537812Y-2987208D01*
G01X1545792Y-2967760D01*
G01X1550125Y-2947191D01*
G01X1550669Y-2926177D01*
G01X1547406Y-2905411D01*
G01X1540443Y-2885577D01*
G01X1530009Y-2867329D01*
G01X1516448Y-2851267D01*
G01X1514596Y-2849479D01*
G01X1511152Y-2846356D01*
G01X1510333Y-2845614D01*
G01X1507738Y-2843474D01*
G01X1507303Y-2843148D01*
G01X1501629Y-2838902D01*
G01X1499192Y-2837078D01*
G01X1496919Y-2835509D01*
G01X1483751Y-2827155D01*
G01X1483614Y-2824006D01*
G01X1483614Y-2668360D01*
G01X1483934Y-2665628D01*
G01X1493572Y-2662655D01*
G01X1501999Y-2657112D01*
G01X1508546Y-2649440D01*
G01X1512694Y-2640246D01*
G01X1514114Y-2630260D01*
G01X1514114Y-2549613D01*
G01X1512800Y-2539999D01*
G01X1508953Y-2531091D01*
G01X1502856Y-2523542D01*
G01X1494956Y-2517907D01*
G01X1485834Y-2514600D01*
G01X1494956Y-2511293D01*
G01X1502856Y-2505658D01*
G01X1508953Y-2498109D01*
G01X1512800Y-2489201D01*
G01X1514114Y-2479587D01*
G01X1514114Y-2440965D01*
G01X1515422Y-2431979D01*
G01X1519235Y-2423738D01*
G01X1544959Y-2398014D01*
G01X1638300Y-2398014D01*
G01X1650856Y-2396361D01*
G01X1662557Y-2391514D01*
G01X1672605Y-2383805D01*
G01X1807565Y-2248970D01*
G01X1810896Y-2249250D01*
G01X1811907Y-2249288D01*
G01X1815371Y-2249417D01*
G01X1816407Y-2249456D01*
G01X1823372Y-2249036D01*
G01X1823753Y-2248976D01*
G01X1829143Y-2248118D01*
G01X1829445Y-2248070D01*
G01X1835509Y-2246553D01*
G01X1838816Y-2245411D01*
G01X1842521Y-2243894D01*
G01X1855154Y-2236606D01*
G01X1865875Y-2226718D01*
G01X1874159Y-2214715D01*
G01X1879600Y-2201183D01*
G01X1884033Y-2212762D01*
G01X1890557Y-2223305D01*
G01X1898939Y-2232441D01*
G01X1908883Y-2239845D01*
G01X1799752Y-2348975D01*
G01X1787765Y-2357438D01*
G01X1774484Y-2363676D01*
G01X1760317Y-2367497D01*
G01X1745700Y-2368784D01*
G01X1734633Y-2370537D01*
G01X1724649Y-2375624D01*
G01X1716726Y-2383547D01*
G01X1711639Y-2393531D01*
G01X1709886Y-2404598D01*
G01X1709886Y-2484598D01*
G01X1711831Y-2496238D01*
G01X1717453Y-2506614D01*
G01X1726143Y-2514600D01*
G01X1717453Y-2522586D01*
G01X1711831Y-2532962D01*
G01X1709886Y-2544602D01*
G01X1709886Y-2624602D01*
G01X1711639Y-2635669D01*
G01X1716726Y-2645653D01*
G01X1724649Y-2653576D01*
G01X1734633Y-2658663D01*
G01X1745700Y-2660416D01*
G01X1835700Y-2660416D01*
G01X1846767Y-2658663D01*
G01X1856751Y-2653576D01*
G01X1864674Y-2645653D01*
G01X1869761Y-2635669D01*
G01X1871514Y-2624602D01*
G01X1871514Y-2544602D01*
G01X1869986Y-2534253D01*
G01X1907287Y-2571554D01*
G01X1907287Y-3162345D01*
G01X1689145Y-3380487D01*
G01X1155656Y-3380487D01*
G01X952184Y-3177014D01*
G01X1319780Y-3177014D01*
G01X1319780Y-3198386D01*
G01X1323707Y-3219394D01*
G01X1331428Y-3239323D01*
G01X1342679Y-3257493D01*
G01X1357077Y-3273287D01*
G01X1374132Y-3286167D01*
G01X1393263Y-3295693D01*
G01X1413819Y-3301542D01*
G01X1435100Y-3303514D01*
G01X1456381Y-3301542D01*
G01X1476937Y-3295693D01*
G01X1496068Y-3286167D01*
G01X1513123Y-3273287D01*
G01X1527521Y-3257493D01*
G01X1538772Y-3239323D01*
G01X1546493Y-3219394D01*
G01X1550420Y-3198386D01*
G01X1550420Y-3177014D01*
G01X1546493Y-3156006D01*
G01X1538772Y-3136077D01*
G01X1527521Y-3117907D01*
G01X1513123Y-3102113D01*
G01X1496068Y-3089233D01*
G01X1476937Y-3079707D01*
G01X1456381Y-3073858D01*
G01X1435100Y-3071886D01*
G01X1435100Y-3071886D01*
G01X1413819Y-3073858D01*
G01X1393263Y-3079707D01*
G01X1374132Y-3089233D01*
G01X1357077Y-3102113D01*
G01X1342679Y-3117907D01*
G01X1331428Y-3136077D01*
G01X1323707Y-3156006D01*
G01X1319780Y-3177014D01*
G01X952184Y-3177014D01*
G01X822217Y-3047047D01*
G01X820457Y-3044967D01*
G01X818440Y-3041917D01*
G01X815730Y-3037080D01*
G01X812713Y-3031084D01*
G01X806187Y-3017242D01*
G01X805688Y-3016225D01*
G01X803987Y-3012894D01*
G01X793737Y-2994800D01*
G01X780417Y-2978831D01*
G01X764456Y-2965502D01*
G01X746368Y-2955242D01*
G01X726737Y-2948381D01*
G01X706196Y-2945142D01*
G01X685407Y-2945629D01*
G01X665040Y-2949825D01*
G01X645751Y-2957596D01*
G01X628163Y-2968691D01*
G01X612843Y-2982753D01*
G01X600285Y-2999327D01*
G01X590893Y-3017881D01*
G01X584970Y-3037814D01*
G01X582707Y-3058486D01*
G01X584178Y-3079229D01*
G01X589334Y-3099374D01*
G01X598010Y-3118273D01*
G01X609926Y-3135316D01*
G01X624697Y-3149953D01*
G01X641848Y-3161712D01*
G01X660825Y-3170215D01*
G01X681017Y-3175187D01*
G01X701773Y-3176468D01*
G01X722423Y-3174016D01*
G01X742302Y-3167911D01*
G01X746334Y-3166605D01*
G01X750186Y-3165985D01*
G01X755069Y-3165842D01*
G01X760295Y-3166318D01*
G01X765208Y-3167369D01*
G01X769182Y-3168777D01*
G01X772464Y-3170534D01*
G01X773405Y-3171375D01*
G01X791004Y-3188974D01*
G01X788500Y-3188886D01*
G01X608500Y-3188886D01*
G01X597433Y-3190639D01*
G01X587449Y-3195726D01*
G01X579526Y-3203649D01*
G01X574439Y-3213633D01*
G01X572686Y-3224700D01*
G01X572686Y-3234832D01*
G01X396494Y-3058640D01*
G01X396494Y-2288014D01*
G01X583180Y-2288014D01*
G01X583180Y-2309386D01*
G01X587107Y-2330394D01*
G01X594828Y-2350323D01*
G01X606079Y-2368493D01*
G01X620477Y-2384287D01*
G01X637532Y-2397167D01*
G01X656663Y-2406693D01*
G01X677219Y-2412542D01*
G01X698500Y-2414514D01*
G01X698500Y-2414514D01*
G01X719781Y-2412542D01*
G01X740337Y-2406693D01*
G01X759468Y-2397167D01*
G01X776523Y-2384287D01*
G01X790921Y-2368493D01*
G01X802172Y-2350323D01*
G01X809893Y-2330394D01*
G01X813820Y-2309386D01*
G01X813820Y-2288014D01*
G01X809893Y-2267006D01*
G01X802172Y-2247077D01*
G01X790921Y-2228907D01*
G01X776523Y-2213113D01*
G01X759468Y-2200233D01*
G01X740337Y-2190707D01*
G01X719781Y-2184858D01*
G01X698500Y-2182886D01*
G01X677219Y-2184858D01*
G01X656663Y-2190707D01*
G01X637532Y-2200233D01*
G01X620477Y-2213113D01*
G01X606079Y-2228907D01*
G01X594828Y-2247077D01*
G01X587107Y-2267006D01*
G01X583180Y-2288014D01*
G01X396494Y-2288014D01*
G01X396494Y-2034014D01*
G01X583180Y-2034014D01*
G01X583180Y-2055386D01*
G01X587107Y-2076394D01*
G01X594828Y-2096323D01*
G01X606079Y-2114493D01*
G01X620477Y-2130287D01*
G01X637532Y-2143167D01*
G01X656663Y-2152693D01*
G01X677219Y-2158542D01*
G01X698500Y-2160514D01*
G01X698500Y-2160514D01*
G01X719781Y-2158542D01*
G01X740337Y-2152693D01*
G01X759468Y-2143167D01*
G01X776523Y-2130287D01*
G01X790921Y-2114493D01*
G01X802172Y-2096323D01*
G01X809893Y-2076394D01*
G01X813820Y-2055386D01*
G01X813820Y-2034014D01*
G01X809893Y-2013006D01*
G01X802172Y-1993077D01*
G01X790921Y-1974907D01*
G01X776523Y-1959113D01*
G01X759468Y-1946233D01*
G01X740337Y-1936707D01*
G01X719781Y-1930858D01*
G01X698500Y-1928886D01*
G01X677219Y-1930858D01*
G01X656663Y-1936707D01*
G01X637532Y-1946233D01*
G01X620477Y-1959113D01*
G01X606079Y-1974907D01*
G01X594828Y-1993077D01*
G01X587107Y-2013006D01*
G01X583180Y-2034014D01*
G01X396494Y-2034014D01*
G01X396494Y-1957860D01*
G01X707062Y-1647292D01*
G37*
G36*
G01X3939840Y-262700D02*
G01X3939840Y-3762700D01*
G01X3937908Y-3789717D01*
G01X3932150Y-3816184D01*
G01X3922685Y-3841562D01*
G01X3909704Y-3865335D01*
G01X3893471Y-3887019D01*
G01X3874319Y-3906171D01*
G01X3852635Y-3922404D01*
G01X3828862Y-3935385D01*
G01X3803484Y-3944850D01*
G01X3777017Y-3950608D01*
G01X3750000Y-3952540D01*
G01X250000Y-3952540D01*
G01X222983Y-3950608D01*
G01X196516Y-3944850D01*
G01X171138Y-3935385D01*
G01X147365Y-3922404D01*
G01X125681Y-3906171D01*
G01X106528Y-3887019D01*
G01X90296Y-3865335D01*
G01X77315Y-3841562D01*
G01X67850Y-3816184D01*
G01X62092Y-3789717D01*
G01X60160Y-3762700D01*
G01X60160Y-1930400D01*
G01X263906Y-1930400D01*
G01X263906Y-3086100D01*
G01X263906Y-3086100D01*
G01X265180Y-3099033D01*
G01X268952Y-3111470D01*
G01X275079Y-3122931D01*
G01X283323Y-3132977D01*
G01X511923Y-3361577D01*
G01X521969Y-3369821D01*
G01X533430Y-3375948D01*
G01X545867Y-3379720D01*
G01X558800Y-3380994D01*
G01X565183Y-3382526D01*
G01X570174Y-3386789D01*
G01X572686Y-3392853D01*
G01X572686Y-3404700D01*
G01X574439Y-3415767D01*
G01X579526Y-3425751D01*
G01X587449Y-3433674D01*
G01X597433Y-3438761D01*
G01X608500Y-3440514D01*
G01X788500Y-3440514D01*
G01X799567Y-3438761D01*
G01X809551Y-3433674D01*
G01X817474Y-3425751D01*
G01X822561Y-3415767D01*
G01X824314Y-3404700D01*
G01X824314Y-3224700D01*
G01X824226Y-3222196D01*
G01X1087016Y-3484986D01*
G01X1096292Y-3492598D01*
G01X1106875Y-3498255D01*
G01X1118359Y-3501739D01*
G01X1130301Y-3502915D01*
G01X1714501Y-3502915D01*
G01X1726443Y-3501739D01*
G01X1737926Y-3498255D01*
G01X1748509Y-3492598D01*
G01X1757786Y-3484986D01*
G01X2011786Y-3230986D01*
G01X2019398Y-3221709D01*
G01X2025055Y-3211126D01*
G01X2028539Y-3199643D01*
G01X2029715Y-3187701D01*
G01X2029715Y-2546198D01*
G01X2028539Y-2534256D01*
G01X2025055Y-2522773D01*
G01X2019398Y-2512190D01*
G01X2011786Y-2502914D01*
G01X1915370Y-2406498D01*
G01X2064600Y-2257267D01*
G01X2065619Y-2256369D01*
G01X2066726Y-2255568D01*
G01X2073490Y-2251508D01*
G01X2078355Y-2248902D01*
G01X2093241Y-2245226D01*
G01X2106874Y-2238210D01*
G01X2118517Y-2228234D01*
G01X2127541Y-2215837D01*
G01X2133456Y-2201692D01*
G01X2133744Y-2201692D01*
G01X2139712Y-2215931D01*
G01X2148829Y-2228392D01*
G01X2160595Y-2238390D01*
G01X2174364Y-2245376D01*
G01X2189380Y-2248968D01*
G01X2204820Y-2248968D01*
G01X2219836Y-2245376D01*
G01X2233605Y-2238390D01*
G01X2245371Y-2228392D01*
G01X2254488Y-2215931D01*
G01X2260456Y-2201692D01*
G01X2260744Y-2201692D01*
G01X2266698Y-2215906D01*
G01X2275790Y-2228349D01*
G01X2287522Y-2238341D01*
G01X2301255Y-2245336D01*
G01X2316236Y-2248951D01*
G01X2331646Y-2248988D01*
G01X2346645Y-2245446D01*
G01X2360411Y-2238518D01*
G01X2372192Y-2228584D01*
G01X2381344Y-2216185D01*
G01X2387367Y-2202000D01*
G01X2387812Y-2201927D01*
G01X2393684Y-2215882D01*
G01X2402586Y-2228129D01*
G01X2402586Y-2291886D01*
G01X2371386Y-2291886D01*
G01X2341353Y-2285045D01*
G01X2310699Y-2282021D01*
G01X2279908Y-2282861D01*
G01X2249465Y-2287551D01*
G01X2219849Y-2296018D01*
G01X2191527Y-2308129D01*
G01X2164946Y-2323692D01*
G01X2140523Y-2342463D01*
G01X2118645Y-2364145D01*
G01X2099655Y-2388398D01*
G01X2083853Y-2414838D01*
G01X2071487Y-2443050D01*
G01X2062754Y-2472588D01*
G01X2057789Y-2502988D01*
G01X2056672Y-2533770D01*
G01X2059420Y-2564450D01*
G01X2065990Y-2594543D01*
G01X2076278Y-2623577D01*
G01X2090122Y-2651093D01*
G01X2107304Y-2676658D01*
G01X2127554Y-2699869D01*
G01X2150552Y-2720360D01*
G01X2175935Y-2737809D01*
G01X2203305Y-2751941D01*
G01X2232229Y-2762532D01*
G01X2262252Y-2769417D01*
G01X2292901Y-2772486D01*
G01X2323694Y-2771692D01*
G01X2323694Y-2812500D01*
G01X2323385Y-2815183D01*
G01X2313760Y-2818052D01*
G01X2305310Y-2823481D01*
G01X2298700Y-2831043D01*
G01X2290714Y-2822353D01*
G01X2280338Y-2816731D01*
G01X2268698Y-2814786D01*
G01X2188698Y-2814786D01*
G01X2177631Y-2816539D01*
G01X2167647Y-2821626D01*
G01X2159724Y-2829549D01*
G01X2154637Y-2839533D01*
G01X2152884Y-2850600D01*
G01X2152884Y-2940600D01*
G01X2154637Y-2951667D01*
G01X2159724Y-2961651D01*
G01X2167647Y-2969574D01*
G01X2177631Y-2974661D01*
G01X2188698Y-2976414D01*
G01X2268698Y-2976414D01*
G01X2280338Y-2974469D01*
G01X2290714Y-2968847D01*
G01X2298700Y-2960157D01*
G01X2306686Y-2968847D01*
G01X2317062Y-2974469D01*
G01X2328702Y-2976414D01*
G01X2408702Y-2976414D01*
G01X2419769Y-2974661D01*
G01X2429753Y-2969574D01*
G01X2437676Y-2961651D01*
G01X2442763Y-2951667D01*
G01X2444516Y-2940600D01*
G01X2444516Y-2850600D01*
G01X2442919Y-2840024D01*
G01X2438270Y-2830392D01*
G01X2430984Y-2822562D01*
G01X2421711Y-2817232D01*
G01X2420722Y-2812500D01*
G01X2420722Y-2762714D01*
G01X2811678Y-2762714D01*
G01X2811678Y-2799800D01*
G01X2810689Y-2804532D01*
G01X2801416Y-2809862D01*
G01X2794130Y-2817692D01*
G01X2789481Y-2827324D01*
G01X2787884Y-2837900D01*
G01X2787884Y-2927900D01*
G01X2789637Y-2938967D01*
G01X2794724Y-2948951D01*
G01X2802647Y-2956874D01*
G01X2812631Y-2961961D01*
G01X2823698Y-2963714D01*
G01X2903698Y-2963714D01*
G01X2915338Y-2961769D01*
G01X2925714Y-2956147D01*
G01X2933700Y-2947457D01*
G01X2941686Y-2956147D01*
G01X2952062Y-2961769D01*
G01X2963702Y-2963714D01*
G01X3043702Y-2963714D01*
G01X3054769Y-2961961D01*
G01X3064753Y-2956874D01*
G01X3072676Y-2948951D01*
G01X3077763Y-2938967D01*
G01X3079516Y-2927900D01*
G01X3079516Y-2837900D01*
G01X3077763Y-2826833D01*
G01X3072676Y-2816849D01*
G01X3064753Y-2808926D01*
G01X3054769Y-2803839D01*
G01X3043702Y-2802086D01*
G01X2963702Y-2802086D01*
G01X2952062Y-2804031D01*
G01X2941686Y-2809653D01*
G01X2933700Y-2818343D01*
G01X2927090Y-2810781D01*
G01X2918640Y-2805352D01*
G01X2909015Y-2802483D01*
G01X2908706Y-2799800D01*
G01X2908706Y-2762714D01*
G01X2926663Y-2762714D01*
G01X2955354Y-2761420D01*
G01X2983674Y-2756642D01*
G01X3011201Y-2748452D01*
G01X3037527Y-2736971D01*
G01X3062258Y-2722371D01*
G01X3085028Y-2704867D01*
G01X3105498Y-2684722D01*
G01X3123362Y-2662234D01*
G01X3138356Y-2637739D01*
G01X3150255Y-2611600D01*
G01X3158884Y-2584206D01*
G01X3164112Y-2555967D01*
G01X3165864Y-2527300D01*
G01X3164112Y-2498633D01*
G01X3158884Y-2470394D01*
G01X3150255Y-2443000D01*
G01X3138356Y-2416861D01*
G01X3123362Y-2392366D01*
G01X3105498Y-2369878D01*
G01X3085028Y-2349733D01*
G01X3062258Y-2332229D01*
G01X3037527Y-2317629D01*
G01X3011201Y-2306148D01*
G01X2983674Y-2297958D01*
G01X2955354Y-2293180D01*
G01X2926663Y-2291886D01*
G01X2693387Y-2291886D01*
G01X2628035Y-2226533D01*
G01X2636743Y-2213602D01*
G01X2642171Y-2198988D01*
G01X2644014Y-2183507D01*
G01X2644014Y-2046609D01*
G01X2642138Y-2030994D01*
G01X2636616Y-2016267D01*
G01X2627762Y-2003269D01*
G01X2616081Y-1992737D01*
G01X2602238Y-1985273D01*
G01X2587020Y-1981301D01*
G01X2571295Y-1981047D01*
G01X2555957Y-1984525D01*
G01X2541879Y-1991538D01*
G01X2529864Y-2001687D01*
G01X2520595Y-2014393D01*
G01X2514600Y-2028933D01*
G01X2508957Y-2015030D01*
G01X2500316Y-2002763D01*
G01X2489125Y-1992769D01*
G01X2475964Y-1985564D01*
G01X2461514Y-1981522D01*
G01X2461514Y-1920674D01*
G01X2921000Y-1920674D01*
G01X2926207Y-1919279D01*
G01X2930019Y-1915467D01*
G01X2931414Y-1910260D01*
G01X2931414Y-1671300D01*
G01X3302926Y-1671300D01*
G01X3302926Y-1757700D01*
G01X3304679Y-1768767D01*
G01X3309766Y-1778751D01*
G01X3317689Y-1786674D01*
G01X3327673Y-1791761D01*
G01X3338740Y-1793514D01*
G01X3419387Y-1793514D01*
G01X3429001Y-1792200D01*
G01X3437909Y-1788353D01*
G01X3445458Y-1782256D01*
G01X3451093Y-1774356D01*
G01X3454400Y-1765234D01*
G01X3457707Y-1774356D01*
G01X3463342Y-1782256D01*
G01X3470891Y-1788353D01*
G01X3479799Y-1792200D01*
G01X3489413Y-1793514D01*
G01X3570060Y-1793514D01*
G01X3581127Y-1791761D01*
G01X3591111Y-1786674D01*
G01X3599034Y-1778751D01*
G01X3604121Y-1768767D01*
G01X3605874Y-1757700D01*
G01X3605874Y-1671300D01*
G01X3604002Y-1659873D01*
G01X3598582Y-1649640D01*
G01X3590181Y-1641672D01*
G01X3579676Y-1636801D01*
G01X3579114Y-1633200D01*
G01X3579114Y-1633200D01*
G01X3579114Y-1544067D01*
G01X3581032Y-1541660D01*
G01X3589452Y-1529161D01*
G01X3594833Y-1515084D01*
G01X3596896Y-1500155D01*
G01X3595535Y-1485146D01*
G01X3590820Y-1470832D01*
G01X3582996Y-1457952D01*
G01X3572465Y-1447172D01*
G01X3559772Y-1439047D01*
G01X3545573Y-1433998D01*
G01X3530600Y-1432286D01*
G01X3515627Y-1433998D01*
G01X3501428Y-1439047D01*
G01X3488735Y-1447172D01*
G01X3478204Y-1457952D01*
G01X3470380Y-1470832D01*
G01X3465665Y-1485146D01*
G01X3464304Y-1500155D01*
G01X3466367Y-1515084D01*
G01X3471748Y-1529161D01*
G01X3480168Y-1541660D01*
G01X3482086Y-1544067D01*
G01X3482086Y-1633200D01*
G01X3481662Y-1636334D01*
G01X3472139Y-1639927D01*
G01X3464010Y-1646054D01*
G01X3457934Y-1654220D01*
G01X3454400Y-1663766D01*
G01X3451093Y-1654644D01*
G01X3445458Y-1646744D01*
G01X3437909Y-1640647D01*
G01X3429001Y-1636800D01*
G01X3419387Y-1635486D01*
G01X3338740Y-1635486D01*
G01X3327673Y-1637239D01*
G01X3317689Y-1642326D01*
G01X3309766Y-1650249D01*
G01X3304679Y-1660233D01*
G01X3302926Y-1671300D01*
G01X2931414Y-1671300D01*
G01X2931414Y-1519314D01*
G01X3057140Y-1519314D01*
G01X3062413Y-1517880D01*
G01X3066234Y-1513974D01*
G01X3131211Y-1513974D01*
G01X3138477Y-1516392D01*
G01X3146090Y-1517211D01*
G01X3266089Y-1517211D01*
G01X3273703Y-1516392D01*
G01X3280968Y-1513974D01*
G01X3356600Y-1513974D01*
G01X3361807Y-1512579D01*
G01X3365619Y-1508767D01*
G01X3367014Y-1503560D01*
G01X3367014Y-1425074D01*
G01X3377020Y-1425074D01*
G01X3382227Y-1423679D01*
G01X3386039Y-1419867D01*
G01X3387434Y-1414660D01*
G01X3387434Y-1303060D01*
G01X3386039Y-1297853D01*
G01X3382227Y-1294041D01*
G01X3377020Y-1292646D01*
G01X3367014Y-1292646D01*
G01X3367014Y-1213739D01*
G01X3380061Y-1222586D01*
G01X3394828Y-1228103D01*
G01X3410480Y-1229977D01*
G01X3601110Y-1229977D01*
G01X3614044Y-1228703D01*
G01X3626480Y-1224930D01*
G01X3637941Y-1218804D01*
G01X3647987Y-1210560D01*
G01X3716955Y-1141592D01*
G01X3725200Y-1131546D01*
G01X3731326Y-1120084D01*
G01X3735099Y-1107648D01*
G01X3736373Y-1094715D01*
G01X3736373Y-921309D01*
G01X3735099Y-908375D01*
G01X3731326Y-895939D01*
G01X3725200Y-884478D01*
G01X3716955Y-874432D01*
G01X3680494Y-837970D01*
G01X3680494Y-271350D01*
G01X3679099Y-266143D01*
G01X3675287Y-262331D01*
G01X3670080Y-260936D01*
G01X2603720Y-260936D01*
G01X2598513Y-262331D01*
G01X2594701Y-266143D01*
G01X2593306Y-271350D01*
G01X2593306Y-665672D01*
G01X2591959Y-664326D01*
G01X2581914Y-656081D01*
G01X2570452Y-649955D01*
G01X2558016Y-646182D01*
G01X2545083Y-644909D01*
G01X2241169Y-644909D01*
G01X2237319Y-644594D01*
G01X2234829Y-643987D01*
G01X2231804Y-642781D01*
G01X2228095Y-640774D01*
G01X2223722Y-637866D01*
G01X2218922Y-634192D01*
G01X2207182Y-624150D01*
G01X2190736Y-612107D01*
G01X2172434Y-603133D01*
G01X2152842Y-597506D01*
G01X2132567Y-595402D01*
G01X2112238Y-596885D01*
G01X2092483Y-601910D01*
G01X2073915Y-610319D01*
G01X2057109Y-621855D01*
G01X2042585Y-636157D01*
G01X2030795Y-652785D01*
G01X2022102Y-671222D01*
G01X2016776Y-690898D01*
G01X2014982Y-711203D01*
G01X2016776Y-731507D01*
G01X2022102Y-751183D01*
G01X2030795Y-769620D01*
G01X2042585Y-786248D01*
G01X2057109Y-800551D01*
G01X2073915Y-812086D01*
G01X2092483Y-820496D01*
G01X2112238Y-825520D01*
G01X2132567Y-827003D01*
G01X2152842Y-824899D01*
G01X2172434Y-819272D01*
G01X2190736Y-810298D01*
G01X2207182Y-798255D01*
G01X2218922Y-788213D01*
G01X2223722Y-784539D01*
G01X2228095Y-781631D01*
G01X2231804Y-779624D01*
G01X2234829Y-778418D01*
G01X2237319Y-777811D01*
G01X2241169Y-777497D01*
G01X2517623Y-777497D01*
G01X2537427Y-797301D01*
G01X2537427Y-1094715D01*
G01X2538701Y-1107648D01*
G01X2542474Y-1120084D01*
G01X2548600Y-1131546D01*
G01X2556845Y-1141592D01*
G01X2618959Y-1203706D01*
G01X1816100Y-1203706D01*
G01X1803167Y-1204980D01*
G01X1790730Y-1208752D01*
G01X1779269Y-1214879D01*
G01X1769223Y-1223123D01*
G01X1654923Y-1337423D01*
G01X1646679Y-1347469D01*
G01X1640552Y-1358930D01*
G01X1636780Y-1371367D01*
G01X1635506Y-1384300D01*
G01X1635506Y-1407494D01*
G01X1635109Y-1420197D01*
G01X1565066Y-1350154D01*
G01X1554867Y-1333386D01*
G01X1547399Y-1315236D01*
G01X1542844Y-1296145D01*
G01X1541314Y-1276579D01*
G01X1541314Y-1261902D01*
G01X1539369Y-1250262D01*
G01X1533747Y-1239886D01*
G01X1525057Y-1231900D01*
G01X1533747Y-1223914D01*
G01X1539369Y-1213538D01*
G01X1541314Y-1201898D01*
G01X1541314Y-1121898D01*
G01X1539561Y-1110831D01*
G01X1534474Y-1100847D01*
G01X1526551Y-1092924D01*
G01X1516567Y-1087837D01*
G01X1505500Y-1086084D01*
G01X1415500Y-1086084D01*
G01X1404433Y-1087837D01*
G01X1394449Y-1092924D01*
G01X1386526Y-1100847D01*
G01X1381439Y-1110831D01*
G01X1379686Y-1121898D01*
G01X1379686Y-1201898D01*
G01X1381253Y-1212377D01*
G01X1385818Y-1221939D01*
G01X1392982Y-1229746D01*
G01X1358645Y-1234140D01*
G01X1324060Y-1235608D01*
G01X1197700Y-1235608D01*
G01X1171361Y-1233786D01*
G01X1145524Y-1228355D01*
G01X1120681Y-1219417D01*
G01X1113628Y-1217152D01*
G01X1106260Y-1216386D01*
G01X1025613Y-1216386D01*
G01X1015999Y-1217700D01*
G01X1007091Y-1221547D01*
G01X999542Y-1227644D01*
G01X993907Y-1235544D01*
G01X990600Y-1244666D01*
G01X990546Y-1244418D01*
G01X985557Y-1216770D01*
G01X982556Y-1188836D01*
G01X981558Y-1160760D01*
G01X981558Y-788596D01*
G01X984831Y-785323D01*
G01X987776Y-782822D01*
G01X989966Y-781491D01*
G01X992958Y-780205D01*
G01X996999Y-779001D01*
G01X1002148Y-777966D01*
G01X1008140Y-777169D01*
G01X1023552Y-775967D01*
G01X1043696Y-772853D01*
G01X1062982Y-766256D01*
G01X1080812Y-756380D01*
G01X1096635Y-743531D01*
G01X1109961Y-728107D01*
G01X1120376Y-710586D01*
G01X1124166Y-700517D01*
G01X1665464Y-700517D01*
G01X1665464Y-721888D01*
G01X1669391Y-742897D01*
G01X1677112Y-762825D01*
G01X1688362Y-780996D01*
G01X1702761Y-796790D01*
G01X1719816Y-809669D01*
G01X1738947Y-819196D01*
G01X1759503Y-825044D01*
G01X1780784Y-827016D01*
G01X1802065Y-825044D01*
G01X1822621Y-819196D01*
G01X1841752Y-809669D01*
G01X1858807Y-796790D01*
G01X1873205Y-780996D01*
G01X1884456Y-762825D01*
G01X1892177Y-742897D01*
G01X1896104Y-721888D01*
G01X1896104Y-700517D01*
G01X1892177Y-679509D01*
G01X1884456Y-659580D01*
G01X1873205Y-641409D01*
G01X1858807Y-625615D01*
G01X1841752Y-612736D01*
G01X1822621Y-603209D01*
G01X1802065Y-597361D01*
G01X1780784Y-595389D01*
G01X1780784Y-595389D01*
G01X1759503Y-597361D01*
G01X1738947Y-603209D01*
G01X1719816Y-612736D01*
G01X1702761Y-625615D01*
G01X1688362Y-641409D01*
G01X1677112Y-659580D01*
G01X1669391Y-679509D01*
G01X1665464Y-700517D01*
G01X1124166Y-700517D01*
G01X1127557Y-691510D01*
G01X1131284Y-671470D01*
G01X1131439Y-651088D01*
G01X1128018Y-630994D01*
G01X1121128Y-611811D01*
G01X1110981Y-594133D01*
G01X1097893Y-578507D01*
G01X1082267Y-565419D01*
G01X1064589Y-555272D01*
G01X1045406Y-548382D01*
G01X1025312Y-544961D01*
G01X1004930Y-545116D01*
G01X984890Y-548843D01*
G01X965814Y-556024D01*
G01X948293Y-566439D01*
G01X932869Y-579765D01*
G01X920020Y-595588D01*
G01X910144Y-613418D01*
G01X903547Y-632704D01*
G01X900433Y-652848D01*
G01X899231Y-668260D01*
G01X898434Y-674252D01*
G01X897399Y-679401D01*
G01X896195Y-683442D01*
G01X894909Y-686434D01*
G01X893578Y-688624D01*
G01X891077Y-691569D01*
G01X868387Y-714259D01*
G01X860142Y-724305D01*
G01X854016Y-735767D01*
G01X850243Y-748203D01*
G01X848970Y-761136D01*
G01X848970Y-1160760D01*
G01X847964Y-1188890D01*
G01X844951Y-1216877D01*
G01X839946Y-1244577D01*
G01X839126Y-1252200D01*
G01X839126Y-1338600D01*
G01X840879Y-1349667D01*
G01X845966Y-1359651D01*
G01X853889Y-1367574D01*
G01X863873Y-1372661D01*
G01X874940Y-1374414D01*
G01X955587Y-1374414D01*
G01X965201Y-1373100D01*
G01X974109Y-1369253D01*
G01X981658Y-1363156D01*
G01X987293Y-1355256D01*
G01X990600Y-1346134D01*
G01X993907Y-1355256D01*
G01X999542Y-1363156D01*
G01X1007091Y-1369253D01*
G01X1015999Y-1373100D01*
G01X1025613Y-1374414D01*
G01X1106260Y-1374414D01*
G01X1111108Y-1374085D01*
G01X1154304Y-1369670D01*
G01X1197700Y-1368196D01*
G01X1324060Y-1368196D01*
G01X1361739Y-1369940D01*
G01X1399096Y-1375154D01*
G01X1428498Y-1401960D01*
G01X1457061Y-1429657D01*
G01X1529052Y-1501648D01*
G01X1257656Y-1501648D01*
G01X1246830Y-1502538D01*
G01X1236295Y-1505184D01*
G01X1199600Y-1505184D01*
G01X1192223Y-1505952D01*
G01X1164426Y-1510806D01*
G01X1136361Y-1513728D01*
G01X1108160Y-1514704D01*
G01X679602Y-1514704D01*
G01X666669Y-1515977D01*
G01X654233Y-1519750D01*
G01X642771Y-1525876D01*
G01X632725Y-1534121D01*
G01X283323Y-1883523D01*
G01X275079Y-1893569D01*
G01X268952Y-1905030D01*
G01X265180Y-1917467D01*
G01X263906Y-1930400D01*
G01X60160Y-1930400D01*
G01X60160Y-660400D01*
G01X646186Y-660400D01*
G01X648158Y-681681D01*
G01X654007Y-702237D01*
G01X663533Y-721368D01*
G01X676413Y-738423D01*
G01X692207Y-752821D01*
G01X710377Y-764072D01*
G01X730306Y-771793D01*
G01X751314Y-775720D01*
G01X772686Y-775720D01*
G01X793694Y-771793D01*
G01X813623Y-764072D01*
G01X831793Y-752821D01*
G01X847587Y-738423D01*
G01X860467Y-721368D01*
G01X869993Y-702237D01*
G01X875842Y-681681D01*
G01X877814Y-660400D01*
G01X877814Y-660400D01*
G01X875842Y-639119D01*
G01X869993Y-618563D01*
G01X860467Y-599432D01*
G01X847587Y-582377D01*
G01X831793Y-567979D01*
G01X813623Y-556728D01*
G01X793694Y-549007D01*
G01X772686Y-545080D01*
G01X751314Y-545080D01*
G01X730306Y-549007D01*
G01X710377Y-556728D01*
G01X692207Y-567979D01*
G01X676413Y-582377D01*
G01X663533Y-599432D01*
G01X654007Y-618563D01*
G01X648158Y-639119D01*
G01X646186Y-660400D01*
G01X60160Y-660400D01*
G01X60160Y-262700D01*
G01X62092Y-235683D01*
G01X67850Y-209216D01*
G01X77315Y-183838D01*
G01X90296Y-160065D01*
G01X106528Y-138381D01*
G01X125681Y-119228D01*
G01X147365Y-102996D01*
G01X171138Y-90015D01*
G01X196516Y-80550D01*
G01X222983Y-74792D01*
G01X250000Y-72860D01*
G01X3750000Y-72860D01*
G01X3777017Y-74792D01*
G01X3803484Y-80550D01*
G01X3828862Y-90015D01*
G01X3852635Y-102996D01*
G01X3874319Y-119228D01*
G01X3893471Y-138381D01*
G01X3909704Y-160065D01*
G01X3922685Y-183838D01*
G01X3932150Y-209216D01*
G01X3937908Y-235683D01*
G01X3939840Y-262700D01*
G37*
G54D10*
G01X707062Y-1647292D02*
G01X1108160Y-1647292D01*
G02X1177082Y-1653154I-0J-408093D01*
G03X1163786Y-1681002I22519J-27849D01*
G01X1163786Y-1761002D01*
G03X1199600Y-1796816I35814J0D01*
G01X1289600Y-1796816D01*
G03X1325414Y-1761002I0J35814D01*
G01X1325414Y-1681002D01*
G03X1309343Y-1651122I-35814J0D01*
G02X1381040Y-1634236I71697J-143773D01*
G01X1615205Y-1634236D01*
G01X1618876Y-1634604D01*
G01X1622567Y-1635246D01*
G01X1623041Y-1635377D01*
G01X1623201Y-1637797D01*
G03X1752600Y-1654067I65899J1406D01*
G03X1879600Y-1654067I63500J17676D01*
G03X2006600Y-1654067I63500J17676D01*
G03X2133600Y-1654067I63500J17676D01*
G03X2260600Y-1654067I63500J17676D01*
G03X2387600Y-1654067I63500J17676D01*
G03X2417077Y-1692846I63500J17676D01*
G01X2416520Y-1692846D01*
G03X2409156Y-1695896I0J-10414D01*
G01X2110514Y-1994538D01*
G03X2006600Y-2028933I-40414J-52071D01*
G03X1991614Y-2001987I-63500J-17676D01*
G01X1991614Y-1993900D01*
G03X1977405Y-1959595I-48514J0D01*
G01X1926605Y-1908795D01*
G03X1892300Y-1894586I-34305J-34305D01*
G01X1346200Y-1894586D01*
G03X1311895Y-1908795I0J-48514D01*
G01X773065Y-2447625D01*
G01X771323Y-2449184D01*
G01X770688Y-2449629D01*
G01X770308Y-2449830D01*
G01X769970Y-2449959D01*
G01X769433Y-2450093D01*
G01X768493Y-2450221D01*
G01X767019Y-2450276D01*
G01X765467Y-2450205D01*
G01X758899Y-2449249D01*
G01X751105Y-2447396D01*
G01X731178Y-2441592D01*
G03X608498Y-2625587I-32678J-111108D01*
G03X814094Y-2543816I90038J72968D01*
G01X1366295Y-1991614D01*
G01X1652765Y-1991614D01*
G03X1623186Y-2046609I36335J-54995D01*
G01X1623186Y-2183507D01*
G03X1672021Y-2247170I65914J0D01*
G01X1618205Y-2300986D01*
G01X1524864Y-2300986D01*
G03X1490559Y-2315195I0J-48514D01*
G01X1447749Y-2358005D01*
G02X1430522Y-2363126I-17227J26417D01*
G01X1391900Y-2363126D01*
G03X1356086Y-2398940I0J-35814D01*
G01X1356086Y-2437563D01*
G02X1350965Y-2454789I-31538J0D01*
G01X1047568Y-2758186D01*
G01X808194Y-2758186D01*
G01X805045Y-2758049D01*
G01X796691Y-2744881D01*
G03X795122Y-2742608I-30241J-19187D01*
G01X793298Y-2740171D01*
G03X789052Y-2734497I-94798J-66529D01*
G01X788726Y-2734062D01*
G03X786586Y-2731467I-28672J-21461D01*
G01X785844Y-2730648D01*
G03X782721Y-2727204I-87344J-76052D01*
G03X780933Y-2725352I-28545J-25761D01*
G03X582686Y-2806700I-82433J-81348D01*
G03X780933Y-2888048I115814J0D01*
G03X782721Y-2886196I-26757J27614D01*
G03X785844Y-2882752I-84221J79496D01*
G01X786586Y-2881933D01*
G03X788726Y-2879338I-26533J24056D01*
G01X789052Y-2878903D01*
G03X793298Y-2873229I-90552J72203D01*
G01X795122Y-2870792D01*
G03X796691Y-2868519I-28672J21461D01*
G01X805045Y-2855351D01*
G01X808194Y-2855214D01*
G01X1067664Y-2855214D01*
G03X1101968Y-2841005I0J48514D01*
G01X1356086Y-2586887D01*
G01X1356086Y-2630260D01*
G03X1386266Y-2665628I35814J0D01*
G02X1386586Y-2668360I-11491J-2732D01*
G01X1386586Y-2824006D01*
G01X1386449Y-2827155D01*
G01X1373281Y-2835509D01*
G03X1371008Y-2837078I19187J-30241D01*
G01X1368571Y-2838902D01*
G03X1362897Y-2843148I66529J-94798D01*
G01X1362462Y-2843474D01*
G03X1359867Y-2845614I21461J-28672D01*
G01X1359048Y-2846356D01*
G03X1355604Y-2849479I76052J-87344D01*
G03X1353752Y-2851267I25761J-28545D01*
G03X1435100Y-3049514I81348J-82433D01*
G03X1516448Y-2851267I0J115814D01*
G03X1514596Y-2849479I-27614J-26757D01*
G03X1511152Y-2846356I-79496J-84221D01*
G01X1510333Y-2845614D01*
G03X1507738Y-2843474I-24056J-26533D01*
G01X1507303Y-2843148D01*
G03X1501629Y-2838902I-72203J-90552D01*
G01X1499192Y-2837078D01*
G03X1496919Y-2835509I-21461J-28672D01*
G01X1483751Y-2827155D01*
G01X1483614Y-2824006D01*
G01X1483614Y-2668360D01*
G02X1483934Y-2665628I11811J0D01*
G03X1514114Y-2630260I-5634J35368D01*
G01X1514114Y-2549613D01*
G03X1485834Y-2514600I-35814J0D01*
G03X1514114Y-2479587I-7534J35013D01*
G01X1514114Y-2440965D01*
G02X1519235Y-2423738I31538J0D01*
G01X1544959Y-2398014D01*
G01X1638300Y-2398014D01*
G03X1672605Y-2383805I0J48514D01*
G01X1807565Y-2248970D01*
G03X1810896Y-2249250I4669J35508D01*
G01X1811907Y-2249288D01*
G03X1815371Y-2249417I4193J65781D01*
G01X1816407Y-2249456D01*
G03X1823372Y-2249036I1338J35789D01*
G01X1823753Y-2248976D01*
G03X1829143Y-2248118I-7653J65469D01*
G01X1829445Y-2248070D01*
G03X1835509Y-2246553I-5627J35369D01*
G01X1838816Y-2245411D01*
G03X1842521Y-2243894I-11691J33852D01*
G03X1879600Y-2201183I-26421J60387D01*
G03X1908883Y-2239845I63500J17676D01*
G01X1799752Y-2348975D01*
G02X1745700Y-2368784I-54052J63844D01*
G03X1709886Y-2404598I0J-35814D01*
G01X1709886Y-2484598D01*
G03X1726143Y-2514600I35814J0D01*
G03X1709886Y-2544602I19557J-30002D01*
G01X1709886Y-2624602D01*
G03X1745700Y-2660416I35814J0D01*
G01X1835700Y-2660416D01*
G03X1871514Y-2624602I0J35814D01*
G01X1871514Y-2544602D01*
G03X1869986Y-2534253I-35814J0D01*
G01X1907287Y-2571554D01*
G01X1907287Y-3162345D01*
G01X1689145Y-3380487D01*
G01X1155656Y-3380487D01*
G01X822217Y-3047047D01*
G01X820457Y-3044967D01*
G01X818440Y-3041917D01*
G01X815730Y-3037080D01*
G01X812713Y-3031084D01*
G01X806187Y-3017242D01*
G01X805688Y-3016225D01*
G01X803987Y-3012894D01*
G03X590893Y-3017881I-105487J-47806D01*
G03X742302Y-3167911I107607J-42819D01*
G01X746334Y-3166605D01*
G01X750186Y-3165985D01*
G01X755069Y-3165842D01*
G01X760295Y-3166318D01*
G01X765208Y-3167369D01*
G01X769182Y-3168777D01*
G01X772464Y-3170534D01*
G01X773405Y-3171375D01*
G01X791004Y-3188974D01*
G01X788500Y-3188886D01*
G01X608500Y-3188886D01*
G03X572686Y-3224700I0J-35814D01*
G01X572686Y-3234832D01*
G01X396494Y-3058640D01*
G01X396494Y-1957860D01*
G01X707062Y-1647292D01*
G01X698500Y-2160514D02*
G03X698500Y-1928886I0J115814D01*
G03X698500Y-2160514I0J-115814D01*
G01X698500Y-2414514D02*
G03X698500Y-2182886I0J115814D01*
G03X698500Y-2414514I0J-115814D01*
G01X1435100Y-3071886D02*
G03X1435100Y-3303514I0J-115814D01*
G03X1435100Y-3071886I0J115814D01*
G01X3939840Y-262700D02*
G01X3939840Y-3762700D01*
G02X3750000Y-3952540I-189840J0D01*
G01X250000Y-3952540D01*
G02X60160Y-3762700I0J189840D01*
G01X60160Y-262700D01*
G02X250000Y-72860I189840J0D01*
G01X3750000Y-72860D01*
G02X3939840Y-262700I0J-189840D01*
G01X263906Y-3086100D02*
G03X283323Y-3132977I66294J0D01*
G01X511923Y-3361577D01*
G03X558800Y-3380994I46877J46877D01*
G02X572686Y-3392853I0J-14059D01*
G01X572686Y-3404700D01*
G03X608500Y-3440514I35814J0D01*
G01X788500Y-3440514D01*
G03X824314Y-3404700I0J35814D01*
G01X824314Y-3224700D01*
G01X824226Y-3222196D01*
G01X1087016Y-3484986D01*
G03X1130301Y-3502915I43285J43285D01*
G01X1714501Y-3502915D01*
G03X1757786Y-3484986I0J61214D01*
G01X2011786Y-3230986D01*
G03X2029715Y-3187701I-43285J43285D01*
G01X2029715Y-2546198D01*
G03X2011786Y-2502914I-61214J0D01*
G01X1915370Y-2406498D01*
G01X2064600Y-2257267D01*
G01X2065619Y-2256369D01*
G01X2066726Y-2255568D01*
G01X2073490Y-2251508D01*
G01X2078355Y-2248902D01*
G03X2133456Y-2201692I-8255J65395D01*
G01X2133744Y-2201692D01*
G03X2260456Y-2201692I63356J18185D01*
G01X2260744Y-2201692D01*
G03X2387367Y-2202000I63356J18185D01*
G01X2387812Y-2201927D01*
G03X2402586Y-2228129I63288J18420D01*
G01X2402586Y-2291886D01*
G01X2371386Y-2291886D01*
G03X2057789Y-2502988I-69406J-235374D01*
G03X2323694Y-2771692I244191J-24272D01*
G01X2323694Y-2812500D01*
G02X2323385Y-2815183I-11811J0D01*
G03X2298700Y-2831043I5318J-35417D01*
G03X2268698Y-2814786I-30002J-19557D01*
G01X2188698Y-2814786D01*
G03X2152884Y-2850600I0J-35814D01*
G01X2152884Y-2940600D01*
G03X2188698Y-2976414I35814J0D01*
G01X2268698Y-2976414D01*
G03X2298700Y-2960157I0J35814D01*
G03X2328702Y-2976414I30002J19557D01*
G01X2408702Y-2976414D01*
G03X2444516Y-2940600I0J35814D01*
G01X2444516Y-2850600D01*
G03X2421711Y-2817232I-35814J0D01*
G02X2420722Y-2812500I10822J4732D01*
G01X2420722Y-2762714D01*
G01X2811678Y-2762714D01*
G01X2811678Y-2799800D01*
G02X2810689Y-2804532I-11811J0D01*
G03X2787884Y-2837900I13009J-33368D01*
G01X2787884Y-2927900D01*
G03X2823698Y-2963714I35814J0D01*
G01X2903698Y-2963714D01*
G03X2933700Y-2947457I0J35814D01*
G03X2963702Y-2963714I30002J19557D01*
G01X3043702Y-2963714D01*
G03X3079516Y-2927900I0J35814D01*
G01X3079516Y-2837900D01*
G03X3043702Y-2802086I-35814J0D01*
G01X2963702Y-2802086D01*
G03X2933700Y-2818343I0J-35814D01*
G03X2909015Y-2802483I-30002J-19557D01*
G02X2908706Y-2799800I11502J2683D01*
G01X2908706Y-2762714D01*
G01X2926663Y-2762714D01*
G03X3165864Y-2527300I3757J235414D01*
G03X2926663Y-2291886I-235444J0D01*
G01X2693387Y-2291886D01*
G01X2628035Y-2226533D01*
G03X2644014Y-2183507I-49935J43026D01*
G01X2644014Y-2046609D01*
G03X2514600Y-2028933I-65914J0D01*
G03X2461514Y-1981522I-63500J-17676D01*
G01X2461514Y-1920674D01*
G01X2921000Y-1920674D01*
G03X2931414Y-1910260I0J10414D01*
G01X2931414Y-1519314D01*
G01X3057140Y-1519314D01*
G03X3066234Y-1513974I0J10414D01*
G01X3131211Y-1513974D01*
G03X3146090Y-1517211I14878J32577D01*
G01X3266089Y-1517211D01*
G03X3280968Y-1513974I0J35814D01*
G01X3356600Y-1513974D01*
G03X3367014Y-1503560I0J10414D01*
G01X3367014Y-1425074D01*
G01X3377020Y-1425074D01*
G03X3387434Y-1414660I0J10414D01*
G01X3387434Y-1303060D01*
G03X3377020Y-1292646I-10414J0D01*
G01X3367014Y-1292646D01*
G01X3367014Y-1213739D01*
G03X3410480Y-1229977I43466J50056D01*
G01X3601110Y-1229977D01*
G03X3647987Y-1210560I0J66294D01*
G01X3716955Y-1141592D01*
G03X3736373Y-1094715I-46877J46877D01*
G01X3736373Y-921309D01*
G03X3716955Y-874432I-66294J0D01*
G01X3680494Y-837970D01*
G01X3680494Y-271350D01*
G03X3670080Y-260936I-10414J0D01*
G01X2603720Y-260936D01*
G03X2593306Y-271350I0J-10414D01*
G01X2593306Y-665672D01*
G01X2591959Y-664326D01*
G03X2545083Y-644909I-46877J-46877D01*
G01X2241169Y-644909D01*
G01X2237319Y-644594D01*
G01X2234829Y-643987D01*
G01X2231804Y-642781D01*
G01X2228095Y-640774D01*
G01X2223722Y-637866D01*
G01X2218922Y-634192D01*
G01X2207182Y-624150D01*
G03X2014982Y-711203I-76386J-87052D01*
G03X2207182Y-798255I115814J0D01*
G01X2218922Y-788213D01*
G01X2223722Y-784539D01*
G01X2228095Y-781631D01*
G01X2231804Y-779624D01*
G01X2234829Y-778418D01*
G01X2237319Y-777811D01*
G01X2241169Y-777497D01*
G01X2517623Y-777497D01*
G01X2537427Y-797301D01*
G01X2537427Y-1094715D01*
G03X2556845Y-1141592I66294J0D01*
G01X2618959Y-1203706D01*
G01X1816100Y-1203706D01*
G03X1769223Y-1223123I0J-66294D01*
G01X1654923Y-1337423D01*
G03X1635506Y-1384300I46877J-46877D01*
G01X1635506Y-1407494D01*
G01X1635109Y-1420197D01*
G01X1565066Y-1350154D01*
G02X1541314Y-1276579I102079J73575D01*
G01X1541314Y-1261902D01*
G03X1525057Y-1231900I-35814J0D01*
G03X1541314Y-1201898I-19557J30002D01*
G01X1541314Y-1121898D01*
G03X1505500Y-1086084I-35814J0D01*
G01X1415500Y-1086084D01*
G03X1379686Y-1121898I0J-35814D01*
G01X1379686Y-1201898D01*
G03X1392982Y-1229746I35814J0D01*
G02X1324060Y-1235608I-68922J402231D01*
G01X1197700Y-1235608D01*
G02X1120681Y-1219417I0J191282D01*
G03X1106260Y-1216386I-14420J-32782D01*
G01X1025613Y-1216386D01*
G03X990600Y-1244666I0J-35814D01*
G01X990546Y-1244418D01*
G02X981558Y-1160760I384059J83577D01*
G01X981558Y-788596D01*
G01X984831Y-785323D01*
G01X987776Y-782822D01*
G01X989966Y-781491D01*
G01X992958Y-780205D01*
G01X996999Y-779001D01*
G01X1002148Y-777966D01*
G01X1008140Y-777169D01*
G01X1023552Y-775967D01*
G03X1097893Y-578507I-7552J115567D01*
G03X900433Y-652848I-81893J-81893D01*
G01X899231Y-668260D01*
G01X898434Y-674252D01*
G01X897399Y-679401D01*
G01X896195Y-683442D01*
G01X894909Y-686434D01*
G01X893578Y-688624D01*
G01X891077Y-691569D01*
G01X868387Y-714259D01*
G03X848970Y-761136I46877J-46877D01*
G01X848970Y-1160760D01*
G02X839946Y-1244577I-393806J0D01*
G03X839126Y-1252200I34993J-7623D01*
G01X839126Y-1338600D01*
G03X874940Y-1374414I35814J0D01*
G01X955587Y-1374414D01*
G03X990600Y-1346134I0J35814D01*
G03X1025613Y-1374414I35013J7534D01*
G01X1106260Y-1374414D01*
G03X1111108Y-1374085I0J35814D01*
G02X1197700Y-1368196I86592J-633764D01*
G01X1324060Y-1368196D01*
G02X1399096Y-1375154I-0J-408093D01*
G02X1457061Y-1429657I-856236J-968703D01*
G01X1529052Y-1501648D01*
G01X1257656Y-1501648D01*
G03X1236295Y-1505184I0J-66294D01*
G01X1199600Y-1505184D01*
G03X1192223Y-1505952I0J-35814D01*
G02X1108160Y-1514704I-84063J399341D01*
G01X679602Y-1514704D01*
G03X632725Y-1534121I0J-66294D01*
G01X283323Y-1883523D01*
G03X263906Y-1930400I46877J-46877D01*
G01X263906Y-3086100D01*
G01X877814Y-660400D02*
G03X646186Y-660400I-115814J0D01*
G03X877814Y-660400I115814J0D01*
G01X1780784Y-595389D02*
G03X1780784Y-827016I0J-115814D01*
G03X1780784Y-595389I0J115814D01*
G01X3579114Y-1633200D02*
G01X3579114Y-1544067D01*
G01X3581032Y-1541660D01*
G03X3530600Y-1432286I-50432J43060D01*
G03X3480168Y-1541660I0J-66314D01*
G01X3482086Y-1544067D01*
G01X3482086Y-1633200D01*
G02X3481662Y-1636334I-11811J0D01*
G03X3454400Y-1663766I7750J-34965D01*
G03X3419387Y-1635486I-35013J-7534D01*
G01X3338740Y-1635486D01*
G03X3302926Y-1671300I0J-35814D01*
G01X3302926Y-1757700D01*
G03X3338740Y-1793514I35814J0D01*
G01X3419387Y-1793514D01*
G03X3454400Y-1765234I0J35814D01*
G03X3489413Y-1793514I35013J7534D01*
G01X3570060Y-1793514D01*
G03X3605874Y-1757700I0J35814D01*
G01X3605874Y-1671300D01*
G03X3579676Y-1636801I-35814J0D01*
G02X3579114Y-1633200I11249J3601D01*
G54D11*
G01X1701038Y-711203D02*
G01X1675130Y-711203D01*
G01X1860530Y-711203D02*
G01X1886438Y-711203D01*
G01X1780784Y-790948D02*
G01X1780784Y-816856D01*
G01X1780784Y-631457D02*
G01X1780784Y-605549D01*
G01X1355354Y-3187700D02*
G01X1329446Y-3187700D01*
G01X1514846Y-3187700D02*
G01X1540754Y-3187700D01*
G01X1435100Y-3267446D02*
G01X1435100Y-3293354D01*
G01X1435100Y-3107954D02*
G01X1435100Y-3082046D01*
G01X762000Y-580654D02*
G01X762000Y-554746D01*
G01X762000Y-740146D02*
G01X762000Y-766054D01*
G01X682254Y-660400D02*
G01X656346Y-660400D01*
G01X841746Y-660400D02*
G01X867654Y-660400D01*
G01X778246Y-2298700D02*
G01X804154Y-2298700D01*
G01X618754Y-2298700D02*
G01X592846Y-2298700D01*
G01X698500Y-2218954D02*
G01X698500Y-2193046D01*
G01X698500Y-2378446D02*
G01X698500Y-2404354D01*
G01X778246Y-2044700D02*
G01X804154Y-2044700D01*
G01X618754Y-2044700D02*
G01X592846Y-2044700D01*
G01X698500Y-1964954D02*
G01X698500Y-1939046D01*
G01X698500Y-2124446D02*
G01X698500Y-2150354D01*
G01X3379064Y-1671554D02*
G01X3379064Y-1645646D01*
G01X3379064Y-1757446D02*
G01X3379064Y-1783354D01*
G01X3338994Y-1714500D02*
G01X3313086Y-1714500D01*
G01X3003702Y-2838154D02*
G01X3003702Y-2812246D01*
G01X3003702Y-2927646D02*
G01X3003702Y-2953554D01*
G01X3043448Y-2882900D02*
G01X3069356Y-2882900D01*
G01X1659254Y-2115058D02*
G01X1633346Y-2115058D01*
G01X1505246Y-1161898D02*
G01X1531154Y-1161898D01*
G01X1415754Y-1161898D02*
G01X1389846Y-1161898D01*
G01X1460500Y-1122152D02*
G01X1460500Y-1096244D01*
G01X2228698Y-2940346D02*
G01X2228698Y-2966254D01*
G01X2228698Y-2850854D02*
G01X2228698Y-2824946D01*
G01X2188952Y-2895600D02*
G01X2163044Y-2895600D01*
G01X1289346Y-1721002D02*
G01X1315254Y-1721002D01*
G01X1199854Y-1721002D02*
G01X1173946Y-1721002D01*
G01X1244600Y-1760748D02*
G01X1244600Y-1786656D01*
G01X1835446Y-2584602D02*
G01X1861354Y-2584602D01*
G01X1745954Y-2584602D02*
G01X1720046Y-2584602D01*
G01X1790700Y-2624348D02*
G01X1790700Y-2650256D01*
G04 Copper End*

G04 TearDrop Start*
G36*
G01X797686Y-2473653D02*
G01X787072Y-2520189D01*
G01X784276Y-2523401D01*
G01X782050Y-2526815D01*
G01X780325Y-2530410D01*
G01X779032Y-2534167D01*
G01X777464Y-2542080D01*
G01X776792Y-2550390D01*
G01X776463Y-2558931D01*
G01X775923Y-2567541D01*
G01X774617Y-2576054D01*
G01X773504Y-2580222D01*
G01X771992Y-2584305D01*
G01X720671Y-2475834D01*
G01X741951Y-2482032D01*
G01X752166Y-2484460D01*
G01X762054Y-2485899D01*
G01X766866Y-2486121D01*
G01X771583Y-2485944D01*
G01X776203Y-2485317D01*
G01X780720Y-2484188D01*
G01X785131Y-2482509D01*
G01X789432Y-2480227D01*
G01X793618Y-2477292D01*
G01X797686Y-2473653D01*
G37*
G36*
G01X807415Y-2794000D02*
G01X807415Y-2819400D01*
G01X801188Y-2819671D01*
G01X795843Y-2820462D01*
G01X791268Y-2821738D01*
G01X787351Y-2823465D01*
G01X783984Y-2825607D01*
G01X781054Y-2828130D01*
G01X778451Y-2831000D01*
G01X776063Y-2834181D01*
G01X766450Y-2849332D01*
G01X760054Y-2857877D01*
G01X756070Y-2862271D01*
G01X751415Y-2866700D01*
G01X751415Y-2746700D01*
G01X756070Y-2751129D01*
G01X760054Y-2755523D01*
G01X766450Y-2764068D01*
G01X776063Y-2779219D01*
G01X778451Y-2782400D01*
G01X781054Y-2785270D01*
G01X783984Y-2787793D01*
G01X787351Y-2789935D01*
G01X791268Y-2791662D01*
G01X795843Y-2792938D01*
G01X801188Y-2793729D01*
G01X807415Y-2794000D01*
G37*
G36*
G01X795841Y-3071320D02*
G01X798020Y-3145341D01*
G01X794939Y-3142588D01*
G01X791495Y-3140099D01*
G01X783696Y-3135924D01*
G01X774975Y-3132834D01*
G01X765683Y-3130847D01*
G01X756175Y-3129981D01*
G01X746802Y-3130254D01*
G01X737918Y-3131685D01*
G01X729874Y-3134291D01*
G01X767592Y-3020373D01*
G01X773793Y-3032514D01*
G01X780515Y-3046773D01*
G01X784096Y-3053890D01*
G01X787838Y-3060568D01*
G01X791749Y-3066486D01*
G01X795841Y-3071320D01*
G37*
G36*
G01X558800Y-3345180D02*
G01X558800Y-3284220D01*
G03X608500Y-3238500I0J49873D01*
G01X608500Y-3390900D01*
G03X558800Y-3345180I-49700J-4153D01*
G37*
G36*
G01X960538Y-758967D02*
G01X917433Y-715862D01*
G01X922711Y-709647D01*
G01X926819Y-702888D01*
G01X929923Y-695666D01*
G01X932188Y-688061D01*
G01X933779Y-680150D01*
G01X934861Y-672016D01*
G01X936157Y-655390D01*
G01X1021010Y-740243D01*
G01X1004384Y-741539D01*
G01X996250Y-742621D01*
G01X988339Y-744212D01*
G01X980734Y-746477D01*
G01X973512Y-749581D01*
G01X966753Y-753689D01*
G01X960538Y-758967D01*
G37*
G36*
G01X884784Y-1160760D02*
G01X945744Y-1160760D01*
G03X955587Y-1252200I429620J0D01*
G01X874940Y-1252200D01*
G03X884784Y-1160760I-419776J91440D01*
G37*
G36*
G01X1197700Y-1271422D02*
G01X1197700Y-1332382D01*
G03X1106260Y-1338600I0J-675466D01*
G01X1106260Y-1252200D01*
G03X1197700Y-1271422I91440J207873D01*
G37*
G36*
G01X1108160Y-1611478D02*
G01X1108160Y-1550518D01*
G03X1199600Y-1540998I-0J443907D01*
G01X1199600Y-1620998D01*
G03X1108160Y-1611478I-91440J-434387D01*
G37*
G36*
G01X1381040Y-1537462D02*
G01X1381040Y-1598422D01*
G03X1289600Y-1620998I0J-196472D01*
G01X1289600Y-1540998D01*
G03X1381040Y-1537462I0J1184173D01*
G37*
G36*
G01X1422400Y-2824785D02*
G01X1447800Y-2824785D01*
G01X1448071Y-2831012D01*
G01X1448862Y-2836357D01*
G01X1450138Y-2840932D01*
G01X1451865Y-2844849D01*
G01X1454007Y-2848216D01*
G01X1456530Y-2851146D01*
G01X1459400Y-2853749D01*
G01X1462581Y-2856137D01*
G01X1477732Y-2865750D01*
G01X1486277Y-2872146D01*
G01X1490671Y-2876130D01*
G01X1495100Y-2880785D01*
G01X1375100Y-2880785D01*
G01X1379529Y-2876130D01*
G01X1383923Y-2872146D01*
G01X1392468Y-2865750D01*
G01X1407619Y-2856137D01*
G01X1410800Y-2853749D01*
G01X1413670Y-2851146D01*
G01X1416193Y-2848216D01*
G01X1418335Y-2844849D01*
G01X1420062Y-2840932D01*
G01X1421338Y-2836357D01*
G01X1422129Y-2831012D01*
G01X1422400Y-2824785D01*
G37*
G36*
G01X1447800Y-2668360D02*
G01X1422400Y-2668360D01*
G03X1403350Y-2630260I-47625J0D01*
G01X1466850Y-2630260D01*
G03X1447800Y-2668360I28575J-38100D01*
G37*
G36*
G01X1470934Y-2385469D02*
G01X1491771Y-2400553D01*
G03X1478300Y-2440965I53882J-40411D01*
G01X1430522Y-2398940D01*
G03X1470934Y-2385469I0J67352D01*
G37*
G36*
G01X1399266Y-2493058D02*
G01X1378429Y-2477974D01*
G03X1391900Y-2437563I-53882J40411D01*
G01X1439678Y-2479587D01*
G03X1399266Y-2493058I0J-67352D01*
G37*
G36*
G01X1324060Y-1332382D02*
G01X1324060Y-1271422D01*
G03X1415500Y-1261902I-0J443907D01*
G01X1415500Y-1341902D01*
G03X1324060Y-1332382I-91440J-434387D01*
G37*
G36*
G01X1537829Y-1373566D02*
G01X1482385Y-1404333D01*
G03X1415500Y-1341902I-939526J-939524D01*
G01X1505500Y-1276579D01*
G03X1537829Y-1373566I161645J-0D01*
G37*
G36*
G01X1866900Y-2419198D02*
G01X1866900Y-2469998D01*
G03X1835700Y-2484598I0J-40637D01*
G01X1835700Y-2404598D01*
G03X1866900Y-2419198I31200J26037D01*
G37*
G36*
G01X1824121Y-2375256D02*
G01X1865042Y-2406177D01*
G03X1835700Y-2484598I90124J-78421D01*
G01X1745700Y-2404598D01*
G03X1824121Y-2375256I0J119466D01*
G37*
G36*
G01X2239711Y-680723D02*
G01X2239711Y-741683D01*
G01X2231584Y-742345D01*
G01X2223900Y-744219D01*
G01X2216598Y-747131D01*
G01X2209619Y-750908D01*
G01X2202900Y-755376D01*
G01X2196383Y-760363D01*
G01X2183711Y-771202D01*
G01X2183711Y-651203D01*
G01X2196383Y-662042D01*
G01X2202900Y-667029D01*
G01X2209619Y-671498D01*
G01X2216598Y-675274D01*
G01X2223900Y-678186D01*
G01X2231584Y-680060D01*
G01X2239711Y-680723D01*
G37*
G36*
G01X3124381Y-1371600D02*
G01X3124381Y-1346200D01*
G03X3146090Y-1331399I0J23322D01*
G01X3146090Y-1386401D01*
G03X3124381Y-1371600I-21709J-8521D01*
G37*
G36*
G01X3047819Y-1346200D02*
G01X3047819Y-1371600D01*
G03X3026110Y-1386401I0J-23322D01*
G01X3026110Y-1331399D01*
G03X3047819Y-1346200I21709J8521D01*
G37*
G36*
G01X3414201Y-1136924D02*
G01X3353241Y-1136924D01*
G03X3349391Y-1118003I-48422J0D01*
G01X3404392Y-1118003D01*
G03X3414201Y-1136924I23154J0D01*
G37*
G36*
G01X3251200Y-969903D02*
G01X3276600Y-969903D01*
G03X3276881Y-1008003I2586244J1D01*
G01X3246881Y-1008003D01*
G03X3251200Y-969903I-165880J38100D01*
G37*
G36*
G01X3217506Y-1129559D02*
G01X3192106Y-1129559D01*
G03X3196894Y-1118003I-11556J11557D01*
G01X3226893Y-1118003D01*
G03X3217506Y-1129559I2420J-11557D01*
G37*
G36*
G01X3142094Y-996446D02*
G01X3167494Y-996446D01*
G03X3176906Y-1008003I11801J0D01*
G01X3146906Y-1008003D01*
G03X3142094Y-996446I-16282J0D01*
G37*
G36*
G01X3056294Y-996446D02*
G01X3081694Y-996446D01*
G03X3076906Y-1008003I11556J-11557D01*
G01X3046907Y-1008003D01*
G03X3056294Y-996446I-2420J11557D01*
G37*
G36*
G01X3517900Y-1633200D02*
G01X3543300Y-1633200D01*
G03X3562350Y-1671300I47625J0D01*
G01X3498850Y-1671300D01*
G03X3517900Y-1633200I-28575J38100D01*
G37*
G36*
G01X2711438Y-1291553D02*
G02X2863320Y-1194163I298694J-298694D01*
G01X2796203Y-1163683D01*
G01X2672690Y-1194163D01*
G02X2668333Y-1248447I-34058J-24584D01*
G01X2711438Y-1291553D01*
G37*
G36*
G01X3276600Y-998666D02*
G01X3251200Y-971424D01*
G01X3251560Y-960739D01*
G01X3251687Y-955121D01*
G01X3251492Y-950074D01*
G01X3286924Y-977316D01*
G01X3283704Y-978299D01*
G01X3281231Y-979960D01*
G01X3279408Y-982201D01*
G01X3278136Y-984925D01*
G01X3277317Y-988031D01*
G01X3276853Y-991422D01*
G01X3276600Y-998666D01*
G37*
G36*
G01X3543300Y-1540124D02*
G01X3517900Y-1540124D01*
G01X3517671Y-1537235D01*
G01X3517025Y-1534354D01*
G01X3514720Y-1528728D01*
G01X3511461Y-1523462D01*
G01X3507725Y-1518774D01*
G01X3553475Y-1518774D01*
G01X3549739Y-1523462D01*
G01X3546480Y-1528728D01*
G01X3544175Y-1534354D01*
G01X3543529Y-1537235D01*
G01X3543300Y-1540124D01*
G37*
G36*
G01X2769352Y-1033417D02*
G01X2770887Y-999032D01*
G03X2789398Y-1008003I22178J22179D01*
G01X2789398Y-1067252D01*
G03X2769352Y-1033417I-76128J-22246D01*
G37*
G36*
G01X2761907Y-995312D02*
G01X2761907Y-1020712D01*
G01X2759065Y-1021140D01*
G01X2757497Y-1022349D01*
G01X2756928Y-1024228D01*
G01X2757082Y-1026665D01*
G01X2758453Y-1032767D01*
G01X2759118Y-1036208D01*
G01X2759401Y-1039762D01*
G01X2759401Y-976262D01*
G01X2759118Y-979815D01*
G01X2758453Y-983257D01*
G01X2757082Y-989358D01*
G01X2756928Y-991796D01*
G01X2757497Y-993675D01*
G01X2759065Y-994884D01*
G01X2761907Y-995312D01*
G37*
G36*
G01X3514408Y-1050303D02*
G01X3514408Y-1075703D01*
G03X3484402Y-1094753I0J-33155D01*
G01X3484402Y-1031253D01*
G03X3514408Y-1050303I30005J14105D01*
G37*
G36*
G01X2382466Y-2142941D02*
G01X2382284Y-2143118D01*
G01X2393100Y-2164500D01*
G01X2382466Y-2142941D01*
G37*
G36*
G01X2877210Y-1276604D02*
G01X2877210Y-1251204D01*
G03X2906111Y-1236403I0J35616D01*
G01X2906111Y-1291405D01*
G03X2877210Y-1276604I-28900J-20815D01*
G37*
G36*
G01X3225800Y-1519497D02*
G01X3200400Y-1519497D01*
G03X3181350Y-1481397I-47625J0D01*
G01X3244850Y-1481397D01*
G03X3225800Y-1519497I28575J-38100D01*
G37*
G36*
G01X3200400Y-1482476D02*
G01X3225800Y-1482476D01*
G01X3226029Y-1485365D01*
G01X3226674Y-1488246D01*
G01X3228980Y-1493872D01*
G01X3232239Y-1499138D01*
G01X3235975Y-1503826D01*
G01X3190225Y-1503826D01*
G01X3193961Y-1499138D01*
G01X3197220Y-1493872D01*
G01X3199526Y-1488246D01*
G01X3200171Y-1485365D01*
G01X3200400Y-1482476D01*
G37*
G36*
G01X3304189Y-1441196D02*
G01X3304189Y-1466596D01*
G03X3266089Y-1481397I0J-56439D01*
G01X3266089Y-1426395D01*
G03X3304189Y-1441196I38100J41639D01*
G37*
G36*
G01X3268702Y-1466596D02*
G01X3278608Y-1441196D01*
G01X3284230Y-1440560D01*
G01X3289640Y-1438885D01*
G01X3294872Y-1436515D01*
G01X3299958Y-1433799D01*
G01X3290052Y-1478464D01*
G01X3285924Y-1474106D01*
G01X3280508Y-1470305D01*
G01X3274527Y-1467616D01*
G01X3271550Y-1466863D01*
G01X3268702Y-1466596D01*
G37*
G36*
G01X3304189Y-1251204D02*
G01X3304189Y-1276604D01*
G03X3266089Y-1291405I0J-56439D01*
G01X3266089Y-1236403D01*
G03X3304189Y-1251204I38100J41639D01*
G37*
G36*
G01X3291308Y-1276604D02*
G01X3281402Y-1251204D01*
G01X3284250Y-1250937D01*
G01X3287227Y-1250184D01*
G01X3293208Y-1247495D01*
G01X3298624Y-1243694D01*
G01X3302752Y-1239336D01*
G01X3312658Y-1284001D01*
G01X3307572Y-1281285D01*
G01X3302340Y-1278915D01*
G01X3296930Y-1277240D01*
G01X3291308Y-1276604D01*
G37*
G36*
G01X1622064Y-1544011D02*
G01X1626820Y-1462557D01*
G01X1631664Y-1466419D01*
G01X1637421Y-1469435D01*
G01X1643922Y-1471743D01*
G01X1650998Y-1473478D01*
G01X1658480Y-1474779D01*
G01X1666199Y-1475781D01*
G01X1681671Y-1477437D01*
G01X1696060Y-1479543D01*
G01X1702426Y-1481105D01*
G01X1708014Y-1483190D01*
G01X1712654Y-1485935D01*
G01X1716178Y-1489476D01*
G01X1717468Y-1491587D01*
G01X1718416Y-1493949D01*
G01X1719001Y-1496579D01*
G01X1719200Y-1499493D01*
G01X1659000Y-1636391D01*
G01X1658217Y-1625266D01*
G01X1655985Y-1613018D01*
G01X1652482Y-1600148D01*
G01X1647883Y-1587156D01*
G01X1642365Y-1574546D01*
G01X1636105Y-1562817D01*
G01X1629279Y-1552472D01*
G01X1625709Y-1547975D01*
G01X1622064Y-1544011D01*
G37*
G36*
G01X1671320Y-1408053D02*
G01X1732280Y-1408053D01*
G01X1731718Y-1425004D01*
G01X1730236Y-1441271D01*
G01X1728142Y-1456407D01*
G01X1725740Y-1469965D01*
G01X1721244Y-1490563D01*
G01X1719200Y-1499493D01*
G01X1659000Y-1499493D01*
G01X1660925Y-1490563D01*
G01X1665160Y-1469965D01*
G01X1667422Y-1456407D01*
G01X1669395Y-1441271D01*
G01X1670791Y-1425004D01*
G01X1671320Y-1408053D01*
G37*
G36*
G01X1567560Y-1598422D02*
G01X1567560Y-1537462D01*
G01X1601135Y-1537959D01*
G01X1616584Y-1537503D01*
G01X1623739Y-1536786D01*
G01X1630425Y-1535623D01*
G01X1636575Y-1533923D01*
G01X1642123Y-1531598D01*
G01X1647001Y-1528558D01*
G01X1651142Y-1524714D01*
G01X1654479Y-1519974D01*
G01X1656946Y-1514251D01*
G01X1658475Y-1507454D01*
G01X1659000Y-1499493D01*
G01X1659000Y-1636391D01*
G01X1658475Y-1628430D01*
G01X1656946Y-1621633D01*
G01X1654479Y-1615910D01*
G01X1651142Y-1611170D01*
G01X1647001Y-1607326D01*
G01X1642123Y-1604286D01*
G01X1636575Y-1601961D01*
G01X1630425Y-1600261D01*
G01X1623739Y-1599098D01*
G01X1616584Y-1598381D01*
G01X1601135Y-1597925D01*
G01X1567560Y-1598422D01*
G37*
G36*
G01X2184401Y-2008508D02*
G01X2209801Y-2008509D01*
G01X2210548Y-2015512D01*
G01X2212519Y-2022142D01*
G01X2215306Y-2028266D01*
G01X2218500Y-2033751D01*
G01X2224482Y-2042264D01*
G01X2226453Y-2045024D01*
G01X2227200Y-2046609D01*
G01X2167000Y-2046608D01*
G01X2167747Y-2045023D01*
G01X2169719Y-2042262D01*
G01X2175700Y-2033749D01*
G01X2178895Y-2028265D01*
G01X2181682Y-2022141D01*
G01X2183653Y-2015511D01*
G01X2184401Y-2008508D01*
G37*
G36*
G01X2040074Y-2231144D02*
G01X2013059Y-2186318D01*
G01X2016501Y-2182567D01*
G01X2019686Y-2178480D01*
G01X2025305Y-2169441D01*
G01X2029955Y-2159477D01*
G01X2033673Y-2148865D01*
G01X2036498Y-2137884D01*
G01X2038469Y-2126811D01*
G01X2039624Y-2115922D01*
G01X2040000Y-2105495D01*
G01X2100200Y-2183507D01*
G01X2099690Y-2187380D01*
G01X2098233Y-2191041D01*
G01X2095940Y-2194509D01*
G01X2092919Y-2197805D01*
G01X2089283Y-2200948D01*
G01X2085139Y-2203958D01*
G01X2075774Y-2209661D01*
G01X2055810Y-2220349D01*
G01X2046974Y-2225654D01*
G01X2043227Y-2228366D01*
G01X2040074Y-2231144D01*
G37*
G36*
G01X1930400Y-2008509D02*
G01X1955800Y-2008509D01*
G01X1956548Y-2015511D01*
G01X1958519Y-2022141D01*
G01X1961305Y-2028266D01*
G01X1964500Y-2033750D01*
G01X1970481Y-2042263D01*
G01X1972452Y-2045024D01*
G01X1973200Y-2046609D01*
G01X1913000Y-2046609D01*
G01X1913748Y-2045024D01*
G01X1915719Y-2042263D01*
G01X1921700Y-2033750D01*
G01X1924895Y-2028266D01*
G01X1927681Y-2022141D01*
G01X1929652Y-2015511D01*
G01X1930400Y-2008509D01*
G37*
G36*
G01X1786332Y-2219428D02*
G01X1780179Y-2189661D01*
G01X1783828Y-2185270D01*
G01X1786382Y-2180817D01*
G01X1789835Y-2172036D01*
G01X1791551Y-2167863D01*
G01X1793804Y-2163940D01*
G01X1797003Y-2160344D01*
G01X1801555Y-2157155D01*
G01X1830645Y-2209860D01*
G01X1827125Y-2211559D01*
G01X1823818Y-2212701D01*
G01X1817745Y-2213667D01*
G01X1812233Y-2213461D01*
G01X1807091Y-2212785D01*
G01X1802122Y-2212341D01*
G01X1797136Y-2212832D01*
G01X1794575Y-2213648D01*
G01X1791937Y-2214961D01*
G01X1789197Y-2216858D01*
G01X1786332Y-2219428D01*
G37*
G36*
G01X2463800Y-2221607D02*
G01X2438400Y-2221607D01*
G01X2437652Y-2214605D01*
G01X2435681Y-2207975D01*
G01X2432894Y-2201850D01*
G01X2429700Y-2196366D01*
G01X2423719Y-2187853D01*
G01X2421747Y-2185092D01*
G01X2421000Y-2183507D01*
G01X2481200Y-2183507D01*
G01X2480453Y-2185092D01*
G01X2478481Y-2187853D01*
G01X2472500Y-2196366D01*
G01X2469306Y-2201850D01*
G01X2466519Y-2207975D01*
G01X2464548Y-2214605D01*
G01X2463800Y-2221607D01*
G37*
G36*
G01X2442120Y-2439427D02*
G01X2460080Y-2457388D01*
G03X2447207Y-2497201I55132J-39814D01*
G01X2402306Y-2452300D01*
G03X2442120Y-2439427I0J68005D01*
G37*
G36*
G01X2590800Y-2221607D02*
G01X2565400Y-2221607D01*
G01X2564652Y-2214605D01*
G01X2562681Y-2207975D01*
G01X2559894Y-2201850D01*
G01X2556700Y-2196366D01*
G01X2550719Y-2187853D01*
G01X2548747Y-2185092D01*
G01X2548000Y-2183507D01*
G01X2608200Y-2183507D01*
G01X2607453Y-2185092D01*
G01X2605481Y-2187853D01*
G01X2599500Y-2196366D01*
G01X2596306Y-2201850D01*
G01X2593519Y-2207975D01*
G01X2591548Y-2214605D01*
G01X2590800Y-2221607D01*
G37*
G36*
G01X2779011Y-2464079D02*
G01X2796972Y-2446119D01*
G01X2801210Y-2450003D01*
G01X2805226Y-2452990D01*
G01X2809068Y-2455170D01*
G01X2812784Y-2456638D01*
G01X2816421Y-2457486D01*
G01X2820028Y-2457807D01*
G01X2827339Y-2457239D01*
G01X2843689Y-2453862D01*
G01X2853492Y-2452538D01*
G01X2858968Y-2452292D01*
G01X2864889Y-2452447D01*
G01X2785340Y-2531997D01*
G01X2785185Y-2526075D01*
G01X2785431Y-2520600D01*
G01X2786755Y-2510797D01*
G01X2790132Y-2494446D01*
G01X2790700Y-2487135D01*
G01X2790379Y-2483529D01*
G01X2789531Y-2479892D01*
G01X2788063Y-2476176D01*
G01X2785882Y-2472333D01*
G01X2782896Y-2468317D01*
G01X2779011Y-2464079D01*
G37*
G36*
G01X2872892Y-2629408D02*
G01X2847492Y-2629408D01*
G01X2847243Y-2623664D01*
G01X2846514Y-2618713D01*
G01X2845339Y-2614454D01*
G01X2843750Y-2610788D01*
G01X2841778Y-2607617D01*
G01X2839454Y-2604839D01*
G01X2833883Y-2600071D01*
G01X2819933Y-2590898D01*
G01X2812066Y-2584902D01*
G01X2808020Y-2581205D01*
G01X2803943Y-2576908D01*
G01X2916442Y-2576908D01*
G01X2912365Y-2581205D01*
G01X2908319Y-2584902D01*
G01X2900451Y-2590898D01*
G01X2886502Y-2600071D01*
G01X2880930Y-2604839D01*
G01X2878607Y-2607617D01*
G01X2876635Y-2610788D01*
G01X2875045Y-2614454D01*
G01X2873871Y-2618713D01*
G01X2873142Y-2623664D01*
G01X2872892Y-2629408D01*
G37*
G36*
G01X2847492Y-2799800D02*
G01X2872892Y-2799800D01*
G03X2891942Y-2837900I47625J0D01*
G01X2828442Y-2837900D01*
G03X2847492Y-2799800I-28575J38100D01*
G37*
G36*
G01X2384908Y-2640400D02*
G01X2359508Y-2640400D01*
G03X2340458Y-2602300I-47625J0D01*
G01X2403958Y-2602300D01*
G03X2384908Y-2640400I28575J-38100D01*
G37*
G36*
G01X2359508Y-2812500D02*
G01X2384908Y-2812500D01*
G03X2403958Y-2850600I47625J0D01*
G01X2340458Y-2850600D01*
G03X2359508Y-2812500I-28575J38100D01*
G37*
G04 TearDrop End*

G04 Pad Start*
G54D12*
G01X2130796Y-711203D03*
G01X1780784Y-711203D03*
G54D13*
G01X1460500Y-1161898D03*
G01X1460500Y-1301902D03*
G01X1790700Y-2444598D03*
G01X1790700Y-2584602D03*
G54D14*
G01X3206090Y-1358900D03*
G01X2966110Y-1263904D03*
G01X2966110Y-1358900D03*
G01X2966110Y-1453896D03*
G01X3206090Y-1453896D03*
G01X3206090Y-1263904D03*
G54D12*
G01X762000Y-660400D03*
G01X1016000Y-660400D03*
G01X1435100Y-3187700D03*
G01X1435100Y-2933700D03*
G01X698500Y-2044700D03*
G01X698500Y-2298700D03*
G01X698500Y-2552700D03*
G01X698500Y-2806700D03*
G01X698500Y-3060700D03*
G54D15*
G01X698500Y-3314700D03*
G54D16*
G01X3379064Y-1714500D03*
G01X3529736Y-1714500D03*
G01X915264Y-1295400D03*
G01X1065936Y-1295400D03*
G54D17*
G01X1435100Y-2589936D03*
G01X1435100Y-2439264D03*
G54D19*
G01X1689100Y-2115058D03*
G01X1816100Y-2115058D03*
G01X1943100Y-2115058D03*
G01X2070100Y-2115058D03*
G01X2197100Y-2115058D03*
G01X2324100Y-2115058D03*
G01X2451100Y-2115058D03*
G01X2578100Y-2115058D03*
G01X1689100Y-1567942D03*
G01X1816100Y-1567942D03*
G01X1943100Y-1567942D03*
G01X2070100Y-1567942D03*
G01X2197100Y-1567942D03*
G01X2324100Y-1567942D03*
G01X2451100Y-1567942D03*
G01X2578100Y-1567942D03*
G54D20*
G01X3456902Y-1063003D03*
G01X3376892Y-1063003D03*
G54D21*
G01X3311893Y-1063003D03*
G01X3261881Y-1063003D03*
G01X3211894Y-1063003D03*
G01X3161906Y-1063003D03*
G01X3111894Y-1063003D03*
G01X3061907Y-1063003D03*
G01X3011894Y-1063003D03*
G01X2961881Y-1063003D03*
G54D20*
G01X2896883Y-1063003D03*
G01X2816898Y-1063003D03*
G54D22*
G01X3569399Y-1008012D03*
G01X2704402Y-1008012D03*
G54D23*
G01X3569399Y-587997D03*
G01X2704402Y-587997D03*
G54D13*
G01X1244600Y-1580998D03*
G01X1244600Y-1721002D03*
G54D24*
G01X2368702Y-2895600D03*
G01X2228698Y-2895600D03*
G01X2863698Y-2882900D03*
G01X3003702Y-2882900D03*
G54D25*
G01X2372208Y-2527300D03*
G54D26*
G01X2860192Y-2527300D03*
G04 Pad End*

G04 Via Start*
G54D27*
G01X3281861Y-947239D03*
G01X3530600Y-1498600D03*
G01X3327400Y-1257300D03*
G01X3213100Y-1524000D03*
G01X3314700Y-1460500D03*
G04 Via End*

G04 Track Start*
G54D28*
G01X2070100Y-2115058D02*
G01X2070100Y-2165198D01*
G01X1790700Y-2444598D01*
G54D11*
G01X1816100Y-2115058D02*
G01X1816100Y-2171700D01*
G01X1638300Y-2349500D01*
G01X1524864Y-2349500D01*
G01X1435100Y-2439264D01*
G01X1435100Y-2589936D02*
G01X1435100Y-2933700D01*
G01X1447800Y-2946400D01*
G54D29*
G01X1689100Y-1567942D02*
G01X1257656Y-1567942D01*
G01X1244600Y-1580998D01*
G01X679602Y-1580998D01*
G01X330200Y-1930400D01*
G01X330200Y-3086100D01*
G01X558800Y-3314700D02*
G01X698500Y-3314700D01*
G01X330200Y-3086100D02*
G01X558800Y-3314700D01*
G54D11*
G01X1435100Y-2439264D02*
G01X1067664Y-2806700D01*
G01X698500Y-2806700D01*
G01X1943100Y-2115058D02*
G01X1943100Y-1993900D01*
G01X1892300Y-1943100D01*
G01X1346200Y-1943100D01*
G01X736600Y-2552700D01*
G01X698500Y-2552700D01*
G54D28*
G01X1866900Y-2444598D02*
G01X1968501Y-2546198D01*
G01X1968501Y-3187701D01*
G01X1714501Y-3441701D01*
G01X1130301Y-3441701D01*
G01X749300Y-3060700D01*
G01X1790700Y-2444598D02*
G01X1866900Y-2444598D01*
G01X749300Y-3060700D02*
G01X698500Y-3060700D01*
G54D29*
G01X1689100Y-1567942D02*
G01X1460500Y-1339342D01*
G01X1460500Y-1301902D01*
G01X1072439Y-1301902D01*
G01X1065936Y-1295400D01*
G01X915264Y-1295400D02*
G01X915264Y-761136D01*
G01X1016000Y-660400D01*
G01X2545083Y-711203D02*
G01X2130796Y-711203D01*
G01X2603721Y-769841D02*
G01X2545083Y-711203D01*
G01X2863320Y-1163683D02*
G01X2796203Y-1163683D01*
G01X2689885Y-1270000D01*
G01X1816100Y-1270000D02*
G01X1701800Y-1384300D01*
G01X1701800Y-1567942D01*
G01X2796203Y-1163683D02*
G01X2672690Y-1163683D01*
G01X2689885Y-1270000D02*
G01X1816100Y-1270000D01*
G01X2896883Y-1063003D02*
G01X2896883Y-1130120D01*
G01X2603721Y-1094715D02*
G01X2603721Y-921309D01*
G01X3611101Y-862332D02*
G01X3670079Y-921309D01*
G01X3670079Y-1094715D01*
G01X3410480Y-1163683D02*
G01X3383721Y-1136924D01*
G01X3383721Y-1069832D01*
G01X3376892Y-1063003D01*
G01X2672690Y-1163683D02*
G01X2603721Y-1094715D01*
G01X2603721Y-921309D02*
G01X2662699Y-862332D01*
G01X3611101Y-862332D01*
G01X3670079Y-1094715D02*
G01X3601110Y-1163683D01*
G01X3410480Y-1163683D01*
G01X2603721Y-921309D02*
G01X2603721Y-769841D01*
G01X2896883Y-1130120D02*
G01X2863320Y-1163683D01*
G54D11*
G01X3159646Y-1060743D02*
G01X3161906Y-1063003D01*
G01X3159646Y-1053282D02*
G01X3159646Y-1060743D01*
G01X3154794Y-1048429D02*
G01X3159646Y-1053282D01*
G01X3154794Y-996446D02*
G01X3154794Y-1048429D01*
G01X3138450Y-980103D02*
G01X3154794Y-996446D01*
G01X3085337Y-980103D02*
G01X3138450Y-980103D01*
G01X3068994Y-996446D02*
G01X3085337Y-980103D01*
G01X3068994Y-1055916D02*
G01X3068994Y-996446D01*
G01X3061907Y-1063003D02*
G01X3068994Y-1055916D01*
G01X3204806Y-1070090D02*
G01X3211894Y-1063003D01*
G01X3204806Y-1129559D02*
G01X3204806Y-1070090D01*
G01X3188463Y-1145903D02*
G01X3204806Y-1129559D01*
G01X3135350Y-1145903D02*
G01X3188463Y-1145903D01*
G01X3119006Y-1129559D02*
G01X3135350Y-1145903D01*
G01X3119006Y-1070115D02*
G01X3119006Y-1129559D01*
G01X3111894Y-1063003D02*
G01X3119006Y-1070115D01*
G01X3124381Y-1358900D02*
G01X3206090Y-1358900D01*
G01X3106420Y-1340939D02*
G01X3124381Y-1358900D01*
G01X3106420Y-1315539D02*
G01X3106420Y-1340939D01*
G01X3107220Y-1314739D02*
G01X3106420Y-1315539D01*
G01X3107220Y-1148076D02*
G01X3107220Y-1314739D01*
G01X3111894Y-1143403D02*
G01X3107220Y-1148076D01*
G01X3111894Y-1063003D02*
G01X3111894Y-1143403D01*
G01X3047819Y-1358900D02*
G01X2966110Y-1358900D01*
G01X3065780Y-1340939D02*
G01X3047819Y-1358900D01*
G01X3065780Y-1298706D02*
G01X3065780Y-1340939D01*
G01X3066580Y-1297906D02*
G01X3065780Y-1298706D01*
G01X3066580Y-1148076D02*
G01X3066580Y-1297906D01*
G01X3061907Y-1143403D02*
G01X3066580Y-1148076D01*
G01X3061907Y-1063003D02*
G01X3061907Y-1143403D01*
G01X3261881Y-1063003D02*
G01X3263900Y-1060983D01*
G01X3263900Y-965200D01*
G01X3281861Y-947239D01*
G01X3530600Y-1498600D02*
G01X3530600Y-1713636D01*
G01X3529736Y-1714500D01*
G01X2816898Y-1063003D02*
G01X2761907Y-1008012D01*
G01X2704402Y-1008012D01*
G01X3456902Y-1063003D02*
G01X3514408Y-1063003D01*
G01X3569399Y-1008012D01*
G01X2966110Y-1453896D02*
G01X2972461Y-1447546D01*
G01X2985160Y-1447546D01*
G01X2990251Y-1442456D01*
G01X2990369Y-1421122D01*
G01X2983901Y-1414654D01*
G01X2724283Y-1790891D02*
G01X2660974Y-1854200D01*
G01X2425700Y-1854200D01*
G01X2393100Y-1886800D01*
G01X2363117Y-2154075D02*
G01X2324100Y-2115058D01*
G01X2393100Y-1886800D02*
G01X2393100Y-2140800D01*
G01X2379825Y-2154075D01*
G01X2363117Y-2154075D01*
G01X2197101Y-2002683D02*
G01X2197100Y-2115058D01*
G01X2416523Y-1783261D02*
G01X2197101Y-2002683D01*
G01X2649039Y-1783261D02*
G01X2416523Y-1783261D01*
G01X2667000Y-1765300D02*
G01X2649039Y-1783261D01*
G01X2667000Y-1474114D02*
G01X2667000Y-1765300D01*
G01X2877210Y-1263904D02*
G01X2667000Y-1474114D01*
G01X2966110Y-1263904D02*
G01X2877210Y-1263904D01*
G01X2983901Y-1414654D02*
G01X2865246Y-1414654D01*
G01X2806700Y-1473200D01*
G01X2806700Y-1765491D01*
G01X2781300Y-1790891D01*
G01X2724283Y-1790891D01*
G01X3206090Y-1453896D02*
G01X3213100Y-1460906D01*
G01X3213100Y-1524000D01*
G01X3206090Y-1453896D02*
G01X3308096Y-1453896D01*
G01X3314700Y-1460500D01*
G01X3206090Y-1263904D02*
G01X3320796Y-1263904D01*
G01X3327400Y-1257300D01*
G01X2451100Y-2115058D02*
G01X2451100Y-2448408D01*
G01X2372208Y-2527300D01*
G01X2578100Y-2115058D02*
G01X2578100Y-2245208D01*
G01X2860192Y-2527300D01*
G01X2860192Y-2879395D01*
G01X2863698Y-2882900D01*
G01X2372208Y-2527300D02*
G01X2372208Y-2892095D01*
G01X2368702Y-2895600D01*
G04 Track End*

M02*

