G04 Layer: TopPasteMaskLayer*
G04 EasyEDA Pro v2.2.43.4, 2025-11-30 18:35:17*
G04 Gerber Generator version 0.3*
G04 Scale: 100 percent, Rotated: No, Reflected: No*
G04 Dimensions in millimeters*
G04 Leading zeros omitted, absolute positions, 4 integers and 5 decimals*
G04 Generated by custom config*
%FSLAX45Y45*%
%MOMM*%
%ADD10R,0.9X0.8*%
%ADD11R,1.2X0.55001*%
%ADD12O,0.60201X1.97099*%
%ADD13R,0.8X0.9*%
%ADD14C,0.8036*%
G75*


G04 PolygonModel Start*
G36*
G01X3334898Y-1759499D02*
G01X3414898Y-1759499D01*
G01X3419899Y-1754497D01*
G01X3419899Y-1731701D01*
G01X3382899Y-1731701D01*
G01X3382899Y-1698701D01*
G01X3419899Y-1698701D01*
G01X3419899Y-1674498D01*
G01X3414898Y-1669499D01*
G01X3334898Y-1669499D01*
G01X3329899Y-1674498D01*
G01X3329899Y-1754497D01*
G01X3334898Y-1759499D01*
G37*
G36*
G01X3573902Y-1669501D02*
G01X3493902Y-1669501D01*
G01X3488901Y-1674503D01*
G01X3488901Y-1697299D01*
G01X3525901Y-1697299D01*
G01X3525901Y-1730299D01*
G01X3488901Y-1730299D01*
G01X3488901Y-1754502D01*
G01X3493902Y-1759501D01*
G01X3573902Y-1759501D01*
G01X3578901Y-1754502D01*
G01X3578901Y-1674503D01*
G01X3573902Y-1669501D01*
G37*
G36*
G01X871098Y-1340399D02*
G01X951098Y-1340399D01*
G01X956099Y-1335397D01*
G01X956099Y-1312601D01*
G01X919099Y-1312601D01*
G01X919099Y-1279601D01*
G01X956099Y-1279601D01*
G01X956099Y-1255398D01*
G01X951098Y-1250399D01*
G01X871098Y-1250399D01*
G01X866099Y-1255398D01*
G01X866099Y-1335397D01*
G01X871098Y-1340399D01*
G37*
G36*
G01X1110102Y-1250401D02*
G01X1030102Y-1250401D01*
G01X1025101Y-1255403D01*
G01X1025101Y-1278199D01*
G01X1062101Y-1278199D01*
G01X1062101Y-1311199D01*
G01X1025101Y-1311199D01*
G01X1025101Y-1335402D01*
G01X1030102Y-1340401D01*
G01X1110102Y-1340401D01*
G01X1115101Y-1335402D01*
G01X1115101Y-1255403D01*
G01X1110102Y-1250401D01*
G37*
G36*
G01X1480099Y-2634102D02*
G01X1480099Y-2554102D01*
G01X1475097Y-2549101D01*
G01X1452301Y-2549101D01*
G01X1452301Y-2586101D01*
G01X1419301Y-2586101D01*
G01X1419301Y-2549101D01*
G01X1395098Y-2549101D01*
G01X1390099Y-2554102D01*
G01X1390099Y-2634102D01*
G01X1395098Y-2639101D01*
G01X1475097Y-2639101D01*
G01X1480099Y-2634102D01*
G37*
G36*
G01X1390101Y-2395098D02*
G01X1390101Y-2475098D01*
G01X1395103Y-2480099D01*
G01X1417899Y-2480099D01*
G01X1417899Y-2443099D01*
G01X1450899Y-2443099D01*
G01X1450899Y-2480099D01*
G01X1475102Y-2480099D01*
G01X1480101Y-2475098D01*
G01X1480101Y-2395098D01*
G01X1475102Y-2390099D01*
G01X1395103Y-2390099D01*
G01X1390101Y-2395098D01*
G37*
G36*
G01X2996893Y-1008004D02*
G01X2996893Y-1118004D01*
G01X3026895Y-1118004D01*
G01X3026895Y-1008004D01*
G01X2996893Y-1008004D01*
G37*
G36*
G01X2976883Y-1118004D02*
G01X2976883Y-1008004D01*
G01X2946880Y-1008004D01*
G01X2946880Y-1118004D01*
G01X2976883Y-1118004D01*
G37*
G36*
G01X3486902Y-1118004D02*
G01X3486902Y-1008004D01*
G01X3426902Y-1008004D01*
G01X3426902Y-1118004D01*
G01X3486902Y-1118004D01*
G37*
G36*
G01X3046905Y-1008004D02*
G01X3046905Y-1118004D01*
G01X3076908Y-1118004D01*
G01X3076908Y-1008004D01*
G01X3046905Y-1008004D01*
G37*
G36*
G01X2926883Y-1118004D02*
G01X2926883Y-1008004D01*
G01X2866883Y-1008004D01*
G01X2866883Y-1118004D01*
G01X2926883Y-1118004D01*
G37*
G36*
G01X2786898Y-1008004D02*
G01X2786898Y-1118004D01*
G01X2846898Y-1118004D01*
G01X2846898Y-1008004D01*
G01X2786898Y-1008004D01*
G37*
G36*
G01X3096892Y-1008004D02*
G01X3096892Y-1118004D01*
G01X3126895Y-1118004D01*
G01X3126895Y-1008004D01*
G01X3096892Y-1008004D01*
G37*
G36*
G01X3146905Y-1008004D02*
G01X3146905Y-1118004D01*
G01X3176908Y-1118004D01*
G01X3176908Y-1008004D01*
G01X3146905Y-1008004D01*
G37*
G36*
G01X3406892Y-1118004D02*
G01X3406892Y-1008004D01*
G01X3346892Y-1008004D01*
G01X3346892Y-1118004D01*
G01X3406892Y-1118004D01*
G37*
G36*
G01X3196892Y-1008004D02*
G01X3196892Y-1118004D01*
G01X3226895Y-1118004D01*
G01X3226895Y-1008004D01*
G01X3196892Y-1008004D01*
G37*
G36*
G01X3246879Y-1008004D02*
G01X3246879Y-1118004D01*
G01X3276882Y-1118004D01*
G01X3276882Y-1008004D01*
G01X3246879Y-1008004D01*
G37*
G36*
G01X3296892Y-1008004D02*
G01X3296892Y-1118004D01*
G01X3326895Y-1118004D01*
G01X3326895Y-1008004D01*
G01X3296892Y-1008004D01*
G37*
G36*
G01X2699918Y-1107844D02*
G01X2702905Y-1107994D01*
G01X2705898Y-1107994D01*
G01X2708885Y-1107844D01*
G01X2711861Y-1107547D01*
G01X2714821Y-1107100D01*
G01X2717752Y-1106508D01*
G01X2720652Y-1105769D01*
G01X2723510Y-1104887D01*
G01X2726322Y-1103864D01*
G01X2729078Y-1102703D01*
G01X2731775Y-1101405D01*
G01X2734401Y-1099972D01*
G01X2736954Y-1098413D01*
G01X2739426Y-1096729D01*
G01X2741811Y-1094920D01*
G01X2744102Y-1092998D01*
G01X2746296Y-1090963D01*
G01X2748384Y-1088822D01*
G01X2750365Y-1086579D01*
G01X2752230Y-1084240D01*
G01X2753975Y-1081811D01*
G01X2755598Y-1079297D01*
G01X2757094Y-1076706D01*
G01X2758460Y-1074044D01*
G01X2759690Y-1071319D01*
G01X2760782Y-1068532D01*
G01X2761737Y-1065698D01*
G01X2762547Y-1062817D01*
G01X2763213Y-1059901D01*
G01X2763731Y-1056955D01*
G01X2764104Y-1053986D01*
G01X2764328Y-1051001D01*
G01X2764401Y-1048012D01*
G01X2764401Y-968012D01*
G01X2764328Y-965022D01*
G01X2764104Y-962038D01*
G01X2763731Y-959068D01*
G01X2763213Y-956122D01*
G01X2762547Y-953206D01*
G01X2761737Y-950326D01*
G01X2760782Y-947491D01*
G01X2759690Y-944705D01*
G01X2758460Y-941979D01*
G01X2757094Y-939317D01*
G01X2755598Y-936727D01*
G01X2753975Y-934212D01*
G01X2752230Y-931784D01*
G01X2750365Y-929444D01*
G01X2748384Y-927202D01*
G01X2746296Y-925060D01*
G01X2744102Y-923026D01*
G01X2741811Y-921103D01*
G01X2739426Y-919295D01*
G01X2736954Y-917611D01*
G01X2734401Y-916051D01*
G01X2731775Y-914618D01*
G01X2729078Y-913320D01*
G01X2726322Y-912160D01*
G01X2723510Y-911136D01*
G01X2720652Y-910255D01*
G01X2717752Y-909516D01*
G01X2714821Y-908924D01*
G01X2711861Y-908477D01*
G01X2708885Y-908180D01*
G01X2705898Y-908030D01*
G01X2702905Y-908030D01*
G01X2699918Y-908180D01*
G01X2696942Y-908477D01*
G01X2693982Y-908924D01*
G01X2691051Y-909516D01*
G01X2688151Y-910255D01*
G01X2685293Y-911136D01*
G01X2682481Y-912160D01*
G01X2679725Y-913320D01*
G01X2677028Y-914618D01*
G01X2674402Y-916051D01*
G01X2671849Y-917611D01*
G01X2669377Y-919295D01*
G01X2666992Y-921103D01*
G01X2664701Y-923026D01*
G01X2662507Y-925060D01*
G01X2660419Y-927202D01*
G01X2658438Y-929444D01*
G01X2656573Y-931784D01*
G01X2654828Y-934212D01*
G01X2653205Y-936727D01*
G01X2651709Y-939317D01*
G01X2650343Y-941979D01*
G01X2649113Y-944705D01*
G01X2648021Y-947491D01*
G01X2647066Y-950326D01*
G01X2646256Y-953206D01*
G01X2645590Y-956122D01*
G01X2645072Y-959068D01*
G01X2644699Y-962038D01*
G01X2644475Y-965022D01*
G01X2644402Y-968012D01*
G01X2644402Y-1048012D01*
G01X2644475Y-1051001D01*
G01X2644699Y-1053986D01*
G01X2645072Y-1056955D01*
G01X2645590Y-1059901D01*
G01X2646256Y-1062817D01*
G01X2647066Y-1065698D01*
G01X2648021Y-1068532D01*
G01X2649113Y-1071319D01*
G01X2650343Y-1074044D01*
G01X2651709Y-1076706D01*
G01X2653205Y-1079297D01*
G01X2654828Y-1081811D01*
G01X2656573Y-1084240D01*
G01X2658438Y-1086579D01*
G01X2660419Y-1088822D01*
G01X2662507Y-1090963D01*
G01X2664701Y-1092998D01*
G01X2666992Y-1094920D01*
G01X2669377Y-1096729D01*
G01X2671849Y-1098413D01*
G01X2674402Y-1099972D01*
G01X2677028Y-1101405D01*
G01X2679725Y-1102703D01*
G01X2682481Y-1103864D01*
G01X2685293Y-1104887D01*
G01X2688151Y-1105769D01*
G01X2691051Y-1106508D01*
G01X2693982Y-1107100D01*
G01X2696942Y-1107547D01*
G01X2699918Y-1107844D01*
G37*
G36*
G01X3570895Y-1107994D02*
G01X3573882Y-1107844D01*
G01X3576858Y-1107547D01*
G01X3579818Y-1107100D01*
G01X3582749Y-1106508D01*
G01X3585649Y-1105769D01*
G01X3588507Y-1104887D01*
G01X3591319Y-1103864D01*
G01X3594075Y-1102703D01*
G01X3596772Y-1101405D01*
G01X3599398Y-1099972D01*
G01X3601951Y-1098413D01*
G01X3604423Y-1096729D01*
G01X3606808Y-1094920D01*
G01X3609099Y-1092998D01*
G01X3611293Y-1090963D01*
G01X3613381Y-1088822D01*
G01X3615362Y-1086579D01*
G01X3617227Y-1084240D01*
G01X3618972Y-1081811D01*
G01X3620595Y-1079297D01*
G01X3622091Y-1076706D01*
G01X3623457Y-1074044D01*
G01X3624687Y-1071319D01*
G01X3625779Y-1068532D01*
G01X3626734Y-1065698D01*
G01X3627544Y-1062817D01*
G01X3628210Y-1059901D01*
G01X3628728Y-1056955D01*
G01X3629101Y-1053986D01*
G01X3629325Y-1051001D01*
G01X3629398Y-1048012D01*
G01X3629398Y-968012D01*
G01X3629325Y-965022D01*
G01X3629101Y-962038D01*
G01X3628728Y-959068D01*
G01X3628210Y-956122D01*
G01X3627544Y-953206D01*
G01X3626734Y-950326D01*
G01X3625779Y-947491D01*
G01X3624687Y-944705D01*
G01X3623457Y-941979D01*
G01X3622091Y-939317D01*
G01X3620595Y-936727D01*
G01X3618972Y-934212D01*
G01X3617227Y-931784D01*
G01X3615362Y-929444D01*
G01X3613381Y-927202D01*
G01X3611293Y-925060D01*
G01X3609099Y-923026D01*
G01X3606808Y-921103D01*
G01X3604423Y-919295D01*
G01X3601951Y-917611D01*
G01X3599398Y-916051D01*
G01X3596772Y-914618D01*
G01X3594075Y-913320D01*
G01X3591319Y-912160D01*
G01X3588507Y-911136D01*
G01X3585649Y-910255D01*
G01X3582749Y-909516D01*
G01X3579818Y-908924D01*
G01X3576858Y-908477D01*
G01X3573882Y-908180D01*
G01X3570895Y-908030D01*
G01X3567902Y-908030D01*
G01X3564915Y-908180D01*
G01X3561939Y-908477D01*
G01X3558979Y-908924D01*
G01X3556048Y-909516D01*
G01X3553148Y-910255D01*
G01X3550290Y-911136D01*
G01X3547478Y-912160D01*
G01X3544722Y-913320D01*
G01X3542025Y-914618D01*
G01X3539399Y-916051D01*
G01X3536846Y-917611D01*
G01X3534374Y-919295D01*
G01X3531989Y-921103D01*
G01X3529698Y-923026D01*
G01X3527504Y-925060D01*
G01X3525416Y-927202D01*
G01X3523435Y-929444D01*
G01X3521570Y-931784D01*
G01X3519825Y-934212D01*
G01X3518202Y-936727D01*
G01X3516706Y-939317D01*
G01X3515340Y-941979D01*
G01X3514110Y-944705D01*
G01X3513018Y-947491D01*
G01X3512063Y-950326D01*
G01X3511253Y-953206D01*
G01X3510587Y-956122D01*
G01X3510069Y-959068D01*
G01X3509696Y-962038D01*
G01X3509472Y-965022D01*
G01X3509399Y-968012D01*
G01X3509399Y-1048012D01*
G01X3509472Y-1051001D01*
G01X3509696Y-1053986D01*
G01X3510069Y-1056955D01*
G01X3510587Y-1059901D01*
G01X3511253Y-1062817D01*
G01X3512063Y-1065698D01*
G01X3513018Y-1068532D01*
G01X3514110Y-1071319D01*
G01X3515340Y-1074044D01*
G01X3516706Y-1076706D01*
G01X3518202Y-1079297D01*
G01X3519825Y-1081811D01*
G01X3521570Y-1084240D01*
G01X3523435Y-1086579D01*
G01X3525416Y-1088822D01*
G01X3527504Y-1090963D01*
G01X3529698Y-1092998D01*
G01X3531989Y-1094920D01*
G01X3534374Y-1096729D01*
G01X3536846Y-1098413D01*
G01X3539399Y-1099972D01*
G01X3542025Y-1101405D01*
G01X3544722Y-1102703D01*
G01X3547478Y-1103864D01*
G01X3550290Y-1104887D01*
G01X3553148Y-1105769D01*
G01X3556048Y-1106508D01*
G01X3558979Y-1107100D01*
G01X3561939Y-1107547D01*
G01X3564915Y-1107844D01*
G01X3567902Y-1107994D01*
G01X3570895Y-1107994D01*
G37*
G36*
G01X3564915Y-662828D02*
G01X3567902Y-662978D01*
G01X3570895Y-662978D01*
G01X3573882Y-662828D01*
G01X3576858Y-662531D01*
G01X3579818Y-662084D01*
G01X3582749Y-661492D01*
G01X3585649Y-660753D01*
G01X3588507Y-659872D01*
G01X3591319Y-658848D01*
G01X3594075Y-657687D01*
G01X3596772Y-656389D01*
G01X3599398Y-654957D01*
G01X3601951Y-653397D01*
G01X3604423Y-651713D01*
G01X3606808Y-649905D01*
G01X3609099Y-647982D01*
G01X3611293Y-645947D01*
G01X3613381Y-643806D01*
G01X3615362Y-641563D01*
G01X3617227Y-639224D01*
G01X3618972Y-636796D01*
G01X3620595Y-634281D01*
G01X3622091Y-631690D01*
G01X3623457Y-629028D01*
G01X3624687Y-626303D01*
G01X3625779Y-623517D01*
G01X3626734Y-620682D01*
G01X3627544Y-617802D01*
G01X3628210Y-614886D01*
G01X3628728Y-611939D01*
G01X3629101Y-608970D01*
G01X3629325Y-605986D01*
G01X3629398Y-602996D01*
G01X3629398Y-572996D01*
G01X3629325Y-570006D01*
G01X3629101Y-567022D01*
G01X3628728Y-564053D01*
G01X3628210Y-561106D01*
G01X3627544Y-558190D01*
G01X3626734Y-555310D01*
G01X3625779Y-552475D01*
G01X3624687Y-549689D01*
G01X3623457Y-546964D01*
G01X3622091Y-544302D01*
G01X3620595Y-541711D01*
G01X3618972Y-539196D01*
G01X3617227Y-536768D01*
G01X3615362Y-534429D01*
G01X3613381Y-532186D01*
G01X3611293Y-530045D01*
G01X3609099Y-528010D01*
G01X3606808Y-526087D01*
G01X3604423Y-524279D01*
G01X3601951Y-522595D01*
G01X3599398Y-521035D01*
G01X3596772Y-519603D01*
G01X3594075Y-518305D01*
G01X3591319Y-517144D01*
G01X3588507Y-516120D01*
G01X3585649Y-515239D01*
G01X3582749Y-514500D01*
G01X3579818Y-513908D01*
G01X3576858Y-513461D01*
G01X3573882Y-513164D01*
G01X3570895Y-513014D01*
G01X3567902Y-513014D01*
G01X3564915Y-513164D01*
G01X3561939Y-513461D01*
G01X3558979Y-513908D01*
G01X3556048Y-514500D01*
G01X3553148Y-515239D01*
G01X3550290Y-516120D01*
G01X3547478Y-517144D01*
G01X3544722Y-518305D01*
G01X3542025Y-519603D01*
G01X3539399Y-521035D01*
G01X3536846Y-522595D01*
G01X3534374Y-524279D01*
G01X3531989Y-526087D01*
G01X3529698Y-528010D01*
G01X3527504Y-530045D01*
G01X3525416Y-532186D01*
G01X3523435Y-534429D01*
G01X3521570Y-536768D01*
G01X3519825Y-539196D01*
G01X3518202Y-541711D01*
G01X3516706Y-544302D01*
G01X3515340Y-546964D01*
G01X3514110Y-549689D01*
G01X3513018Y-552475D01*
G01X3512063Y-555310D01*
G01X3511253Y-558190D01*
G01X3510587Y-561106D01*
G01X3510069Y-564053D01*
G01X3509696Y-567022D01*
G01X3509472Y-570006D01*
G01X3509399Y-572996D01*
G01X3509399Y-602996D01*
G01X3509472Y-605986D01*
G01X3509696Y-608970D01*
G01X3510069Y-611939D01*
G01X3510587Y-614886D01*
G01X3511253Y-617802D01*
G01X3512063Y-620682D01*
G01X3513018Y-623517D01*
G01X3514110Y-626303D01*
G01X3515340Y-629028D01*
G01X3516706Y-631690D01*
G01X3518202Y-634281D01*
G01X3519825Y-636796D01*
G01X3521570Y-639224D01*
G01X3523435Y-641563D01*
G01X3525416Y-643806D01*
G01X3527504Y-645947D01*
G01X3529698Y-647982D01*
G01X3531989Y-649905D01*
G01X3534374Y-651713D01*
G01X3536846Y-653397D01*
G01X3539399Y-654957D01*
G01X3542025Y-656389D01*
G01X3544722Y-657687D01*
G01X3547478Y-658848D01*
G01X3550290Y-659872D01*
G01X3553148Y-660753D01*
G01X3556048Y-661492D01*
G01X3558979Y-662084D01*
G01X3561939Y-662531D01*
G01X3564915Y-662828D01*
G37*
G36*
G01X2705898Y-662978D02*
G01X2708885Y-662828D01*
G01X2711861Y-662531D01*
G01X2714821Y-662084D01*
G01X2717752Y-661492D01*
G01X2720652Y-660753D01*
G01X2723510Y-659872D01*
G01X2726322Y-658848D01*
G01X2729078Y-657687D01*
G01X2731775Y-656389D01*
G01X2734401Y-654957D01*
G01X2736954Y-653397D01*
G01X2739426Y-651713D01*
G01X2741811Y-649905D01*
G01X2744102Y-647982D01*
G01X2746296Y-645947D01*
G01X2748384Y-643806D01*
G01X2750365Y-641563D01*
G01X2752230Y-639224D01*
G01X2753975Y-636796D01*
G01X2755598Y-634281D01*
G01X2757094Y-631690D01*
G01X2758460Y-629028D01*
G01X2759690Y-626303D01*
G01X2760782Y-623517D01*
G01X2761737Y-620682D01*
G01X2762547Y-617802D01*
G01X2763213Y-614886D01*
G01X2763731Y-611939D01*
G01X2764104Y-608970D01*
G01X2764328Y-605986D01*
G01X2764401Y-602996D01*
G01X2764401Y-572996D01*
G01X2764328Y-570006D01*
G01X2764104Y-567022D01*
G01X2763731Y-564053D01*
G01X2763213Y-561106D01*
G01X2762547Y-558190D01*
G01X2761737Y-555310D01*
G01X2760782Y-552475D01*
G01X2759690Y-549689D01*
G01X2758460Y-546964D01*
G01X2757094Y-544302D01*
G01X2755598Y-541711D01*
G01X2753975Y-539196D01*
G01X2752230Y-536768D01*
G01X2750365Y-534429D01*
G01X2748384Y-532186D01*
G01X2746296Y-530045D01*
G01X2744102Y-528010D01*
G01X2741811Y-526087D01*
G01X2739426Y-524279D01*
G01X2736954Y-522595D01*
G01X2734401Y-521035D01*
G01X2731775Y-519603D01*
G01X2729078Y-518305D01*
G01X2726322Y-517144D01*
G01X2723510Y-516120D01*
G01X2720652Y-515239D01*
G01X2717752Y-514500D01*
G01X2714821Y-513908D01*
G01X2711861Y-513461D01*
G01X2708885Y-513164D01*
G01X2705898Y-513014D01*
G01X2702905Y-513014D01*
G01X2699918Y-513164D01*
G01X2696942Y-513461D01*
G01X2693982Y-513908D01*
G01X2691051Y-514500D01*
G01X2688151Y-515239D01*
G01X2685293Y-516120D01*
G01X2682481Y-517144D01*
G01X2679725Y-518305D01*
G01X2677028Y-519603D01*
G01X2674402Y-521035D01*
G01X2671849Y-522595D01*
G01X2669377Y-524279D01*
G01X2666992Y-526087D01*
G01X2664701Y-528010D01*
G01X2662507Y-530045D01*
G01X2660419Y-532186D01*
G01X2658438Y-534429D01*
G01X2656573Y-536768D01*
G01X2654828Y-539196D01*
G01X2653205Y-541711D01*
G01X2651709Y-544302D01*
G01X2650343Y-546964D01*
G01X2649113Y-549689D01*
G01X2648021Y-552475D01*
G01X2647066Y-555310D01*
G01X2646256Y-558190D01*
G01X2645590Y-561106D01*
G01X2645072Y-564053D01*
G01X2644699Y-567022D01*
G01X2644475Y-570006D01*
G01X2644402Y-572996D01*
G01X2644402Y-602996D01*
G01X2644475Y-605986D01*
G01X2644699Y-608970D01*
G01X2645072Y-611939D01*
G01X2645590Y-614886D01*
G01X2646256Y-617802D01*
G01X2647066Y-620682D01*
G01X2648021Y-623517D01*
G01X2649113Y-626303D01*
G01X2650343Y-629028D01*
G01X2651709Y-631690D01*
G01X2653205Y-634281D01*
G01X2654828Y-636796D01*
G01X2656573Y-639224D01*
G01X2658438Y-641563D01*
G01X2660419Y-643806D01*
G01X2662507Y-645947D01*
G01X2664701Y-647982D01*
G01X2666992Y-649905D01*
G01X2669377Y-651713D01*
G01X2671849Y-653397D01*
G01X2674402Y-654957D01*
G01X2677028Y-656389D01*
G01X2679725Y-657687D01*
G01X2682481Y-658848D01*
G01X2685293Y-659872D01*
G01X2688151Y-660753D01*
G01X2691051Y-661492D01*
G01X2693982Y-662084D01*
G01X2696942Y-662531D01*
G01X2699918Y-662828D01*
G01X2702905Y-662978D01*
G01X2705898Y-662978D01*
G37*

G04 Pad Start*
G54D10*
G01X1460500Y-1161898D03*
G01X1460500Y-1301902D03*
G01X1790700Y-2444598D03*
G01X1790700Y-2584602D03*
G54D11*
G01X3206090Y-1358900D03*
G01X2966110Y-1263904D03*
G01X2966110Y-1358900D03*
G01X2966110Y-1453896D03*
G01X3206090Y-1453896D03*
G01X3206090Y-1263904D03*
G54D12*
G01X1689100Y-2115058D03*
G01X1816100Y-2115058D03*
G01X1943100Y-2115058D03*
G01X2070100Y-2115058D03*
G01X2197100Y-2115058D03*
G01X2324100Y-2115058D03*
G01X2451100Y-2115058D03*
G01X2578100Y-2115058D03*
G01X1689100Y-1567942D03*
G01X1816100Y-1567942D03*
G01X1943100Y-1567942D03*
G01X2070100Y-1567942D03*
G01X2197100Y-1567942D03*
G01X2324100Y-1567942D03*
G01X2451100Y-1567942D03*
G01X2578100Y-1567942D03*
G54D10*
G01X1244600Y-1580998D03*
G01X1244600Y-1721002D03*
G54D13*
G01X2368702Y-2895600D03*
G01X2228698Y-2895600D03*
G01X2863698Y-2882900D03*
G01X3003702Y-2882900D03*
G04 Pad End*

M02*

