G04 Layer: BottomLayer*
G04 EasyEDA Pro v2.2.43.4, 2025-11-30 18:38:01*
G04 Gerber Generator version 0.3*
G04 Scale: 100 percent, Rotated: No, Reflected: No*
G04 Dimensions in millimeters*
G04 Leading zeros omitted, absolute positions, 4 integers and 5 decimals*
G04 Generated by custom config*
%FSLAX45Y45*%
%MOMM*%
%ADD10C,0.2032*%
%ADD11C,0.254*%
%ADD12C,1.6*%
%ADD13R,1.21158X1.21158*%
%ADD14R,1.5X1.5*%
%ADD15C,1.5*%
%ADD16O,1.1054X1.9*%
%ADD17O,1.1X1.9*%
G75*


G04 Copper Start*
G36*
G01X4939840Y-250000D02*
G01X4939840Y-3750000D01*
G01X4937908Y-3777017D01*
G01X4932150Y-3803484D01*
G01X4922685Y-3828862D01*
G01X4909704Y-3852635D01*
G01X4893471Y-3874319D01*
G01X4874319Y-3893471D01*
G01X4852635Y-3909704D01*
G01X4828862Y-3922685D01*
G01X4803484Y-3932150D01*
G01X4777017Y-3937908D01*
G01X4750000Y-3939840D01*
G01X250000Y-3939840D01*
G01X222983Y-3937908D01*
G01X196516Y-3932150D01*
G01X171138Y-3922685D01*
G01X147365Y-3909704D01*
G01X125681Y-3893471D01*
G01X106528Y-3874319D01*
G01X90296Y-3852635D01*
G01X77315Y-3828862D01*
G01X67850Y-3803484D01*
G01X62092Y-3777017D01*
G01X60160Y-3750000D01*
G01X60160Y-3011917D01*
G01X1970264Y-3011917D01*
G01X1970264Y-3033288D01*
G01X1974191Y-3054297D01*
G01X1981912Y-3074225D01*
G01X1993162Y-3092396D01*
G01X2007561Y-3108190D01*
G01X2024616Y-3121069D01*
G01X2043747Y-3130596D01*
G01X2064303Y-3136444D01*
G01X2085584Y-3138416D01*
G01X2106865Y-3136444D01*
G01X2127421Y-3130596D01*
G01X2146552Y-3121069D01*
G01X2163607Y-3108190D01*
G01X2178005Y-3092396D01*
G01X2189256Y-3074225D01*
G01X2196977Y-3054297D01*
G01X2200904Y-3033288D01*
G01X2200904Y-3011917D01*
G01X2200904Y-3011917D01*
G01X2320276Y-3011917D01*
G01X2320276Y-3033288D01*
G01X2324203Y-3054297D01*
G01X2331924Y-3074225D01*
G01X2343174Y-3092396D01*
G01X2357573Y-3108190D01*
G01X2374628Y-3121069D01*
G01X2393759Y-3130596D01*
G01X2414315Y-3136444D01*
G01X2435596Y-3138416D01*
G01X2456877Y-3136444D01*
G01X2477433Y-3130596D01*
G01X2496564Y-3121069D01*
G01X2513619Y-3108190D01*
G01X2528017Y-3092396D01*
G01X2539268Y-3074225D01*
G01X2546989Y-3054297D01*
G01X2550916Y-3033288D01*
G01X2550916Y-3011917D01*
G01X2546989Y-2990909D01*
G01X2539268Y-2970980D01*
G01X2528017Y-2952809D01*
G01X2513619Y-2937015D01*
G01X2496564Y-2924136D01*
G01X2477433Y-2914609D01*
G01X2456877Y-2908761D01*
G01X2435596Y-2906789D01*
G01X2435596Y-2906789D01*
G01X2414315Y-2908761D01*
G01X2393759Y-2914609D01*
G01X2374628Y-2924136D01*
G01X2357573Y-2937015D01*
G01X2343174Y-2952809D01*
G01X2331924Y-2970980D01*
G01X2324203Y-2990909D01*
G01X2320276Y-3011917D01*
G01X2200904Y-3011917D01*
G01X2196977Y-2990909D01*
G01X2189256Y-2970980D01*
G01X2178005Y-2952809D01*
G01X2163607Y-2937015D01*
G01X2146552Y-2924136D01*
G01X2127421Y-2914609D01*
G01X2106865Y-2908761D01*
G01X2085584Y-2906789D01*
G01X2085584Y-2906789D01*
G01X2064303Y-2908761D01*
G01X2043747Y-2914609D01*
G01X2024616Y-2924136D01*
G01X2007561Y-2937015D01*
G01X1993162Y-2952809D01*
G01X1981912Y-2970980D01*
G01X1974191Y-2990909D01*
G01X1970264Y-3011917D01*
G01X60160Y-3011917D01*
G01X60160Y-2207016D01*
G01X481089Y-2207016D01*
G01X483061Y-2228297D01*
G01X488909Y-2248853D01*
G01X498436Y-2267984D01*
G01X511315Y-2285039D01*
G01X527109Y-2299438D01*
G01X545280Y-2310688D01*
G01X565209Y-2318409D01*
G01X586217Y-2322336D01*
G01X607588Y-2322336D01*
G01X628597Y-2318409D01*
G01X648525Y-2310688D01*
G01X666696Y-2299438D01*
G01X682490Y-2285039D01*
G01X695369Y-2267984D01*
G01X704896Y-2248853D01*
G01X710744Y-2228297D01*
G01X712716Y-2207016D01*
G01X710744Y-2185735D01*
G01X704896Y-2165179D01*
G01X695369Y-2146048D01*
G01X682490Y-2128993D01*
G01X666696Y-2114595D01*
G01X648525Y-2103344D01*
G01X631376Y-2096700D01*
G01X2073586Y-2096700D01*
G01X2073586Y-2246700D01*
G01X2075339Y-2257767D01*
G01X2080426Y-2267751D01*
G01X2088349Y-2275674D01*
G01X2098333Y-2280761D01*
G01X2109400Y-2282514D01*
G01X2259400Y-2282514D01*
G01X2259400Y-2282514D01*
G01X2270467Y-2280761D01*
G01X2280451Y-2275674D01*
G01X2288374Y-2267751D01*
G01X2293461Y-2257767D01*
G01X2295214Y-2246700D01*
G01X2295214Y-2161475D01*
G01X2328059Y-2161475D01*
G01X2328059Y-2181925D01*
G01X2331816Y-2202026D01*
G01X2339204Y-2221094D01*
G01X2349969Y-2238480D01*
G01X2363745Y-2253592D01*
G01X2380064Y-2265916D01*
G01X2398369Y-2275031D01*
G01X2418038Y-2280627D01*
G01X2438400Y-2282514D01*
G01X2438400Y-2282514D01*
G01X2458762Y-2280627D01*
G01X2478431Y-2275031D01*
G01X2496736Y-2265916D01*
G01X2513055Y-2253592D01*
G01X2526831Y-2238480D01*
G01X2537596Y-2221094D01*
G01X2544984Y-2202026D01*
G01X2548741Y-2181925D01*
G01X2548741Y-2161475D01*
G01X2548741Y-2161475D01*
G01X2582059Y-2161475D01*
G01X2582059Y-2181925D01*
G01X2585816Y-2202026D01*
G01X2593204Y-2221094D01*
G01X2603969Y-2238480D01*
G01X2617745Y-2253592D01*
G01X2634064Y-2265916D01*
G01X2652369Y-2275031D01*
G01X2672038Y-2280627D01*
G01X2692400Y-2282514D01*
G01X2692400Y-2282514D01*
G01X2712762Y-2280627D01*
G01X2732431Y-2275031D01*
G01X2750736Y-2265916D01*
G01X2767055Y-2253592D01*
G01X2780831Y-2238480D01*
G01X2791596Y-2221094D01*
G01X2798984Y-2202026D01*
G01X2802741Y-2181925D01*
G01X2802741Y-2161475D01*
G01X2802741Y-2161475D01*
G01X2836059Y-2161475D01*
G01X2836059Y-2181925D01*
G01X2839816Y-2202026D01*
G01X2847204Y-2221094D01*
G01X2857969Y-2238480D01*
G01X2871745Y-2253592D01*
G01X2888064Y-2265916D01*
G01X2906369Y-2275031D01*
G01X2926038Y-2280627D01*
G01X2946400Y-2282514D01*
G01X2946400Y-2282514D01*
G01X2966762Y-2280627D01*
G01X2986431Y-2275031D01*
G01X3004736Y-2265916D01*
G01X3021055Y-2253592D01*
G01X3034831Y-2238480D01*
G01X3045596Y-2221094D01*
G01X3052984Y-2202026D01*
G01X3056741Y-2181925D01*
G01X3056741Y-2161475D01*
G01X3052984Y-2141374D01*
G01X3045596Y-2122306D01*
G01X3034831Y-2104920D01*
G01X3021055Y-2089808D01*
G01X3004736Y-2077484D01*
G01X2986431Y-2068369D01*
G01X2966762Y-2062773D01*
G01X2946400Y-2060886D01*
G01X2926038Y-2062773D01*
G01X2906369Y-2068369D01*
G01X2888064Y-2077484D01*
G01X2871745Y-2089808D01*
G01X2857969Y-2104920D01*
G01X2847204Y-2122306D01*
G01X2839816Y-2141374D01*
G01X2836059Y-2161475D01*
G01X2802741Y-2161475D01*
G01X2798984Y-2141374D01*
G01X2791596Y-2122306D01*
G01X2780831Y-2104920D01*
G01X2767055Y-2089808D01*
G01X2750736Y-2077484D01*
G01X2732431Y-2068369D01*
G01X2712762Y-2062773D01*
G01X2692400Y-2060886D01*
G01X2672038Y-2062773D01*
G01X2652369Y-2068369D01*
G01X2634064Y-2077484D01*
G01X2617745Y-2089808D01*
G01X2603969Y-2104920D01*
G01X2593204Y-2122306D01*
G01X2585816Y-2141374D01*
G01X2582059Y-2161475D01*
G01X2548741Y-2161475D01*
G01X2544984Y-2141374D01*
G01X2537596Y-2122306D01*
G01X2526831Y-2104920D01*
G01X2513055Y-2089808D01*
G01X2496736Y-2077484D01*
G01X2478431Y-2068369D01*
G01X2458762Y-2062773D01*
G01X2438400Y-2060886D01*
G01X2418038Y-2062773D01*
G01X2398369Y-2068369D01*
G01X2380064Y-2077484D01*
G01X2363745Y-2089808D01*
G01X2349969Y-2104920D01*
G01X2339204Y-2122306D01*
G01X2331816Y-2141374D01*
G01X2328059Y-2161475D01*
G01X2295214Y-2161475D01*
G01X2295214Y-2096700D01*
G01X2293461Y-2085633D01*
G01X2288374Y-2075649D01*
G01X2280451Y-2067726D01*
G01X2270467Y-2062639D01*
G01X2259400Y-2060886D01*
G01X2109400Y-2060886D01*
G01X2098333Y-2062639D01*
G01X2088349Y-2067726D01*
G01X2080426Y-2075649D01*
G01X2075339Y-2085633D01*
G01X2073586Y-2096700D01*
G01X631376Y-2096700D01*
G01X628597Y-2095623D01*
G01X607588Y-2091696D01*
G01X586217Y-2091696D01*
G01X565209Y-2095623D01*
G01X545280Y-2103344D01*
G01X527109Y-2114595D01*
G01X511315Y-2128993D01*
G01X498436Y-2146048D01*
G01X488909Y-2165179D01*
G01X483061Y-2185735D01*
G01X481089Y-2207016D01*
G01X481089Y-2207016D01*
G01X60160Y-2207016D01*
G01X60160Y-1857004D01*
G01X481089Y-1857004D01*
G01X483061Y-1878285D01*
G01X488909Y-1898841D01*
G01X498436Y-1917972D01*
G01X511315Y-1935027D01*
G01X527109Y-1949426D01*
G01X545280Y-1960676D01*
G01X565209Y-1968397D01*
G01X586217Y-1972324D01*
G01X607588Y-1972324D01*
G01X628597Y-1968397D01*
G01X648525Y-1960676D01*
G01X666696Y-1949426D01*
G01X682490Y-1935027D01*
G01X695369Y-1917972D01*
G01X704896Y-1898841D01*
G01X710744Y-1878285D01*
G01X712716Y-1857004D01*
G01X710744Y-1835723D01*
G01X704896Y-1815167D01*
G01X695369Y-1796036D01*
G01X682490Y-1778981D01*
G01X666696Y-1764583D01*
G01X648525Y-1753332D01*
G01X628597Y-1745611D01*
G01X607588Y-1741684D01*
G01X586217Y-1741684D01*
G01X565209Y-1745611D01*
G01X545280Y-1753332D01*
G01X527109Y-1764583D01*
G01X511315Y-1778981D01*
G01X498436Y-1796036D01*
G01X488909Y-1815167D01*
G01X483061Y-1835723D01*
G01X481089Y-1857004D01*
G01X481089Y-1857004D01*
G01X60160Y-1857004D01*
G01X60160Y-1539621D01*
G01X4247007Y-1539621D01*
G01X4247007Y-1660779D01*
G01X4248760Y-1671846D01*
G01X4253847Y-1681830D01*
G01X4261770Y-1689753D01*
G01X4271754Y-1694840D01*
G01X4282821Y-1696593D01*
G01X4403979Y-1696593D01*
G01X4415046Y-1694840D01*
G01X4425030Y-1689753D01*
G01X4432953Y-1681830D01*
G01X4438040Y-1671846D01*
G01X4439793Y-1660779D01*
G01X4439793Y-1539621D01*
G01X4439793Y-1539621D01*
G01X4438040Y-1528554D01*
G01X4432953Y-1518570D01*
G01X4425030Y-1510647D01*
G01X4415046Y-1505560D01*
G01X4403979Y-1503807D01*
G01X4282821Y-1503807D01*
G01X4271754Y-1505560D01*
G01X4261770Y-1510647D01*
G01X4253847Y-1518570D01*
G01X4248760Y-1528554D01*
G01X4247007Y-1539621D01*
G01X60160Y-1539621D01*
G01X60160Y-1399475D01*
G01X2074059Y-1399475D01*
G01X2074059Y-1419925D01*
G01X2077816Y-1440026D01*
G01X2085204Y-1459094D01*
G01X2095969Y-1476480D01*
G01X2109745Y-1491592D01*
G01X2126064Y-1503916D01*
G01X2144369Y-1513031D01*
G01X2164038Y-1518627D01*
G01X2184400Y-1520514D01*
G01X2184400Y-1520514D01*
G01X2204762Y-1518627D01*
G01X2224431Y-1513031D01*
G01X2242736Y-1503916D01*
G01X2259055Y-1491592D01*
G01X2272831Y-1476480D01*
G01X2283596Y-1459094D01*
G01X2290984Y-1440026D01*
G01X2294741Y-1419925D01*
G01X2294741Y-1399475D01*
G01X2294741Y-1399475D01*
G01X2328059Y-1399475D01*
G01X2328059Y-1419925D01*
G01X2331816Y-1440026D01*
G01X2339204Y-1459094D01*
G01X2349969Y-1476480D01*
G01X2363745Y-1491592D01*
G01X2380064Y-1503916D01*
G01X2398369Y-1513031D01*
G01X2418038Y-1518627D01*
G01X2438400Y-1520514D01*
G01X2438400Y-1520514D01*
G01X2458762Y-1518627D01*
G01X2478431Y-1513031D01*
G01X2496736Y-1503916D01*
G01X2513055Y-1491592D01*
G01X2526831Y-1476480D01*
G01X2537596Y-1459094D01*
G01X2544984Y-1440026D01*
G01X2548741Y-1419925D01*
G01X2548741Y-1399475D01*
G01X2548741Y-1399475D01*
G01X2582059Y-1399475D01*
G01X2582059Y-1419925D01*
G01X2585816Y-1440026D01*
G01X2593204Y-1459094D01*
G01X2603969Y-1476480D01*
G01X2617745Y-1491592D01*
G01X2634064Y-1503916D01*
G01X2652369Y-1513031D01*
G01X2672038Y-1518627D01*
G01X2692400Y-1520514D01*
G01X2692400Y-1520514D01*
G01X2712762Y-1518627D01*
G01X2732431Y-1513031D01*
G01X2750736Y-1503916D01*
G01X2767055Y-1491592D01*
G01X2780831Y-1476480D01*
G01X2791596Y-1459094D01*
G01X2798984Y-1440026D01*
G01X2802741Y-1419925D01*
G01X2802741Y-1399475D01*
G01X2802741Y-1399475D01*
G01X2836059Y-1399475D01*
G01X2836059Y-1419925D01*
G01X2839816Y-1440026D01*
G01X2847204Y-1459094D01*
G01X2857969Y-1476480D01*
G01X2871745Y-1491592D01*
G01X2888064Y-1503916D01*
G01X2906369Y-1513031D01*
G01X2926038Y-1518627D01*
G01X2946400Y-1520514D01*
G01X2946400Y-1520514D01*
G01X2966762Y-1518627D01*
G01X2986431Y-1513031D01*
G01X3004736Y-1503916D01*
G01X3021055Y-1491592D01*
G01X3034831Y-1476480D01*
G01X3045596Y-1459094D01*
G01X3052984Y-1440026D01*
G01X3056741Y-1419925D01*
G01X3056741Y-1399475D01*
G01X3052984Y-1379374D01*
G01X3045596Y-1360306D01*
G01X3034831Y-1342920D01*
G01X3021055Y-1327808D01*
G01X3004736Y-1315484D01*
G01X2986431Y-1306369D01*
G01X2966762Y-1300773D01*
G01X2946400Y-1298886D01*
G01X2926038Y-1300773D01*
G01X2906369Y-1306369D01*
G01X2888064Y-1315484D01*
G01X2871745Y-1327808D01*
G01X2857969Y-1342920D01*
G01X2847204Y-1360306D01*
G01X2839816Y-1379374D01*
G01X2836059Y-1399475D01*
G01X2802741Y-1399475D01*
G01X2798984Y-1379374D01*
G01X2791596Y-1360306D01*
G01X2780831Y-1342920D01*
G01X2767055Y-1327808D01*
G01X2750736Y-1315484D01*
G01X2732431Y-1306369D01*
G01X2712762Y-1300773D01*
G01X2692400Y-1298886D01*
G01X2672038Y-1300773D01*
G01X2652369Y-1306369D01*
G01X2634064Y-1315484D01*
G01X2617745Y-1327808D01*
G01X2603969Y-1342920D01*
G01X2593204Y-1360306D01*
G01X2585816Y-1379374D01*
G01X2582059Y-1399475D01*
G01X2548741Y-1399475D01*
G01X2544984Y-1379374D01*
G01X2537596Y-1360306D01*
G01X2526831Y-1342920D01*
G01X2513055Y-1327808D01*
G01X2496736Y-1315484D01*
G01X2478431Y-1306369D01*
G01X2458762Y-1300773D01*
G01X2438400Y-1298886D01*
G01X2418038Y-1300773D01*
G01X2398369Y-1306369D01*
G01X2380064Y-1315484D01*
G01X2363745Y-1327808D01*
G01X2349969Y-1342920D01*
G01X2339204Y-1360306D01*
G01X2331816Y-1379374D01*
G01X2328059Y-1399475D01*
G01X2294741Y-1399475D01*
G01X2290984Y-1379374D01*
G01X2283596Y-1360306D01*
G01X2272831Y-1342920D01*
G01X2259055Y-1327808D01*
G01X2242736Y-1315484D01*
G01X2224431Y-1306369D01*
G01X2204762Y-1300773D01*
G01X2184400Y-1298886D01*
G01X2164038Y-1300773D01*
G01X2144369Y-1306369D01*
G01X2126064Y-1315484D01*
G01X2109745Y-1327808D01*
G01X2095969Y-1342920D01*
G01X2085204Y-1360306D01*
G01X2077816Y-1379374D01*
G01X2074059Y-1399475D01*
G01X60160Y-1399475D01*
G01X60160Y-1285621D01*
G01X4247007Y-1285621D01*
G01X4247007Y-1406779D01*
G01X4248760Y-1417846D01*
G01X4253847Y-1427830D01*
G01X4261770Y-1435753D01*
G01X4271754Y-1440840D01*
G01X4282821Y-1442593D01*
G01X4403979Y-1442593D01*
G01X4415046Y-1440840D01*
G01X4425030Y-1435753D01*
G01X4432953Y-1427830D01*
G01X4438040Y-1417846D01*
G01X4439793Y-1406779D01*
G01X4439793Y-1285621D01*
G01X4439793Y-1285621D01*
G01X4438040Y-1274554D01*
G01X4432953Y-1264570D01*
G01X4425030Y-1256647D01*
G01X4415046Y-1251560D01*
G01X4403979Y-1249807D01*
G01X4282821Y-1249807D01*
G01X4271754Y-1251560D01*
G01X4261770Y-1256647D01*
G01X4253847Y-1264570D01*
G01X4248760Y-1274554D01*
G01X4247007Y-1285621D01*
G01X60160Y-1285621D01*
G01X60160Y-861408D01*
G01X264596Y-861408D01*
G01X264596Y-941408D01*
G01X266580Y-960289D01*
G01X272447Y-978345D01*
G01X281940Y-994787D01*
G01X294643Y-1008896D01*
G01X310003Y-1020055D01*
G01X327346Y-1027777D01*
G01X345917Y-1031724D01*
G01X364902Y-1031724D01*
G01X383473Y-1027777D01*
G01X400816Y-1020055D01*
G01X416176Y-1008896D01*
G01X428879Y-994787D01*
G01X438372Y-978345D01*
G01X444239Y-960289D01*
G01X446223Y-941408D01*
G01X446223Y-941408D01*
G01X446223Y-861408D01*
G01X1128577Y-861408D01*
G01X1128577Y-941408D01*
G01X1130561Y-960289D01*
G01X1136428Y-978345D01*
G01X1145921Y-994787D01*
G01X1158624Y-1008896D01*
G01X1173984Y-1020055D01*
G01X1191327Y-1027777D01*
G01X1209898Y-1031724D01*
G01X1228883Y-1031724D01*
G01X1247454Y-1027777D01*
G01X1264797Y-1020055D01*
G01X1280157Y-1008896D01*
G01X1292860Y-994787D01*
G01X1302353Y-978345D01*
G01X1308220Y-960289D01*
G01X1310204Y-941408D01*
G01X1310204Y-941408D01*
G01X1310204Y-861408D01*
G01X1308220Y-842527D01*
G01X1302353Y-824471D01*
G01X1292860Y-808029D01*
G01X1280157Y-793920D01*
G01X1264797Y-782761D01*
G01X1247454Y-775039D01*
G01X1228883Y-771092D01*
G01X1209898Y-771092D01*
G01X1191327Y-775039D01*
G01X1173984Y-782761D01*
G01X1158624Y-793920D01*
G01X1145921Y-808029D01*
G01X1136428Y-824471D01*
G01X1130561Y-842527D01*
G01X1128577Y-861408D01*
G01X446223Y-861408D01*
G01X446223Y-861408D01*
G01X444239Y-842527D01*
G01X438372Y-824471D01*
G01X428879Y-808029D01*
G01X416176Y-793920D01*
G01X400816Y-782761D01*
G01X383473Y-775039D01*
G01X364902Y-771092D01*
G01X345917Y-771092D01*
G01X327346Y-775039D01*
G01X310003Y-782761D01*
G01X294643Y-793920D01*
G01X281940Y-808029D01*
G01X272447Y-824471D01*
G01X266580Y-842527D01*
G01X264596Y-861408D01*
G01X60160Y-861408D01*
G01X60160Y-481399D01*
G01X264596Y-481399D01*
G01X264596Y-561398D01*
G01X266580Y-580280D01*
G01X272447Y-598336D01*
G01X281940Y-614777D01*
G01X294643Y-628886D01*
G01X310003Y-640046D01*
G01X327346Y-647768D01*
G01X345917Y-651715D01*
G01X364902Y-651715D01*
G01X383473Y-647768D01*
G01X400816Y-640046D01*
G01X416176Y-628886D01*
G01X428879Y-614777D01*
G01X438372Y-598336D01*
G01X444239Y-580280D01*
G01X446223Y-561398D01*
G01X446223Y-561398D01*
G01X446223Y-481399D01*
G01X1128577Y-481399D01*
G01X1128577Y-561398D01*
G01X1130561Y-580280D01*
G01X1136428Y-598336D01*
G01X1145921Y-614777D01*
G01X1158624Y-628886D01*
G01X1173984Y-640046D01*
G01X1191327Y-647768D01*
G01X1209898Y-651715D01*
G01X1228883Y-651715D01*
G01X1247454Y-647768D01*
G01X1264797Y-640046D01*
G01X1280157Y-628886D01*
G01X1292860Y-614777D01*
G01X1302353Y-598336D01*
G01X1308220Y-580280D01*
G01X1310204Y-561398D01*
G01X1310204Y-561398D01*
G01X1310204Y-481399D01*
G01X1308220Y-462517D01*
G01X1302353Y-444461D01*
G01X1292860Y-428020D01*
G01X1280157Y-413911D01*
G01X1264797Y-402751D01*
G01X1247454Y-395029D01*
G01X1228883Y-391082D01*
G01X1209898Y-391082D01*
G01X1191327Y-395029D01*
G01X1173984Y-402751D01*
G01X1158624Y-413911D01*
G01X1145921Y-428020D01*
G01X1136428Y-444461D01*
G01X1130561Y-462517D01*
G01X1128577Y-481399D01*
G01X446223Y-481399D01*
G01X446223Y-481399D01*
G01X444239Y-462517D01*
G01X438372Y-444461D01*
G01X428879Y-428020D01*
G01X416176Y-413911D01*
G01X400816Y-402751D01*
G01X383473Y-395029D01*
G01X364902Y-391082D01*
G01X345917Y-391082D01*
G01X327346Y-395029D01*
G01X310003Y-402751D01*
G01X294643Y-413911D01*
G01X281940Y-428020D01*
G01X272447Y-444461D01*
G01X266580Y-462517D01*
G01X264596Y-481399D01*
G01X60160Y-481399D01*
G01X60160Y-250000D01*
G01X62092Y-222983D01*
G01X67850Y-196516D01*
G01X77315Y-171138D01*
G01X90296Y-147365D01*
G01X106528Y-125681D01*
G01X125681Y-106528D01*
G01X147365Y-90296D01*
G01X171138Y-77315D01*
G01X196516Y-67850D01*
G01X222983Y-62092D01*
G01X250000Y-60160D01*
G01X4750000Y-60160D01*
G01X4777017Y-62092D01*
G01X4803484Y-67850D01*
G01X4828862Y-77315D01*
G01X4852635Y-90296D01*
G01X4874319Y-106528D01*
G01X4893471Y-125681D01*
G01X4909704Y-147365D01*
G01X4922685Y-171138D01*
G01X4932150Y-196516D01*
G01X4937908Y-222983D01*
G01X4939840Y-250000D01*
G37*
G54D10*
G01X4939840Y-250000D02*
G01X4939840Y-3750000D01*
G02X4750000Y-3939840I-189840J0D01*
G01X250000Y-3939840D01*
G02X60160Y-3750000I0J189840D01*
G01X60160Y-250000D01*
G02X250000Y-60160I189840J0D01*
G01X4750000Y-60160D01*
G02X4939840Y-250000I0J-189840D01*
G01X446223Y-941408D02*
G01X446223Y-861408D01*
G03X264596Y-861408I-90814J0D01*
G01X264596Y-941408D01*
G03X446223Y-941408I90814J0D01*
G01X446223Y-561398D02*
G01X446223Y-481399D01*
G03X264596Y-481399I-90814J0D01*
G01X264596Y-561398D01*
G03X446223Y-561398I90814J0D01*
G01X481089Y-1857004D02*
G03X712716Y-1857004I115814J0D01*
G03X481089Y-1857004I-115814J0D01*
G01X481089Y-2207016D02*
G03X712716Y-2207016I115814J0D01*
G03X481089Y-2207016I-115814J0D01*
G01X1310204Y-561398D02*
G01X1310204Y-481399D01*
G03X1128577Y-481399I-90814J0D01*
G01X1128577Y-561398D01*
G03X1310204Y-561398I90814J0D01*
G01X1310204Y-941408D02*
G01X1310204Y-861408D01*
G03X1128577Y-861408I-90814J0D01*
G01X1128577Y-941408D01*
G03X1310204Y-941408I90814J0D01*
G01X2085584Y-2906789D02*
G03X2085584Y-3138416I0J-115814D01*
G03X2085584Y-2906789I0J115814D01*
G01X2184400Y-1520514D02*
G03X2184400Y-1298886I0J110814D01*
G03X2184400Y-1520514I0J-110814D01*
G01X2259400Y-2282514D02*
G03X2295214Y-2246700I0J35814D01*
G01X2295214Y-2096700D01*
G03X2259400Y-2060886I-35814J0D01*
G01X2109400Y-2060886D01*
G03X2073586Y-2096700I0J-35814D01*
G01X2073586Y-2246700D01*
G03X2109400Y-2282514I35814J0D01*
G01X2259400Y-2282514D01*
G01X2435596Y-2906789D02*
G03X2435596Y-3138416I0J-115814D01*
G03X2435596Y-2906789I0J115814D01*
G01X2438400Y-1520514D02*
G03X2438400Y-1298886I0J110814D01*
G03X2438400Y-1520514I0J-110814D01*
G01X2438400Y-2282514D02*
G03X2438400Y-2060886I0J110814D01*
G03X2438400Y-2282514I0J-110814D01*
G01X2692400Y-1520514D02*
G03X2692400Y-1298886I0J110814D01*
G03X2692400Y-1520514I0J-110814D01*
G01X2692400Y-2282514D02*
G03X2692400Y-2060886I0J110814D01*
G03X2692400Y-2282514I0J-110814D01*
G01X2946400Y-1520514D02*
G03X2946400Y-1298886I0J110814D01*
G03X2946400Y-1520514I0J-110814D01*
G01X2946400Y-2282514D02*
G03X2946400Y-2060886I0J110814D01*
G03X2946400Y-2282514I0J-110814D01*
G01X4439793Y-1285621D02*
G03X4403979Y-1249807I-35814J0D01*
G01X4282821Y-1249807D01*
G03X4247007Y-1285621I0J-35814D01*
G01X4247007Y-1406779D01*
G03X4282821Y-1442593I35814J0D01*
G01X4403979Y-1442593D01*
G03X4439793Y-1406779I0J35814D01*
G01X4439793Y-1285621D01*
G01X4439793Y-1539621D02*
G03X4403979Y-1503807I-35814J0D01*
G01X4282821Y-1503807D01*
G03X4247007Y-1539621I0J-35814D01*
G01X4247007Y-1660779D01*
G03X4282821Y-1696593I35814J0D01*
G01X4403979Y-1696593D01*
G03X4439793Y-1660779I0J35814D01*
G01X4439793Y-1539621D01*
G54D11*
G01X410155Y-901408D02*
G01X436063Y-901408D01*
G01X300664Y-901408D02*
G01X274756Y-901408D01*
G01X355410Y-996154D02*
G01X355410Y-1022062D01*
G01X355410Y-806662D02*
G01X355410Y-780754D01*
G01X410155Y-521398D02*
G01X436063Y-521398D01*
G01X300664Y-521398D02*
G01X274756Y-521398D01*
G01X355410Y-616144D02*
G01X355410Y-642052D01*
G01X355410Y-426653D02*
G01X355410Y-400745D01*
G01X517157Y-2207016D02*
G01X491249Y-2207016D01*
G01X676648Y-2207016D02*
G01X702556Y-2207016D01*
G01X596903Y-2127270D02*
G01X596903Y-2101362D01*
G01X596903Y-2286762D02*
G01X596903Y-2312670D01*
G01X1274136Y-521398D02*
G01X1300044Y-521398D01*
G01X1164645Y-521398D02*
G01X1138737Y-521398D01*
G01X1219391Y-616144D02*
G01X1219391Y-642052D01*
G01X1219391Y-426653D02*
G01X1219391Y-400745D01*
G01X1274136Y-901408D02*
G01X1300044Y-901408D01*
G01X1164645Y-901408D02*
G01X1138737Y-901408D01*
G01X1219391Y-996154D02*
G01X1219391Y-1022062D01*
G01X1219391Y-806662D02*
G01X1219391Y-780754D01*
G01X2085584Y-2942857D02*
G01X2085584Y-2916949D01*
G01X2085584Y-3102348D02*
G01X2085584Y-3128256D01*
G01X2165330Y-3022603D02*
G01X2191238Y-3022603D01*
G01X2005838Y-3022603D02*
G01X1979930Y-3022603D01*
G01X2109654Y-2171700D02*
G01X2083746Y-2171700D01*
G01X2259146Y-2171700D02*
G01X2285054Y-2171700D01*
G01X2184400Y-2096954D02*
G01X2184400Y-2071046D01*
G01X2184400Y-2246446D02*
G01X2184400Y-2272354D01*
G01X4343400Y-1406525D02*
G01X4343400Y-1432433D01*
G01X4343400Y-1285875D02*
G01X4343400Y-1259967D01*
G01X4283075Y-1346200D02*
G01X4257167Y-1346200D01*
G01X4403725Y-1346200D02*
G01X4429633Y-1346200D01*
G04 Copper End*

G04 Pad Start*
G54D12*
G01X2435596Y-3022603D03*
G01X2085584Y-3022603D03*
G54D13*
G01X4343400Y-1600200D03*
G01X4343400Y-1346200D03*
G54D14*
G01X2184400Y-2171700D03*
G54D15*
G01X2438400Y-2171700D03*
G01X2692400Y-2171700D03*
G01X2946400Y-2171700D03*
G01X2184400Y-1409700D03*
G01X2438400Y-1409700D03*
G01X2692400Y-1409700D03*
G01X2946400Y-1409700D03*
G54D17*
G01X355410Y-521398D03*
G01X1219391Y-521398D03*
G01X355410Y-901408D03*
G01X1219391Y-901408D03*
G54D12*
G01X596903Y-1857004D03*
G01X596903Y-2207016D03*
G04 Pad End*

M02*

