G04 Layer: TopPasteMaskLayer*
G04 EasyEDA Pro v2.2.43.4, 2025-11-30 18:38:01*
G04 Gerber Generator version 0.3*
G04 Scale: 100 percent, Rotated: No, Reflected: No*
G04 Dimensions in millimeters*
G04 Leading zeros omitted, absolute positions, 4 integers and 5 decimals*
G04 Generated by custom config*
%FSLAX45Y45*%
%MOMM*%
%ADD10R,0.8X0.9*%
%ADD11R,0.9X0.8*%
%ADD12C,0.4724*%
G75*


G04 PolygonModel Start*
G36*
G01X3443100Y-1575951D02*
G01X3443100Y-1612082D01*
G01X3433100Y-1622082D01*
G01X3412043Y-1622082D01*
G01X3402043Y-1632082D01*
G01X3402043Y-1669918D01*
G01X3412043Y-1679918D01*
G01X3433100Y-1679918D01*
G01X3443100Y-1689918D01*
G01X3443100Y-1726049D01*
G01X3433100Y-1736049D01*
G01X3332348Y-1736049D01*
G01X3322348Y-1726049D01*
G01X3322348Y-1575951D01*
G01X3332348Y-1565951D01*
G01X3433100Y-1565951D01*
G01X3443100Y-1575951D01*
G37*
G36*
G01X3618100Y-1575951D02*
G01X3618100Y-1612082D01*
G01X3628100Y-1622082D01*
G01X3649157Y-1622082D01*
G01X3659157Y-1632082D01*
G01X3659157Y-1669918D01*
G01X3649157Y-1679918D01*
G01X3628100Y-1679918D01*
G01X3618100Y-1689918D01*
G01X3618100Y-1726049D01*
G01X3628100Y-1736049D01*
G01X3728852Y-1736049D01*
G01X3738852Y-1726049D01*
G01X3738852Y-1575951D01*
G01X3728852Y-1565951D01*
G01X3628100Y-1565951D01*
G01X3618100Y-1575951D01*
G37*
G36*
G01X1097387Y-963905D02*
G01X1017382Y-963905D01*
G01X1017382Y-863905D01*
G01X1097387Y-863905D01*
G01X1097387Y-963905D01*
G37*
G36*
G01X972398Y-963905D02*
G01X902391Y-963905D01*
G01X902391Y-863905D01*
G01X972398Y-863905D01*
G01X972398Y-963905D01*
G37*
G36*
G01X872393Y-963905D02*
G01X802399Y-963905D01*
G01X802399Y-863905D01*
G01X872393Y-863905D01*
G01X872393Y-963905D01*
G37*
G36*
G01X772396Y-963905D02*
G01X702394Y-963905D01*
G01X702394Y-863905D01*
G01X772396Y-863905D01*
G01X772396Y-963905D01*
G37*
G36*
G01X672394Y-963905D02*
G01X602397Y-963905D01*
G01X602397Y-863905D01*
G01X672394Y-863905D01*
G01X672394Y-963905D01*
G37*
G36*
G01X557408Y-963905D02*
G01X477403Y-963905D01*
G01X477403Y-863905D01*
G01X557408Y-863905D01*
G01X557408Y-963905D01*
G37*
G36*
G01X1215281Y-996254D02*
G01X1218019Y-996391D01*
G01X1220762Y-996391D01*
G01X1223500Y-996254D01*
G01X1226231Y-995982D01*
G01X1228941Y-995573D01*
G01X1231628Y-995030D01*
G01X1234288Y-994354D01*
G01X1236909Y-993544D01*
G01X1239484Y-992607D01*
G01X1242012Y-991542D01*
G01X1244483Y-990351D01*
G01X1246891Y-989040D01*
G01X1249230Y-987610D01*
G01X1251496Y-986066D01*
G01X1253683Y-984410D01*
G01X1255784Y-982647D01*
G01X1257795Y-980780D01*
G01X1259710Y-978817D01*
G01X1261524Y-976762D01*
G01X1263233Y-974618D01*
G01X1264834Y-972391D01*
G01X1266322Y-970087D01*
G01X1267694Y-967712D01*
G01X1268946Y-965271D01*
G01X1270074Y-962772D01*
G01X1271074Y-960219D01*
G01X1271948Y-957621D01*
G01X1272690Y-954979D01*
G01X1273302Y-952307D01*
G01X1273777Y-949604D01*
G01X1274117Y-946884D01*
G01X1274323Y-944148D01*
G01X1274392Y-941408D01*
G01X1274392Y-861408D01*
G01X1274323Y-858667D01*
G01X1274117Y-855932D01*
G01X1273777Y-853211D01*
G01X1273302Y-850509D01*
G01X1272690Y-847837D01*
G01X1271948Y-845195D01*
G01X1271074Y-842597D01*
G01X1270074Y-840044D01*
G01X1268946Y-837545D01*
G01X1267694Y-835104D01*
G01X1266322Y-832729D01*
G01X1264834Y-830425D01*
G01X1263233Y-828197D01*
G01X1261524Y-826054D01*
G01X1259710Y-823999D01*
G01X1257795Y-822035D01*
G01X1255784Y-820169D01*
G01X1253683Y-818406D01*
G01X1251496Y-816750D01*
G01X1249230Y-815205D01*
G01X1246891Y-813775D01*
G01X1244483Y-812465D01*
G01X1242012Y-811273D01*
G01X1239484Y-810209D01*
G01X1236909Y-809272D01*
G01X1234288Y-808462D01*
G01X1231628Y-807786D01*
G01X1228941Y-807242D01*
G01X1226231Y-806834D01*
G01X1223500Y-806562D01*
G01X1220762Y-806425D01*
G01X1218019Y-806425D01*
G01X1215281Y-806562D01*
G01X1212550Y-806834D01*
G01X1209840Y-807242D01*
G01X1207153Y-807786D01*
G01X1204493Y-808462D01*
G01X1201872Y-809272D01*
G01X1199297Y-810209D01*
G01X1196769Y-811273D01*
G01X1194298Y-812465D01*
G01X1191890Y-813775D01*
G01X1189551Y-815205D01*
G01X1187285Y-816750D01*
G01X1185098Y-818406D01*
G01X1182997Y-820169D01*
G01X1180986Y-822035D01*
G01X1179071Y-823999D01*
G01X1177257Y-826054D01*
G01X1175548Y-828197D01*
G01X1173947Y-830425D01*
G01X1172459Y-832729D01*
G01X1171087Y-835104D01*
G01X1169835Y-837545D01*
G01X1168707Y-840044D01*
G01X1167707Y-842597D01*
G01X1166833Y-845195D01*
G01X1166091Y-847837D01*
G01X1165479Y-850509D01*
G01X1165004Y-853211D01*
G01X1164664Y-855932D01*
G01X1164458Y-858667D01*
G01X1164389Y-861408D01*
G01X1164389Y-941408D01*
G01X1164458Y-944148D01*
G01X1164664Y-946884D01*
G01X1165004Y-949604D01*
G01X1165479Y-952307D01*
G01X1166091Y-954979D01*
G01X1166833Y-957621D01*
G01X1167707Y-960219D01*
G01X1168707Y-962772D01*
G01X1169835Y-965271D01*
G01X1171087Y-967712D01*
G01X1172459Y-970087D01*
G01X1173947Y-972391D01*
G01X1175548Y-974618D01*
G01X1177257Y-976762D01*
G01X1179071Y-978817D01*
G01X1180986Y-980780D01*
G01X1182997Y-982647D01*
G01X1185098Y-984410D01*
G01X1187285Y-986066D01*
G01X1189551Y-987610D01*
G01X1191890Y-989040D01*
G01X1194298Y-990351D01*
G01X1196769Y-991542D01*
G01X1199297Y-992607D01*
G01X1201872Y-993544D01*
G01X1204493Y-994354D01*
G01X1207153Y-995030D01*
G01X1209840Y-995573D01*
G01X1212550Y-995982D01*
G01X1215281Y-996254D01*
G37*
G36*
G01X351300Y-996254D02*
G01X354038Y-996391D01*
G01X356781Y-996391D01*
G01X359519Y-996254D01*
G01X362250Y-995982D01*
G01X364960Y-995573D01*
G01X367647Y-995030D01*
G01X370307Y-994354D01*
G01X372928Y-993544D01*
G01X375503Y-992607D01*
G01X378031Y-991542D01*
G01X380502Y-990351D01*
G01X382910Y-989040D01*
G01X385249Y-987610D01*
G01X387515Y-986066D01*
G01X389702Y-984410D01*
G01X391803Y-982647D01*
G01X393814Y-980780D01*
G01X395729Y-978817D01*
G01X397543Y-976762D01*
G01X399252Y-974618D01*
G01X400853Y-972391D01*
G01X402341Y-970087D01*
G01X403713Y-967712D01*
G01X404965Y-965271D01*
G01X406093Y-962772D01*
G01X407093Y-960219D01*
G01X407967Y-957621D01*
G01X408709Y-954979D01*
G01X409321Y-952307D01*
G01X409796Y-949604D01*
G01X410136Y-946884D01*
G01X410342Y-944148D01*
G01X410411Y-941408D01*
G01X410411Y-861408D01*
G01X410342Y-858667D01*
G01X410136Y-855932D01*
G01X409796Y-853211D01*
G01X409321Y-850509D01*
G01X408709Y-847837D01*
G01X407967Y-845195D01*
G01X407093Y-842597D01*
G01X406093Y-840044D01*
G01X404965Y-837545D01*
G01X403713Y-835104D01*
G01X402341Y-832729D01*
G01X400853Y-830425D01*
G01X399252Y-828197D01*
G01X397543Y-826054D01*
G01X395729Y-823999D01*
G01X393814Y-822035D01*
G01X391803Y-820169D01*
G01X389702Y-818406D01*
G01X387515Y-816750D01*
G01X385249Y-815205D01*
G01X382910Y-813775D01*
G01X380502Y-812465D01*
G01X378031Y-811273D01*
G01X375503Y-810209D01*
G01X372928Y-809272D01*
G01X370307Y-808462D01*
G01X367647Y-807786D01*
G01X364960Y-807242D01*
G01X362250Y-806834D01*
G01X359519Y-806562D01*
G01X356781Y-806425D01*
G01X354038Y-806425D01*
G01X351300Y-806562D01*
G01X348569Y-806834D01*
G01X345859Y-807242D01*
G01X343172Y-807786D01*
G01X340512Y-808462D01*
G01X337891Y-809272D01*
G01X335316Y-810209D01*
G01X332788Y-811273D01*
G01X330317Y-812465D01*
G01X327909Y-813775D01*
G01X325570Y-815205D01*
G01X323304Y-816750D01*
G01X321117Y-818406D01*
G01X319016Y-820169D01*
G01X317005Y-822035D01*
G01X315090Y-823999D01*
G01X313276Y-826054D01*
G01X311567Y-828197D01*
G01X309966Y-830425D01*
G01X308478Y-832729D01*
G01X307106Y-835104D01*
G01X305854Y-837545D01*
G01X304726Y-840044D01*
G01X303726Y-842597D01*
G01X302852Y-845195D01*
G01X302110Y-847837D01*
G01X301498Y-850509D01*
G01X301023Y-853211D01*
G01X300683Y-855932D01*
G01X300477Y-858667D01*
G01X300408Y-861408D01*
G01X300408Y-941408D01*
G01X300477Y-944148D01*
G01X300683Y-946884D01*
G01X301023Y-949604D01*
G01X301498Y-952307D01*
G01X302110Y-954979D01*
G01X302852Y-957621D01*
G01X303726Y-960219D01*
G01X304726Y-962772D01*
G01X305854Y-965271D01*
G01X307106Y-967712D01*
G01X308478Y-970087D01*
G01X309966Y-972391D01*
G01X311567Y-974618D01*
G01X313276Y-976762D01*
G01X315090Y-978817D01*
G01X317005Y-980780D01*
G01X319016Y-982647D01*
G01X321117Y-984410D01*
G01X323304Y-986066D01*
G01X325570Y-987610D01*
G01X327909Y-989040D01*
G01X330317Y-990351D01*
G01X332788Y-991542D01*
G01X335316Y-992607D01*
G01X337891Y-993544D01*
G01X340512Y-994354D01*
G01X343172Y-995030D01*
G01X345859Y-995573D01*
G01X348569Y-995982D01*
G01X351300Y-996254D01*
G37*
G36*
G01X1215281Y-616245D02*
G01X1218019Y-616382D01*
G01X1220762Y-616382D01*
G01X1223500Y-616245D01*
G01X1226231Y-615973D01*
G01X1228941Y-615564D01*
G01X1231628Y-615020D01*
G01X1234288Y-614345D01*
G01X1236909Y-613534D01*
G01X1239484Y-612597D01*
G01X1242012Y-611533D01*
G01X1244483Y-610342D01*
G01X1246891Y-609031D01*
G01X1249230Y-607601D01*
G01X1251496Y-606057D01*
G01X1253683Y-604401D01*
G01X1255784Y-602638D01*
G01X1257795Y-600771D01*
G01X1259710Y-598808D01*
G01X1261524Y-596753D01*
G01X1263233Y-594609D01*
G01X1264834Y-592381D01*
G01X1266322Y-590078D01*
G01X1267694Y-587703D01*
G01X1268946Y-585262D01*
G01X1270074Y-582762D01*
G01X1271074Y-580210D01*
G01X1271948Y-577611D01*
G01X1272690Y-574970D01*
G01X1273302Y-572298D01*
G01X1273777Y-569595D01*
G01X1274117Y-566875D01*
G01X1274323Y-564139D01*
G01X1274392Y-561398D01*
G01X1274392Y-481399D01*
G01X1274323Y-478658D01*
G01X1274117Y-475922D01*
G01X1273777Y-473202D01*
G01X1273302Y-470499D01*
G01X1272690Y-467827D01*
G01X1271948Y-465186D01*
G01X1271074Y-462587D01*
G01X1270074Y-460035D01*
G01X1268946Y-457535D01*
G01X1267694Y-455094D01*
G01X1266322Y-452719D01*
G01X1264834Y-450416D01*
G01X1263233Y-448188D01*
G01X1261524Y-446044D01*
G01X1259710Y-443989D01*
G01X1257795Y-442026D01*
G01X1255784Y-440159D01*
G01X1253683Y-438396D01*
G01X1251496Y-436740D01*
G01X1249230Y-435196D01*
G01X1246891Y-433766D01*
G01X1244483Y-432455D01*
G01X1242012Y-431264D01*
G01X1239484Y-430200D01*
G01X1236909Y-429263D01*
G01X1234288Y-428452D01*
G01X1231628Y-427777D01*
G01X1228941Y-427233D01*
G01X1226231Y-426824D01*
G01X1223500Y-426552D01*
G01X1220762Y-426415D01*
G01X1218019Y-426415D01*
G01X1215281Y-426552D01*
G01X1212550Y-426824D01*
G01X1209840Y-427233D01*
G01X1207153Y-427777D01*
G01X1204493Y-428452D01*
G01X1201872Y-429263D01*
G01X1199297Y-430200D01*
G01X1196769Y-431264D01*
G01X1194298Y-432455D01*
G01X1191890Y-433766D01*
G01X1189551Y-435196D01*
G01X1187285Y-436740D01*
G01X1185098Y-438396D01*
G01X1182997Y-440159D01*
G01X1180986Y-442026D01*
G01X1179071Y-443989D01*
G01X1177257Y-446044D01*
G01X1175548Y-448188D01*
G01X1173947Y-450416D01*
G01X1172459Y-452719D01*
G01X1171087Y-455094D01*
G01X1169835Y-457535D01*
G01X1168707Y-460035D01*
G01X1167707Y-462587D01*
G01X1166833Y-465186D01*
G01X1166091Y-467827D01*
G01X1165479Y-470499D01*
G01X1165004Y-473202D01*
G01X1164664Y-475922D01*
G01X1164458Y-478658D01*
G01X1164389Y-481399D01*
G01X1164389Y-561398D01*
G01X1164458Y-564139D01*
G01X1164664Y-566875D01*
G01X1165004Y-569595D01*
G01X1165479Y-572298D01*
G01X1166091Y-574970D01*
G01X1166833Y-577611D01*
G01X1167707Y-580210D01*
G01X1168707Y-582762D01*
G01X1169835Y-585262D01*
G01X1171087Y-587703D01*
G01X1172459Y-590078D01*
G01X1173947Y-592381D01*
G01X1175548Y-594609D01*
G01X1177257Y-596753D01*
G01X1179071Y-598808D01*
G01X1180986Y-600771D01*
G01X1182997Y-602638D01*
G01X1185098Y-604401D01*
G01X1187285Y-606057D01*
G01X1189551Y-607601D01*
G01X1191890Y-609031D01*
G01X1194298Y-610342D01*
G01X1196769Y-611533D01*
G01X1199297Y-612597D01*
G01X1201872Y-613534D01*
G01X1204493Y-614345D01*
G01X1207153Y-615020D01*
G01X1209840Y-615564D01*
G01X1212550Y-615973D01*
G01X1215281Y-616245D01*
G37*
G36*
G01X351300Y-616245D02*
G01X354038Y-616382D01*
G01X356781Y-616382D01*
G01X359519Y-616245D01*
G01X362250Y-615973D01*
G01X364960Y-615564D01*
G01X367647Y-615020D01*
G01X370307Y-614345D01*
G01X372928Y-613534D01*
G01X375503Y-612597D01*
G01X378031Y-611533D01*
G01X380502Y-610342D01*
G01X382910Y-609031D01*
G01X385249Y-607601D01*
G01X387515Y-606057D01*
G01X389702Y-604401D01*
G01X391803Y-602638D01*
G01X393814Y-600771D01*
G01X395729Y-598808D01*
G01X397543Y-596753D01*
G01X399252Y-594609D01*
G01X400853Y-592381D01*
G01X402341Y-590078D01*
G01X403713Y-587703D01*
G01X404965Y-585262D01*
G01X406093Y-582762D01*
G01X407093Y-580210D01*
G01X407967Y-577611D01*
G01X408709Y-574970D01*
G01X409321Y-572298D01*
G01X409796Y-569595D01*
G01X410136Y-566875D01*
G01X410342Y-564139D01*
G01X410411Y-561398D01*
G01X410411Y-481399D01*
G01X410342Y-478658D01*
G01X410136Y-475922D01*
G01X409796Y-473202D01*
G01X409321Y-470499D01*
G01X408709Y-467827D01*
G01X407967Y-465186D01*
G01X407093Y-462587D01*
G01X406093Y-460035D01*
G01X404965Y-457535D01*
G01X403713Y-455094D01*
G01X402341Y-452719D01*
G01X400853Y-450416D01*
G01X399252Y-448188D01*
G01X397543Y-446044D01*
G01X395729Y-443989D01*
G01X393814Y-442026D01*
G01X391803Y-440159D01*
G01X389702Y-438396D01*
G01X387515Y-436740D01*
G01X385249Y-435196D01*
G01X382910Y-433766D01*
G01X380502Y-432455D01*
G01X378031Y-431264D01*
G01X375503Y-430200D01*
G01X372928Y-429263D01*
G01X370307Y-428452D01*
G01X367647Y-427777D01*
G01X364960Y-427233D01*
G01X362250Y-426824D01*
G01X359519Y-426552D01*
G01X356781Y-426415D01*
G01X354038Y-426415D01*
G01X351300Y-426552D01*
G01X348569Y-426824D01*
G01X345859Y-427233D01*
G01X343172Y-427777D01*
G01X340512Y-428452D01*
G01X337891Y-429263D01*
G01X335316Y-430200D01*
G01X332788Y-431264D01*
G01X330317Y-432455D01*
G01X327909Y-433766D01*
G01X325570Y-435196D01*
G01X323304Y-436740D01*
G01X321117Y-438396D01*
G01X319016Y-440159D01*
G01X317005Y-442026D01*
G01X315090Y-443989D01*
G01X313276Y-446044D01*
G01X311567Y-448188D01*
G01X309966Y-450416D01*
G01X308478Y-452719D01*
G01X307106Y-455094D01*
G01X305854Y-457535D01*
G01X304726Y-460035D01*
G01X303726Y-462587D01*
G01X302852Y-465186D01*
G01X302110Y-467827D01*
G01X301498Y-470499D01*
G01X301023Y-473202D01*
G01X300683Y-475922D01*
G01X300477Y-478658D01*
G01X300408Y-481399D01*
G01X300408Y-561398D01*
G01X300477Y-564139D01*
G01X300683Y-566875D01*
G01X301023Y-569595D01*
G01X301498Y-572298D01*
G01X302110Y-574970D01*
G01X302852Y-577611D01*
G01X303726Y-580210D01*
G01X304726Y-582762D01*
G01X305854Y-585262D01*
G01X307106Y-587703D01*
G01X308478Y-590078D01*
G01X309966Y-592381D01*
G01X311567Y-594609D01*
G01X313276Y-596753D01*
G01X315090Y-598808D01*
G01X317005Y-600771D01*
G01X319016Y-602638D01*
G01X321117Y-604401D01*
G01X323304Y-606057D01*
G01X325570Y-607601D01*
G01X327909Y-609031D01*
G01X330317Y-610342D01*
G01X332788Y-611533D01*
G01X335316Y-612597D01*
G01X337891Y-613534D01*
G01X340512Y-614345D01*
G01X343172Y-615020D01*
G01X345859Y-615564D01*
G01X348569Y-615973D01*
G01X351300Y-616245D01*
G37*
G36*
G01X2166798Y-775200D02*
G01X2166798Y-647202D01*
G01X2171799Y-642201D01*
G01X2286800Y-642201D01*
G01X2291799Y-647202D01*
G01X2292302Y-688205D01*
G01X2247301Y-688205D01*
G01X2247301Y-733204D01*
G01X2291301Y-733204D01*
G01X2291799Y-775200D01*
G01X2286800Y-780202D01*
G01X2171799Y-780202D01*
G01X2166798Y-775200D01*
G37*
G36*
G01X2381799Y-775200D02*
G01X2381801Y-733204D01*
G01X2426299Y-733204D01*
G01X2426299Y-688205D01*
G01X2382302Y-688205D01*
G01X2381799Y-647202D01*
G01X2386800Y-642201D01*
G01X2501798Y-642201D01*
G01X2506800Y-647202D01*
G01X2506800Y-775200D01*
G01X2501798Y-780202D01*
G01X2386800Y-780202D01*
G01X2381799Y-775200D01*
G37*
G36*
G01X3103702Y-659900D02*
G01X3103702Y-787898D01*
G01X3098701Y-792899D01*
G01X2983700Y-792899D01*
G01X2978701Y-787898D01*
G01X2978198Y-746895D01*
G01X3023199Y-746895D01*
G01X3023199Y-701896D01*
G01X2979199Y-701896D01*
G01X2978701Y-659900D01*
G01X2983700Y-654898D01*
G01X3098701Y-654898D01*
G01X3103702Y-659900D01*
G37*
G36*
G01X2888701Y-659900D02*
G01X2888699Y-701896D01*
G01X2844201Y-701896D01*
G01X2844201Y-746895D01*
G01X2888198Y-746895D01*
G01X2888701Y-787898D01*
G01X2883700Y-792899D01*
G01X2768702Y-792899D01*
G01X2763700Y-787898D01*
G01X2763700Y-659900D01*
G01X2768702Y-654898D01*
G01X2883700Y-654898D01*
G01X2888701Y-659900D01*
G37*
G36*
G01X1404798Y-1816600D02*
G01X1404798Y-1688602D01*
G01X1409799Y-1683601D01*
G01X1524800Y-1683601D01*
G01X1529799Y-1688602D01*
G01X1530302Y-1729605D01*
G01X1485301Y-1729605D01*
G01X1485301Y-1774604D01*
G01X1529301Y-1774604D01*
G01X1529799Y-1816600D01*
G01X1524800Y-1821602D01*
G01X1409799Y-1821602D01*
G01X1404798Y-1816600D01*
G37*
G36*
G01X1619799Y-1816600D02*
G01X1619801Y-1774604D01*
G01X1664299Y-1774604D01*
G01X1664299Y-1729605D01*
G01X1620302Y-1729605D01*
G01X1619799Y-1688602D01*
G01X1624800Y-1683601D01*
G01X1739798Y-1683601D01*
G01X1744800Y-1688602D01*
G01X1744800Y-1816600D01*
G01X1739798Y-1821602D01*
G01X1624800Y-1821602D01*
G01X1619799Y-1816600D01*
G37*
G36*
G01X1404798Y-2146800D02*
G01X1404798Y-2018802D01*
G01X1409799Y-2013801D01*
G01X1524800Y-2013801D01*
G01X1529799Y-2018802D01*
G01X1530302Y-2059805D01*
G01X1485301Y-2059805D01*
G01X1485301Y-2104804D01*
G01X1529301Y-2104804D01*
G01X1529799Y-2146800D01*
G01X1524800Y-2151802D01*
G01X1409799Y-2151802D01*
G01X1404798Y-2146800D01*
G37*
G36*
G01X1619799Y-2146800D02*
G01X1619801Y-2104804D01*
G01X1664299Y-2104804D01*
G01X1664299Y-2059805D01*
G01X1620302Y-2059805D01*
G01X1619799Y-2018802D01*
G01X1624800Y-2013801D01*
G01X1739798Y-2013801D01*
G01X1744800Y-2018802D01*
G01X1744800Y-2146800D01*
G01X1739798Y-2151802D01*
G01X1624800Y-2151802D01*
G01X1619799Y-2146800D01*
G37*

G04 Pad Start*
G54D10*
G01X2241702Y-1054100D03*
G01X2101698Y-1054100D03*
G54D11*
G01X3454400Y-1149198D03*
G01X3454400Y-1289202D03*
G04 Pad End*

M02*

