G04 Layer: TopSilkscreenLayer*
G04 EasyEDA Pro v2.2.43.4, 2025-11-30 18:38:01*
G04 Gerber Generator version 0.3*
G04 Scale: 100 percent, Rotated: No, Reflected: No*
G04 Dimensions in millimeters*
G04 Leading zeros omitted, absolute positions, 4 integers and 5 decimals*
G04 Generated by custom config*
%FSLAX45Y45*%
%MOMM*%
%ADD10C,0.1*%
%ADD11C,0.1524*%
%ADD12C,0.254*%
%ADD13C,0.2*%
%ADD14C,0.25*%
%ADD15C,0.6004*%
%ADD16C,0.6*%
G75*


G04 Text Start*
G54D10*
G01X3823462Y-3472180D02*
G01X3795268Y-3472180D01*
G01X3792474Y-3497580D01*
G01X3795268Y-3494786D01*
G01X3803650Y-3491992D01*
G01X3812032Y-3491992D01*
G01X3820414Y-3494786D01*
G01X3826256Y-3500374D01*
G01X3829050Y-3508756D01*
G01X3829050Y-3514344D01*
G01X3826256Y-3522980D01*
G01X3820414Y-3528568D01*
G01X3812032Y-3531362D01*
G01X3803650Y-3531362D01*
G01X3795268Y-3528568D01*
G01X3792474Y-3525774D01*
G01X3789680Y-3520186D01*
G01X3886200Y-3472180D02*
G01X3858260Y-3472180D01*
G01X3855466Y-3497580D01*
G01X3858260Y-3494786D01*
G01X3866642Y-3491992D01*
G01X3875024Y-3491992D01*
G01X3883406Y-3494786D01*
G01X3888994Y-3500374D01*
G01X3892042Y-3508756D01*
G01X3892042Y-3514344D01*
G01X3888994Y-3522980D01*
G01X3883406Y-3528568D01*
G01X3875024Y-3531362D01*
G01X3866642Y-3531362D01*
G01X3858260Y-3528568D01*
G01X3855466Y-3525774D01*
G01X3852672Y-3520186D01*
G01X3949192Y-3472180D02*
G01X3921252Y-3472180D01*
G01X3918458Y-3497580D01*
G01X3921252Y-3494786D01*
G01X3929634Y-3491992D01*
G01X3938016Y-3491992D01*
G01X3946398Y-3494786D01*
G01X3951986Y-3500374D01*
G01X3955034Y-3508756D01*
G01X3955034Y-3514344D01*
G01X3951986Y-3522980D01*
G01X3946398Y-3528568D01*
G01X3938016Y-3531362D01*
G01X3929634Y-3531362D01*
G01X3921252Y-3528568D01*
G01X3918458Y-3525774D01*
G01X3915664Y-3520186D01*
G01X3978656Y-3550920D02*
G01X4029202Y-3550920D01*
G01X4052824Y-3472180D02*
G01X4052824Y-3531362D01*
G01X4052824Y-3531362D02*
G01X4086352Y-3531362D01*
G01X4109974Y-3472180D02*
G01X4109974Y-3531362D01*
G01X4109974Y-3472180D02*
G01X4146296Y-3472180D01*
G01X4109974Y-3500374D02*
G01X4132326Y-3500374D01*
G01X4109974Y-3531362D02*
G01X4146296Y-3531362D01*
G01X4169918Y-3472180D02*
G01X4169918Y-3531362D01*
G01X4169918Y-3472180D02*
G01X4189476Y-3472180D01*
G01X4197858Y-3474974D01*
G01X4203446Y-3480562D01*
G01X4206240Y-3486404D01*
G01X4209288Y-3494786D01*
G01X4209288Y-3508756D01*
G01X4206240Y-3517138D01*
G01X4203446Y-3522980D01*
G01X4197858Y-3528568D01*
G01X4189476Y-3531362D01*
G01X4169918Y-3531362D01*
G01X4232910Y-3550920D02*
G01X4283456Y-3550920D01*
G01X4307078Y-3472180D02*
G01X4307078Y-3531362D01*
G01X4307078Y-3472180D02*
G01X4343400Y-3472180D01*
G01X4307078Y-3500374D02*
G01X4329430Y-3500374D01*
G01X4367022Y-3472180D02*
G01X4367022Y-3531362D01*
G01X4367022Y-3531362D02*
G01X4400550Y-3531362D01*
G01X4446524Y-3472180D02*
G01X4424172Y-3531362D01*
G01X4446524Y-3472180D02*
G01X4469130Y-3531362D01*
G01X4432554Y-3511550D02*
G01X4460494Y-3511550D01*
G01X4532122Y-3480562D02*
G01X4526280Y-3474974D01*
G01X4517898Y-3472180D01*
G01X4506722Y-3472180D01*
G01X4498340Y-3474974D01*
G01X4492752Y-3480562D01*
G01X4492752Y-3486404D01*
G01X4495546Y-3491992D01*
G01X4498340Y-3494786D01*
G01X4503928Y-3497580D01*
G01X4520692Y-3503168D01*
G01X4526280Y-3505962D01*
G01X4529074Y-3508756D01*
G01X4532122Y-3514344D01*
G01X4532122Y-3522980D01*
G01X4526280Y-3528568D01*
G01X4517898Y-3531362D01*
G01X4506722Y-3531362D01*
G01X4498340Y-3528568D01*
G01X4492752Y-3522980D01*
G01X4555744Y-3472180D02*
G01X4555744Y-3531362D01*
G01X4595114Y-3472180D02*
G01X4595114Y-3531362D01*
G01X4555744Y-3500374D02*
G01X4595114Y-3500374D01*
G01X3792474Y-3651504D02*
G01X3792474Y-3648710D01*
G01X3795268Y-3642868D01*
G01X3798062Y-3640074D01*
G01X3803650Y-3637280D01*
G01X3814826Y-3637280D01*
G01X3820414Y-3640074D01*
G01X3823462Y-3642868D01*
G01X3826256Y-3648710D01*
G01X3826256Y-3654298D01*
G01X3823462Y-3659886D01*
G01X3817620Y-3668268D01*
G01X3789680Y-3696462D01*
G01X3829050Y-3696462D01*
G01X3869436Y-3637280D02*
G01X3861054Y-3640074D01*
G01X3855466Y-3648710D01*
G01X3852672Y-3662680D01*
G01X3852672Y-3671062D01*
G01X3855466Y-3685286D01*
G01X3861054Y-3693668D01*
G01X3869436Y-3696462D01*
G01X3875024Y-3696462D01*
G01X3883406Y-3693668D01*
G01X3888994Y-3685286D01*
G01X3892042Y-3671062D01*
G01X3892042Y-3662680D01*
G01X3888994Y-3648710D01*
G01X3883406Y-3640074D01*
G01X3875024Y-3637280D01*
G01X3869436Y-3637280D01*
G01X3918458Y-3651504D02*
G01X3918458Y-3648710D01*
G01X3921252Y-3642868D01*
G01X3924046Y-3640074D01*
G01X3929634Y-3637280D01*
G01X3940810Y-3637280D01*
G01X3946398Y-3640074D01*
G01X3949192Y-3642868D01*
G01X3951986Y-3648710D01*
G01X3951986Y-3654298D01*
G01X3949192Y-3659886D01*
G01X3943604Y-3668268D01*
G01X3915664Y-3696462D01*
G01X3955034Y-3696462D01*
G01X4012184Y-3637280D02*
G01X3984244Y-3637280D01*
G01X3981450Y-3662680D01*
G01X3984244Y-3659886D01*
G01X3992626Y-3657092D01*
G01X4001008Y-3657092D01*
G01X4009390Y-3659886D01*
G01X4014978Y-3665474D01*
G01X4018026Y-3673856D01*
G01X4018026Y-3679444D01*
G01X4014978Y-3688080D01*
G01X4009390Y-3693668D01*
G01X4001008Y-3696462D01*
G01X3992626Y-3696462D01*
G01X3984244Y-3693668D01*
G01X3981450Y-3690874D01*
G01X3978656Y-3685286D01*
G01X4041648Y-3648710D02*
G01X4047236Y-3645662D01*
G01X4055618Y-3637280D01*
G01X4055618Y-3696462D01*
G01X4079240Y-3648710D02*
G01X4084828Y-3645662D01*
G01X4093210Y-3637280D01*
G01X4093210Y-3696462D01*
G01X4119626Y-3651504D02*
G01X4119626Y-3648710D01*
G01X4122420Y-3642868D01*
G01X4125214Y-3640074D01*
G01X4130802Y-3637280D01*
G01X4141978Y-3637280D01*
G01X4147566Y-3640074D01*
G01X4150360Y-3642868D01*
G01X4153154Y-3648710D01*
G01X4153154Y-3654298D01*
G01X4150360Y-3659886D01*
G01X4144772Y-3668268D01*
G01X4116832Y-3696462D01*
G01X4156202Y-3696462D01*
G01X4185412Y-3637280D02*
G01X4216146Y-3637280D01*
G01X4199382Y-3659886D01*
G01X4207764Y-3659886D01*
G01X4213352Y-3662680D01*
G01X4216146Y-3665474D01*
G01X4219194Y-3673856D01*
G01X4219194Y-3679444D01*
G01X4216146Y-3688080D01*
G01X4210558Y-3693668D01*
G01X4202176Y-3696462D01*
G01X4193794Y-3696462D01*
G01X4185412Y-3693668D01*
G01X4182618Y-3690874D01*
G01X4179824Y-3685286D01*
G01X4355338Y-1897126D02*
G01X4304538Y-1897126D01*
G01X4329938Y-1871980D02*
G01X4329938Y-1922526D01*
G01X4342638Y-1008380D02*
G01X4342638Y-1058926D01*
G01X1719580Y-3023362D02*
G01X1770126Y-3023362D01*
G01X2767838Y-3002026D02*
G01X2717038Y-3002026D01*
G01X2742438Y-2976880D02*
G01X2742438Y-3027426D01*
G01X507238Y-1592326D02*
G01X456438Y-1592326D01*
G01X481838Y-1567180D02*
G01X481838Y-1617726D01*
G01X596138Y-2545080D02*
G01X596138Y-2595626D01*
G01X2152904Y-2416556D02*
G01X2147062Y-2419350D01*
G01X2141474Y-2424938D01*
G01X2138680Y-2430780D01*
G01X2138680Y-2441956D01*
G01X2141474Y-2447544D01*
G01X2147062Y-2453132D01*
G01X2152904Y-2455926D01*
G01X2161286Y-2458720D01*
G01X2175256Y-2458720D01*
G01X2183638Y-2455926D01*
G01X2189480Y-2453132D01*
G01X2195068Y-2447544D01*
G01X2197862Y-2441956D01*
G01X2197862Y-2430780D01*
G01X2195068Y-2424938D01*
G01X2189480Y-2419350D01*
G01X2183638Y-2416556D01*
G01X2175256Y-2416556D01*
G01X2175256Y-2430780D02*
G01X2175256Y-2416556D01*
G01X2138680Y-2392934D02*
G01X2197862Y-2392934D01*
G01X2138680Y-2392934D02*
G01X2197862Y-2353564D01*
G01X2138680Y-2353564D02*
G01X2197862Y-2353564D01*
G01X2138680Y-2329942D02*
G01X2197862Y-2329942D01*
G01X2138680Y-2329942D02*
G01X2138680Y-2310384D01*
G01X2141474Y-2302002D01*
G01X2147062Y-2296414D01*
G01X2152904Y-2293620D01*
G01X2161286Y-2290572D01*
G01X2175256Y-2290572D01*
G01X2183638Y-2293620D01*
G01X2189480Y-2296414D01*
G01X2195068Y-2302002D01*
G01X2197862Y-2310384D01*
G01X2197862Y-2329942D01*
G01X2062480Y-1328420D02*
G01X2121662Y-1306068D01*
G01X2062480Y-1283462D02*
G01X2121662Y-1306068D01*
G01X2076704Y-1217676D02*
G01X2070862Y-1220470D01*
G01X2065274Y-1226312D01*
G01X2062480Y-1231900D01*
G01X2062480Y-1243076D01*
G01X2065274Y-1248664D01*
G01X2070862Y-1254252D01*
G01X2076704Y-1257046D01*
G01X2085086Y-1259840D01*
G01X2099056Y-1259840D01*
G01X2107438Y-1257046D01*
G01X2113280Y-1254252D01*
G01X2118868Y-1248664D01*
G01X2121662Y-1243076D01*
G01X2121662Y-1231900D01*
G01X2118868Y-1226312D01*
G01X2113280Y-1220470D01*
G01X2107438Y-1217676D01*
G01X2076704Y-1151890D02*
G01X2070862Y-1154684D01*
G01X2065274Y-1160526D01*
G01X2062480Y-1166114D01*
G01X2062480Y-1177290D01*
G01X2065274Y-1182878D01*
G01X2070862Y-1188466D01*
G01X2076704Y-1191260D01*
G01X2085086Y-1194054D01*
G01X2099056Y-1194054D01*
G01X2107438Y-1191260D01*
G01X2113280Y-1188466D01*
G01X2118868Y-1182878D01*
G01X2121662Y-1177290D01*
G01X2121662Y-1166114D01*
G01X2118868Y-1160526D01*
G01X2113280Y-1154684D01*
G01X2107438Y-1151890D01*
G01X2303780Y-2477262D02*
G01X2362962Y-2477262D01*
G01X2303780Y-2496820D02*
G01X2303780Y-2457450D01*
G01X2303780Y-2433828D02*
G01X2362962Y-2433828D01*
G01X2303780Y-2433828D02*
G01X2303780Y-2408682D01*
G01X2306574Y-2400300D01*
G01X2309368Y-2397506D01*
G01X2315210Y-2394458D01*
G01X2320798Y-2394458D01*
G01X2326386Y-2397506D01*
G01X2329180Y-2400300D01*
G01X2331974Y-2408682D01*
G01X2331974Y-2433828D01*
G01X2331974Y-2414270D02*
G01X2362962Y-2394458D01*
G01X2303780Y-2370836D02*
G01X2362962Y-2370836D01*
G01X2318004Y-2305050D02*
G01X2312162Y-2307844D01*
G01X2306574Y-2313686D01*
G01X2303780Y-2319274D01*
G01X2303780Y-2330450D01*
G01X2306574Y-2336038D01*
G01X2312162Y-2341626D01*
G01X2318004Y-2344420D01*
G01X2326386Y-2347214D01*
G01X2340356Y-2347214D01*
G01X2348738Y-2344420D01*
G01X2354580Y-2341626D01*
G01X2360168Y-2336038D01*
G01X2362962Y-2330450D01*
G01X2362962Y-2319274D01*
G01X2360168Y-2313686D01*
G01X2354580Y-2307844D01*
G01X2348738Y-2305050D01*
G01X2340356Y-2305050D01*
G01X2340356Y-2319274D02*
G01X2340356Y-2305050D01*
G01X2557780Y-2454656D02*
G01X2560574Y-2460244D01*
G01X2566162Y-2465832D01*
G01X2572004Y-2468626D01*
G01X2580386Y-2471420D01*
G01X2594356Y-2471420D01*
G01X2602738Y-2468626D01*
G01X2608580Y-2465832D01*
G01X2614168Y-2460244D01*
G01X2616962Y-2454656D01*
G01X2616962Y-2443480D01*
G01X2614168Y-2437638D01*
G01X2608580Y-2432050D01*
G01X2602738Y-2429256D01*
G01X2594356Y-2426462D01*
G01X2580386Y-2426462D01*
G01X2572004Y-2429256D01*
G01X2566162Y-2432050D01*
G01X2560574Y-2437638D01*
G01X2557780Y-2443480D01*
G01X2557780Y-2454656D01*
G01X2557780Y-2402840D02*
G01X2599944Y-2402840D01*
G01X2608580Y-2400046D01*
G01X2614168Y-2394458D01*
G01X2616962Y-2386076D01*
G01X2616962Y-2380488D01*
G01X2614168Y-2372106D01*
G01X2608580Y-2366518D01*
G01X2599944Y-2363470D01*
G01X2557780Y-2363470D01*
G01X2557780Y-2320290D02*
G01X2616962Y-2320290D01*
G01X2557780Y-2339848D02*
G01X2557780Y-2300478D01*
G01X2786380Y-2560320D02*
G01X2845562Y-2560320D01*
G01X2786380Y-2560320D02*
G01X2786380Y-2535174D01*
G01X2789174Y-2526538D01*
G01X2791968Y-2523744D01*
G01X2797810Y-2520950D01*
G01X2803398Y-2520950D01*
G01X2808986Y-2523744D01*
G01X2811780Y-2526538D01*
G01X2814574Y-2535174D01*
G01X2814574Y-2560320D01*
G01X2814574Y-2540762D02*
G01X2845562Y-2520950D01*
G01X2786380Y-2497328D02*
G01X2845562Y-2497328D01*
G01X2786380Y-2497328D02*
G01X2786380Y-2461006D01*
G01X2814574Y-2497328D02*
G01X2814574Y-2474976D01*
G01X2845562Y-2497328D02*
G01X2845562Y-2461006D01*
G01X2794762Y-2398014D02*
G01X2789174Y-2403856D01*
G01X2786380Y-2412238D01*
G01X2786380Y-2423414D01*
G01X2789174Y-2431796D01*
G01X2794762Y-2437384D01*
G01X2800604Y-2437384D01*
G01X2806192Y-2434590D01*
G01X2808986Y-2431796D01*
G01X2811780Y-2426208D01*
G01X2817368Y-2409444D01*
G01X2820162Y-2403856D01*
G01X2822956Y-2401062D01*
G01X2828544Y-2398014D01*
G01X2837180Y-2398014D01*
G01X2842768Y-2403856D01*
G01X2845562Y-2412238D01*
G01X2845562Y-2423414D01*
G01X2842768Y-2431796D01*
G01X2837180Y-2437384D01*
G01X2786380Y-2374392D02*
G01X2845562Y-2374392D01*
G01X2786380Y-2374392D02*
G01X2786380Y-2338070D01*
G01X2814574Y-2374392D02*
G01X2814574Y-2352040D01*
G01X2845562Y-2374392D02*
G01X2845562Y-2338070D01*
G01X2786380Y-2294890D02*
G01X2845562Y-2294890D01*
G01X2786380Y-2314448D02*
G01X2786380Y-2275078D01*
G01X2532380Y-1214120D02*
G01X2591562Y-1214120D01*
G01X2532380Y-1214120D02*
G01X2532380Y-1194562D01*
G01X2535174Y-1186180D01*
G01X2540762Y-1180338D01*
G01X2546604Y-1177544D01*
G01X2554986Y-1174750D01*
G01X2568956Y-1174750D01*
G01X2577338Y-1177544D01*
G01X2583180Y-1180338D01*
G01X2588768Y-1186180D01*
G01X2591562Y-1194562D01*
G01X2591562Y-1214120D01*
G01X2532380Y-1151128D02*
G01X2591562Y-1151128D01*
G01X2540762Y-1088136D02*
G01X2535174Y-1093978D01*
G01X2532380Y-1102360D01*
G01X2532380Y-1113536D01*
G01X2535174Y-1121918D01*
G01X2540762Y-1127506D01*
G01X2546604Y-1127506D01*
G01X2552192Y-1124712D01*
G01X2554986Y-1121918D01*
G01X2557780Y-1116330D01*
G01X2563368Y-1099566D01*
G01X2566162Y-1093978D01*
G01X2568956Y-1091184D01*
G01X2574544Y-1088136D01*
G01X2583180Y-1088136D01*
G01X2588768Y-1093978D01*
G01X2591562Y-1102360D01*
G01X2591562Y-1113536D01*
G01X2588768Y-1121918D01*
G01X2583180Y-1127506D01*
G01X2546604Y-1022350D02*
G01X2540762Y-1025144D01*
G01X2535174Y-1030986D01*
G01X2532380Y-1036574D01*
G01X2532380Y-1047750D01*
G01X2535174Y-1053338D01*
G01X2540762Y-1058926D01*
G01X2546604Y-1061720D01*
G01X2554986Y-1064514D01*
G01X2568956Y-1064514D01*
G01X2577338Y-1061720D01*
G01X2583180Y-1058926D01*
G01X2588768Y-1053338D01*
G01X2591562Y-1047750D01*
G01X2591562Y-1036574D01*
G01X2588768Y-1030986D01*
G01X2583180Y-1025144D01*
G01X2577338Y-1022350D01*
G01X2532380Y-998728D02*
G01X2591562Y-998728D01*
G01X2532380Y-959358D02*
G01X2591562Y-959358D01*
G01X2560574Y-998728D02*
G01X2560574Y-959358D01*
G01X2659380Y-1232662D02*
G01X2718562Y-1232662D01*
G01X2659380Y-1252220D02*
G01X2659380Y-1212850D01*
G01X2659380Y-1189228D02*
G01X2718562Y-1189228D01*
G01X2659380Y-1149858D02*
G01X2718562Y-1149858D01*
G01X2687574Y-1189228D02*
G01X2687574Y-1149858D01*
G01X2659380Y-1126236D02*
G01X2718562Y-1126236D01*
G01X2659380Y-1126236D02*
G01X2659380Y-1101090D01*
G01X2662174Y-1092708D01*
G01X2664968Y-1089914D01*
G01X2670810Y-1086866D01*
G01X2676398Y-1086866D01*
G01X2681986Y-1089914D01*
G01X2684780Y-1092708D01*
G01X2687574Y-1101090D01*
G01X2687574Y-1126236D01*
G01X2687574Y-1106678D02*
G01X2718562Y-1086866D01*
G01X2659380Y-1063244D02*
G01X2718562Y-1063244D01*
G01X2659380Y-1063244D02*
G01X2659380Y-1026922D01*
G01X2687574Y-1063244D02*
G01X2687574Y-1040892D01*
G01X2718562Y-1063244D02*
G01X2718562Y-1026922D01*
G01X2667762Y-963930D02*
G01X2662174Y-969772D01*
G01X2659380Y-978154D01*
G01X2659380Y-989330D01*
G01X2662174Y-997712D01*
G01X2667762Y-1003300D01*
G01X2673604Y-1003300D01*
G01X2679192Y-1000506D01*
G01X2681986Y-997712D01*
G01X2684780Y-992124D01*
G01X2690368Y-975360D01*
G01X2693162Y-969772D01*
G01X2695956Y-966978D01*
G01X2701544Y-963930D01*
G01X2710180Y-963930D01*
G01X2715768Y-969772D01*
G01X2718562Y-978154D01*
G01X2718562Y-989330D01*
G01X2715768Y-997712D01*
G01X2710180Y-1003300D01*
G01X3133344Y-1429004D02*
G01X3130550Y-1423162D01*
G01X3124962Y-1417574D01*
G01X3119120Y-1414780D01*
G01X3107944Y-1414780D01*
G01X3102356Y-1417574D01*
G01X3096768Y-1423162D01*
G01X3093974Y-1429004D01*
G01X3091180Y-1437386D01*
G01X3091180Y-1451356D01*
G01X3093974Y-1459738D01*
G01X3096768Y-1465580D01*
G01X3102356Y-1471168D01*
G01X3107944Y-1473962D01*
G01X3119120Y-1473962D01*
G01X3124962Y-1471168D01*
G01X3130550Y-1465580D01*
G01X3133344Y-1459738D01*
G01X3173730Y-1414780D02*
G01X3168142Y-1417574D01*
G01X3162554Y-1423162D01*
G01X3159760Y-1429004D01*
G01X3156966Y-1437386D01*
G01X3156966Y-1451356D01*
G01X3159760Y-1459738D01*
G01X3162554Y-1465580D01*
G01X3168142Y-1471168D01*
G01X3173730Y-1473962D01*
G01X3184906Y-1473962D01*
G01X3190494Y-1471168D01*
G01X3196336Y-1465580D01*
G01X3199130Y-1459738D01*
G01X3201924Y-1451356D01*
G01X3201924Y-1437386D01*
G01X3199130Y-1429004D01*
G01X3196336Y-1423162D01*
G01X3190494Y-1417574D01*
G01X3184906Y-1414780D01*
G01X3173730Y-1414780D01*
G01X3225546Y-1414780D02*
G01X3225546Y-1473962D01*
G01X3225546Y-1414780D02*
G01X3264916Y-1473962D01*
G01X3264916Y-1414780D02*
G01X3264916Y-1473962D01*
G01X3308096Y-1414780D02*
G01X3308096Y-1473962D01*
G01X3288538Y-1414780D02*
G01X3327908Y-1414780D01*
G54D11*
G01X2074111Y-878949D02*
G01X2071063Y-872599D01*
G01X2064713Y-866503D01*
G01X2058617Y-863455D01*
G01X2046171Y-863455D01*
G01X2040075Y-866503D01*
G01X2033725Y-872599D01*
G01X2030677Y-878949D01*
G01X2027629Y-888093D01*
G01X2027629Y-903587D01*
G01X2030677Y-912985D01*
G01X2033725Y-919081D01*
G01X2040075Y-925431D01*
G01X2046171Y-928479D01*
G01X2058617Y-928479D01*
G01X2064713Y-925431D01*
G01X2071063Y-919081D01*
G01X2074111Y-912985D01*
G01X2104337Y-875901D02*
G01X2110433Y-872599D01*
G01X2119577Y-863455D01*
G01X2119577Y-928479D01*
G01X1692402Y-3134360D02*
G01X1689354Y-3128010D01*
G01X1683004Y-3121914D01*
G01X1676908Y-3118866D01*
G01X1664462Y-3118866D01*
G01X1658366Y-3121914D01*
G01X1652016Y-3128010D01*
G01X1648968Y-3134360D01*
G01X1645920Y-3143504D01*
G01X1645920Y-3158998D01*
G01X1648968Y-3168396D01*
G01X1652016Y-3174492D01*
G01X1658366Y-3180842D01*
G01X1664462Y-3183890D01*
G01X1676908Y-3183890D01*
G01X1683004Y-3180842D01*
G01X1689354Y-3174492D01*
G01X1692402Y-3168396D01*
G01X1725676Y-3134360D02*
G01X1725676Y-3131312D01*
G01X1728724Y-3124962D01*
G01X1731772Y-3121914D01*
G01X1737868Y-3118866D01*
G01X1750314Y-3118866D01*
G01X1756664Y-3121914D01*
G01X1759712Y-3124962D01*
G01X1762760Y-3131312D01*
G01X1762760Y-3137408D01*
G01X1759712Y-3143504D01*
G01X1753362Y-3152902D01*
G01X1722628Y-3183890D01*
G01X1765808Y-3183890D01*
G01X3279249Y-1316789D02*
G01X3272899Y-1319837D01*
G01X3266803Y-1326187D01*
G01X3263755Y-1332283D01*
G01X3263755Y-1344729D01*
G01X3266803Y-1350825D01*
G01X3272899Y-1357175D01*
G01X3279249Y-1360223D01*
G01X3288393Y-1363271D01*
G01X3303887Y-1363271D01*
G01X3313285Y-1360223D01*
G01X3319381Y-1357175D01*
G01X3325731Y-1350825D01*
G01X3328779Y-1344729D01*
G01X3328779Y-1332283D01*
G01X3325731Y-1326187D01*
G01X3319381Y-1319837D01*
G01X3313285Y-1316789D01*
G01X3263755Y-1280467D02*
G01X3263755Y-1246431D01*
G01X3288393Y-1264973D01*
G01X3288393Y-1255829D01*
G01X3291441Y-1249479D01*
G01X3294743Y-1246431D01*
G01X3303887Y-1243383D01*
G01X3310237Y-1243383D01*
G01X3319381Y-1246431D01*
G01X3325731Y-1252527D01*
G01X3328779Y-1261925D01*
G01X3328779Y-1271323D01*
G01X3325731Y-1280467D01*
G01X3322429Y-1283515D01*
G01X3316333Y-1286563D01*
G01X3931666Y-1211580D02*
G01X3996690Y-1211580D01*
G01X3996690Y-1211580D02*
G01X3996690Y-1174496D01*
G01X3931666Y-1144270D02*
G01X3996690Y-1144270D01*
G01X3931666Y-1144270D02*
G01X3931666Y-1104138D01*
G01X3962654Y-1144270D02*
G01X3962654Y-1119632D01*
G01X3996690Y-1144270D02*
G01X3996690Y-1104138D01*
G01X3931666Y-1073912D02*
G01X3996690Y-1073912D01*
G01X3931666Y-1073912D02*
G01X3931666Y-1052322D01*
G01X3934714Y-1043178D01*
G01X3940810Y-1036828D01*
G01X3947160Y-1033780D01*
G01X3956304Y-1030732D01*
G01X3971798Y-1030732D01*
G01X3981196Y-1033780D01*
G01X3987292Y-1036828D01*
G01X3993642Y-1043178D01*
G01X3996690Y-1052322D01*
G01X3996690Y-1073912D01*
G01X3944112Y-1000506D02*
G01X3940810Y-994410D01*
G01X3931666Y-985266D01*
G01X3996690Y-985266D01*
G01X3738880Y-1897634D02*
G01X3738880Y-1832610D01*
G01X3738880Y-1897634D02*
G01X3710940Y-1897634D01*
G01X3701796Y-1894586D01*
G01X3698748Y-1891538D01*
G01X3695446Y-1885188D01*
G01X3695446Y-1879092D01*
G01X3698748Y-1872996D01*
G01X3701796Y-1869948D01*
G01X3710940Y-1866646D01*
G01X3738880Y-1866646D01*
G01X3717290Y-1866646D02*
G01X3695446Y-1832610D01*
G01X3659124Y-1897634D02*
G01X3625088Y-1897634D01*
G01X3643630Y-1872996D01*
G01X3634486Y-1872996D01*
G01X3628136Y-1869948D01*
G01X3625088Y-1866646D01*
G01X3622040Y-1857502D01*
G01X3622040Y-1851152D01*
G01X3625088Y-1842008D01*
G01X3631184Y-1835658D01*
G01X3640582Y-1832610D01*
G01X3649980Y-1832610D01*
G01X3659124Y-1835658D01*
G01X3662172Y-1838960D01*
G01X3665220Y-1845056D01*
G01X3144520Y-1899666D02*
G01X3144520Y-1946148D01*
G01X3147568Y-1955292D01*
G01X3153918Y-1961642D01*
G01X3163062Y-1964690D01*
G01X3169412Y-1964690D01*
G01X3178556Y-1961642D01*
G01X3184652Y-1955292D01*
G01X3187954Y-1946148D01*
G01X3187954Y-1899666D01*
G01X3218180Y-1912112D02*
G01X3224276Y-1908810D01*
G01X3233420Y-1899666D01*
G01X3233420Y-1964690D01*
G01X1579880Y-741934D02*
G01X1579880Y-695452D01*
G01X1576832Y-686308D01*
G01X1570482Y-679958D01*
G01X1561338Y-676910D01*
G01X1554988Y-676910D01*
G01X1545844Y-679958D01*
G01X1539748Y-686308D01*
G01X1536446Y-695452D01*
G01X1536446Y-741934D01*
G01X1463040Y-732790D02*
G01X1469136Y-738886D01*
G01X1478534Y-741934D01*
G01X1490980Y-741934D01*
G01X1500124Y-738886D01*
G01X1506220Y-732790D01*
G01X1506220Y-726440D01*
G01X1503172Y-720344D01*
G01X1500124Y-717296D01*
G01X1494028Y-714248D01*
G01X1475486Y-707898D01*
G01X1469136Y-704850D01*
G01X1466088Y-701802D01*
G01X1463040Y-695452D01*
G01X1463040Y-686308D01*
G01X1469136Y-679958D01*
G01X1478534Y-676910D01*
G01X1490980Y-676910D01*
G01X1500124Y-679958D01*
G01X1506220Y-686308D01*
G01X1432814Y-741934D02*
G01X1432814Y-676910D01*
G01X1432814Y-741934D02*
G01X1405128Y-741934D01*
G01X1395730Y-738886D01*
G01X1392682Y-735838D01*
G01X1389634Y-729488D01*
G01X1389634Y-723392D01*
G01X1392682Y-717296D01*
G01X1395730Y-714248D01*
G01X1405128Y-710946D01*
G01X1432814Y-710946D02*
G01X1405128Y-710946D01*
G01X1395730Y-707898D01*
G01X1392682Y-704850D01*
G01X1389634Y-698754D01*
G01X1389634Y-689356D01*
G01X1392682Y-683260D01*
G01X1395730Y-679958D01*
G01X1405128Y-676910D01*
G01X1432814Y-676910D01*
G01X1359408Y-729488D02*
G01X1353312Y-732790D01*
G01X1344168Y-741934D01*
G01X1344168Y-676910D01*
G01X1221740Y-2022602D02*
G01X1228090Y-2019554D01*
G01X1234186Y-2013204D01*
G01X1237234Y-2007108D01*
G01X1237234Y-1994662D01*
G01X1234186Y-1988566D01*
G01X1228090Y-1982216D01*
G01X1221740Y-1979168D01*
G01X1212596Y-1976120D01*
G01X1197102Y-1976120D01*
G01X1187704Y-1979168D01*
G01X1181608Y-1982216D01*
G01X1175258Y-1988566D01*
G01X1172210Y-1994662D01*
G01X1172210Y-2007108D01*
G01X1175258Y-2013204D01*
G01X1181608Y-2019554D01*
G01X1187704Y-2022602D01*
G01X1237234Y-2083562D02*
G01X1194054Y-2052828D01*
G01X1194054Y-2099056D01*
G01X1237234Y-2083562D02*
G01X1172210Y-2083562D01*
G01X2160687Y-504937D02*
G01X2160687Y-569961D01*
G01X2160687Y-504937D02*
G01X2188627Y-504937D01*
G01X2197771Y-507985D01*
G01X2200819Y-511033D01*
G01X2204121Y-517383D01*
G01X2204121Y-523479D01*
G01X2200819Y-529575D01*
G01X2197771Y-532623D01*
G01X2188627Y-535925D01*
G01X2160687Y-535925D01*
G01X2182277Y-535925D02*
G01X2204121Y-569961D01*
G01X2234347Y-517383D02*
G01X2240443Y-514081D01*
G01X2249587Y-504937D01*
G01X2249587Y-569961D01*
G01X2872740Y-464566D02*
G01X2872740Y-529590D01*
G01X2872740Y-464566D02*
G01X2900680Y-464566D01*
G01X2909824Y-467614D01*
G01X2912872Y-470662D01*
G01X2916174Y-477012D01*
G01X2916174Y-483108D01*
G01X2912872Y-489204D01*
G01X2909824Y-492252D01*
G01X2900680Y-495554D01*
G01X2872740Y-495554D01*
G01X2894330Y-495554D02*
G01X2916174Y-529590D01*
G01X2949448Y-480060D02*
G01X2949448Y-477012D01*
G01X2952496Y-470662D01*
G01X2955544Y-467614D01*
G01X2961640Y-464566D01*
G01X2974086Y-464566D01*
G01X2980436Y-467614D01*
G01X2983484Y-470662D01*
G01X2986532Y-477012D01*
G01X2986532Y-483108D01*
G01X2983484Y-489204D01*
G01X2977134Y-498602D01*
G01X2946400Y-529590D01*
G01X2989580Y-529590D01*
G01X1398687Y-1546337D02*
G01X1398687Y-1611361D01*
G01X1398687Y-1546337D02*
G01X1426627Y-1546337D01*
G01X1435771Y-1549385D01*
G01X1438819Y-1552433D01*
G01X1442121Y-1558783D01*
G01X1442121Y-1564879D01*
G01X1438819Y-1570975D01*
G01X1435771Y-1574023D01*
G01X1426627Y-1577325D01*
G01X1398687Y-1577325D01*
G01X1420277Y-1577325D02*
G01X1442121Y-1611361D01*
G01X1503081Y-1546337D02*
G01X1472347Y-1589517D01*
G01X1518575Y-1589517D01*
G01X1503081Y-1546337D02*
G01X1503081Y-1611361D01*
G01X1398687Y-1876537D02*
G01X1398687Y-1941561D01*
G01X1398687Y-1876537D02*
G01X1426627Y-1876537D01*
G01X1435771Y-1879585D01*
G01X1438819Y-1882633D01*
G01X1442121Y-1888983D01*
G01X1442121Y-1895079D01*
G01X1438819Y-1901175D01*
G01X1435771Y-1904223D01*
G01X1426627Y-1907525D01*
G01X1398687Y-1907525D01*
G01X1420277Y-1907525D02*
G01X1442121Y-1941561D01*
G01X1509431Y-1876537D02*
G01X1478443Y-1876537D01*
G01X1475395Y-1904223D01*
G01X1478443Y-1901175D01*
G01X1487587Y-1898127D01*
G01X1496985Y-1898127D01*
G01X1506383Y-1901175D01*
G01X1512479Y-1907525D01*
G01X1515527Y-1916669D01*
G01X1515527Y-1923019D01*
G01X1512479Y-1932163D01*
G01X1506383Y-1938513D01*
G01X1496985Y-1941561D01*
G01X1487587Y-1941561D01*
G01X1478443Y-1938513D01*
G01X1475395Y-1935211D01*
G01X1472347Y-1929115D01*
G04 Text End*

G04 PolygonModel Start*
G54D12*
G01X2143681Y-1125057D02*
G01X2063684Y-1125057D01*
G01X2199726Y-1125103D02*
G01X2279724Y-1125103D01*
G01X2143681Y-983089D02*
G01X2063684Y-983089D01*
G01X2199726Y-983137D02*
G01X2279724Y-983137D01*
G01X2032709Y-1094075D02*
G01X2032709Y-1014070D01*
G01X2310702Y-1014123D02*
G01X2310702Y-1094125D01*
G01X2279719Y-983137D02*
G02X2310702Y-1014123I0J-30983D01*
G01X2310702Y-1094120D02*
G02X2279719Y-1125103I-30983J0D01*
G01X2063689Y-1125057D02*
G02X2032709Y-1094075I3J30983D01*
G01X2032709Y-1014077D02*
G02X2063689Y-983089I30983J5D01*
G01X2480600Y-3142600D02*
G01X2605060Y-3142600D01*
G01X2542830Y-3075290D02*
G01X2542830Y-3209910D01*
G01X2260346Y-3422650D02*
G03X2253234Y-3422650I-3556J399985D01*
G36*
G01X1985599Y-2722601D02*
G03X1985599Y-3322599I314998J-299999D01*
G01X1985599Y-2722601D01*
G37*
G01X3525357Y-1247219D02*
G01X3525357Y-1327216D01*
G01X3525403Y-1191174D02*
G01X3525403Y-1111176D01*
G01X3383389Y-1247219D02*
G01X3383389Y-1327216D01*
G01X3383437Y-1191174D02*
G01X3383437Y-1111176D01*
G01X3494375Y-1358191D02*
G01X3414370Y-1358191D01*
G01X3414423Y-1080198D02*
G01X3494425Y-1080198D01*
G01X3383437Y-1111181D02*
G02X3414423Y-1080198I30983J0D01*
G01X3494420Y-1080198D02*
G02X3525403Y-1111181I0J-30983D01*
G01X3525357Y-1327211D02*
G02X3494375Y-1358191I-30983J3D01*
G01X3414377Y-1358191D02*
G02X3383389Y-1327211I-5J30983D01*
G01X4533900Y-1219200D02*
G01X4152900Y-1219200D01*
G01X4216400Y-1600200D02*
G01X4216400Y-1498600D01*
G01X4165600Y-1549400D02*
G01X4259707Y-1549400D01*
G01X4533900Y-1219201D02*
G02X4152900Y-1219201I-190500J-254000D01*
G54D11*
G01X3435480Y-1543091D02*
G01X3299488Y-1543091D01*
G01X3299488Y-1543091D02*
G01X3299488Y-1758909D01*
G01X3299488Y-1758909D02*
G01X3435480Y-1758909D01*
G01X3625720Y-1543091D02*
G01X3761712Y-1543091D01*
G01X3761712Y-1543091D02*
G01X3761712Y-1758909D01*
G01X3761712Y-1758909D02*
G01X3625720Y-1758909D01*
G54D13*
G01X2071400Y-1726700D02*
G01X2071370Y-1727200D01*
G01X2071370Y-1727200D02*
G01X2071370Y-1525778D01*
G01X2071370Y-1525778D02*
G01X3061462Y-1525778D01*
G01X3061462Y-1525778D02*
G01X3061462Y-2055622D01*
G01X3061462Y-2055622D02*
G01X2071370Y-2055622D01*
G01X2071370Y-2055622D02*
G01X2071370Y-1854200D01*
G01X2071370Y-1854200D02*
G01X2071400Y-1854700D01*
G01X2071400Y-1854700D02*
G03X2071400Y-1727700I0J63500D01*
G54D14*
G01X2041906Y-2171700D02*
G03X2066904Y-2171573I12499J127D01*
G03X2041906Y-2171446I-12499J0D01*
G54D16*
G01X2120392Y-1955800D02*
G03X2180391Y-1955546I29999J254D01*
G03X2120392Y-1955292I-30000J0D01*
G54D14*
G01X454487Y-941403D02*
G01X433324Y-941403D01*
G01X1141476Y-941403D02*
G01X1120313Y-941403D01*
G01X1237399Y-781403D02*
G01X1237399Y-785612D01*
G01X1237399Y-781403D02*
G01X1237399Y-637172D01*
G01X337401Y-641403D02*
G01X337401Y-786412D01*
G01X1237475Y-401282D02*
G01X1237475Y-403568D01*
G01X1237475Y-403568D02*
G01X1237475Y-261328D01*
G01X1237475Y-261328D02*
G01X337299Y-261328D01*
G01X337299Y-261328D02*
G01X337299Y-401282D01*
G01X827402Y-801403D02*
G01X827402Y-821403D01*
G01X687403Y-761403D02*
G01X687403Y-801403D01*
G01X687403Y-801403D02*
G01X747403Y-801403D01*
G01X747403Y-801403D02*
G01X747403Y-821403D01*
G01X887402Y-761403D02*
G01X887402Y-801403D01*
G01X887402Y-801403D02*
G01X827402Y-801403D01*
G01X888403Y-761403D02*
G01X686402Y-761403D01*
G54D12*
G01X1069167Y-378079D02*
G01X1019383Y-628269D01*
G01X1019383Y-628269D02*
G01X889335Y-628269D01*
G01X889335Y-628269D02*
G01X839297Y-378079D01*
G01X839297Y-378079D02*
G01X888827Y-378079D01*
G01X888827Y-378079D02*
G01X928705Y-588137D01*
G01X928705Y-588137D02*
G01X981537Y-588137D01*
G01X981537Y-588137D02*
G01X1021669Y-378079D01*
G01X1021669Y-378079D02*
G01X1069167Y-378079D01*
G01X1039195Y-508127D02*
G01X999317Y-508127D01*
G01X909259Y-508157D02*
G01X869259Y-508157D01*
G01X581581Y-508665D02*
G01X541581Y-508665D01*
G01X711518Y-508635D02*
G01X671640Y-508635D01*
G01X741490Y-378587D02*
G01X691706Y-628777D01*
G01X691706Y-628777D02*
G01X561658Y-628777D01*
G01X561658Y-628777D02*
G01X511620Y-378587D01*
G01X511620Y-378587D02*
G01X561150Y-378587D01*
G01X561150Y-378587D02*
G01X601028Y-588645D01*
G01X601028Y-588645D02*
G01X653860Y-588645D01*
G01X653860Y-588645D02*
G01X693992Y-378587D01*
G01X693992Y-378587D02*
G01X741490Y-378587D01*
G01X716900Y-1812000D02*
G01X716900Y-1687540D01*
G01X649590Y-1749770D02*
G01X784210Y-1749770D01*
G01X996950Y-2032254D02*
G03X996950Y-2039366I-399985J-3556D01*
G36*
G01X296901Y-2307001D02*
G03X896899Y-2307001I299999J314998D01*
G01X296901Y-2307001D01*
G37*
G54D11*
G01X2384420Y-802909D02*
G01X2512913Y-802909D01*
G01X2512913Y-802909D02*
G01X2512913Y-619491D01*
G01X2512913Y-619491D02*
G01X2384420Y-619491D01*
G01X2289180Y-802909D02*
G01X2160687Y-802909D01*
G01X2160687Y-802909D02*
G01X2160687Y-619491D01*
G01X2160687Y-619491D02*
G01X2289180Y-619491D01*
G01X2886080Y-632191D02*
G01X2757587Y-632191D01*
G01X2757587Y-632191D02*
G01X2757587Y-815609D01*
G01X2757587Y-815609D02*
G01X2886080Y-815609D01*
G01X2981320Y-632191D02*
G01X3109813Y-632191D01*
G01X3109813Y-632191D02*
G01X3109813Y-815609D01*
G01X3109813Y-815609D02*
G01X2981320Y-815609D01*
G01X1622420Y-1844309D02*
G01X1750913Y-1844309D01*
G01X1750913Y-1844309D02*
G01X1750913Y-1660891D01*
G01X1750913Y-1660891D02*
G01X1622420Y-1660891D01*
G01X1527180Y-1844309D02*
G01X1398687Y-1844309D01*
G01X1398687Y-1844309D02*
G01X1398687Y-1660891D01*
G01X1398687Y-1660891D02*
G01X1527180Y-1660891D01*
G01X1622420Y-2174509D02*
G01X1750913Y-2174509D01*
G01X1750913Y-2174509D02*
G01X1750913Y-1991091D01*
G01X1750913Y-1991091D02*
G01X1622420Y-1991091D01*
G01X1527180Y-2174509D02*
G01X1398687Y-2174509D01*
G01X1398687Y-2174509D02*
G01X1398687Y-1991091D01*
G01X1398687Y-1991091D02*
G01X1527180Y-1991091D01*

G04 Circle Start*
G54D12*
G01X4089400Y-1473200D02*
G03X4597400Y-1473200I254000J0D01*
G03X4089400Y-1473200I-254000J0D01*
G04 Circle End*

M02*

